<svg width="343" height="352" viewBox="0 0 343 352" fill="none" xmlns="http://www.w3.org/2000/svg">
<rect width="343" height="352" rx="12" fill="white"/>
<path d="M64.0224 33.188H61.0524V30.848H67.2804V28.4H61.0524H58.4784V41H63.8964C66.5964 41 68.2164 39.596 68.2164 37.058C68.2164 34.502 66.7764 33.188 64.0224 33.188ZM63.8064 38.552H61.0524V35.546H63.9324C65.1384 35.546 65.6244 36.014 65.6244 37.022C65.6244 38.03 65.0124 38.552 63.8064 38.552ZM75.7273 30.884C74.3413 30.884 73.2793 31.532 72.5953 32.486V31.1H70.0213V45.5H72.5953V39.668C73.2973 40.604 74.3233 41.216 75.7273 41.216C78.3013 41.216 80.2453 39.092 80.2453 36.05C80.2453 32.99 78.2653 30.884 75.7273 30.884ZM75.1333 38.768C73.6933 38.768 72.5953 37.688 72.5953 36.05C72.5953 34.43 73.6933 33.332 75.1333 33.332C76.5733 33.332 77.6353 34.43 77.6353 36.05C77.6353 37.688 76.5553 38.768 75.1333 38.768ZM86.9566 30.884C84.1126 30.884 81.8086 33.062 81.8086 36.05C81.8086 39.02 84.0766 41.216 86.9566 41.216C89.8546 41.216 92.1226 39.038 92.1226 36.05C92.1226 33.062 89.8186 30.884 86.9566 30.884ZM86.9566 33.332C88.3966 33.332 89.5126 34.43 89.5126 36.05C89.5126 37.688 88.3966 38.768 86.9566 38.768C85.5166 38.768 84.4006 37.688 84.4006 36.05C84.4006 34.43 85.5166 33.332 86.9566 33.332ZM100.945 31.1V34.754H96.4994V31.1H93.9254V41H96.4994V37.184H100.945V41H103.519V31.1H100.945ZM112.096 31.1L108.028 37.508L108.154 34.61V31.1H105.58V41H108.55L112.636 34.556L112.474 37.49V41H115.048V31.1H112.096ZM122.907 30.884C121.521 30.884 120.459 31.532 119.775 32.486V31.1H117.201V45.5H119.775V39.668C120.477 40.604 121.503 41.216 122.907 41.216C125.481 41.216 127.425 39.092 127.425 36.05C127.425 32.99 125.445 30.884 122.907 30.884ZM122.313 38.768C120.873 38.768 119.775 37.688 119.775 36.05C119.775 34.43 120.873 33.332 122.313 33.332C123.753 33.332 124.815 34.43 124.815 36.05C124.815 37.688 123.735 38.768 122.313 38.768ZM134.136 30.884C131.292 30.884 128.988 33.062 128.988 36.05C128.988 39.02 131.256 41.216 134.136 41.216C137.034 41.216 139.302 39.038 139.302 36.05C139.302 33.062 136.998 30.884 134.136 30.884ZM134.136 33.332C135.576 33.332 136.692 34.43 136.692 36.05C136.692 37.688 135.576 38.768 134.136 38.768C132.696 38.768 131.58 37.688 131.58 36.05C131.58 34.43 132.696 33.332 134.136 33.332ZM148.161 35.654C148.899 35.168 149.439 34.628 149.439 33.602C149.439 31.622 147.873 31.1 145.893 31.1H141.105V41H146.343C148.377 41 149.943 40.172 149.943 38.138C149.943 36.878 149.313 35.996 148.161 35.654ZM146.847 34.088C146.847 34.7 146.559 35.024 145.677 35.024H143.679V33.116H145.677C146.559 33.116 146.847 33.44 146.847 34.088ZM146.145 38.984H143.679V36.86H146.145C147.009 36.86 147.333 37.202 147.333 37.904C147.333 38.624 147.045 38.984 146.145 38.984ZM159.068 31.1V32.486C158.384 31.532 157.34 30.884 155.936 30.884C153.398 30.884 151.436 32.99 151.436 36.05C151.436 39.092 153.362 41.216 155.954 41.216C157.34 41.216 158.366 40.604 159.05 39.668V41H161.624L161.642 31.1H159.068ZM156.53 38.768C155.108 38.768 154.028 37.688 154.028 36.05C154.028 34.43 155.09 33.332 156.53 33.332C157.97 33.332 159.068 34.43 159.068 36.05C159.068 37.688 157.97 38.768 156.53 38.768ZM170.713 31.1V34.754H166.267V31.1H163.693V41H166.267V37.184H170.713V41H173.287V31.1H170.713ZM181.863 31.1L177.795 37.508L177.921 34.61V31.1H175.347V41H178.317L182.403 34.556L182.241 37.49V41H184.815V31.1H181.863ZM191.811 30.884C188.787 30.884 186.645 33.098 186.645 36.068C186.645 39.02 188.769 41.216 191.865 41.216C193.989 41.216 195.969 40.19 196.707 37.85H194.043C193.701 38.642 192.837 39.092 191.847 39.092C190.515 39.092 189.435 38.3 189.273 36.716H196.869C197.121 33.458 195.087 30.884 191.811 30.884ZM191.793 33.008C193.035 33.008 193.845 33.746 194.133 34.826H189.399C189.723 33.764 190.533 33.008 191.793 33.008ZM211.037 31.1V34.754H206.591V31.1H204.017V41H206.591V37.184H211.037V41H213.611V31.1H211.037ZM220.586 30.884C217.742 30.884 215.438 33.062 215.438 36.05C215.438 39.02 217.706 41.216 220.586 41.216C223.484 41.216 225.752 39.038 225.752 36.05C225.752 33.062 223.448 30.884 220.586 30.884ZM220.586 33.332C222.026 33.332 223.142 34.43 223.142 36.05C223.142 37.688 222.026 38.768 220.586 38.768C219.146 38.768 218.03 37.688 218.03 36.05C218.03 34.43 219.146 33.332 220.586 33.332ZM235.636 31.1L233.08 34.628L230.524 31.1H227.554V41H230.128V37.49L229.966 34.106L233.044 38.534H233.116L236.194 34.106L236.014 37.49V41H238.588V31.1H235.636ZM245.582 30.884C242.558 30.884 240.416 33.098 240.416 36.068C240.416 39.02 242.54 41.216 245.636 41.216C247.76 41.216 249.74 40.19 250.478 37.85H247.814C247.472 38.642 246.608 39.092 245.618 39.092C244.286 39.092 243.206 38.3 243.044 36.716H250.64C250.892 33.458 248.858 30.884 245.582 30.884ZM245.564 33.008C246.806 33.008 247.616 33.746 247.904 34.826H243.17C243.494 33.764 244.304 33.008 245.564 33.008ZM258.188 30.884C256.802 30.884 255.74 31.532 255.056 32.486V31.1H252.482V45.5H255.056V39.668C255.758 40.604 256.784 41.216 258.188 41.216C260.762 41.216 262.706 39.092 262.706 36.05C262.706 32.99 260.726 30.884 258.188 30.884ZM257.594 38.768C256.154 38.768 255.056 37.688 255.056 36.05C255.056 34.43 256.154 33.332 257.594 33.332C259.034 33.332 260.096 34.43 260.096 36.05C260.096 37.688 259.016 38.768 257.594 38.768ZM269.418 30.884C266.574 30.884 264.27 33.062 264.27 36.05C264.27 39.02 266.538 41.216 269.418 41.216C272.316 41.216 274.584 39.038 274.584 36.05C274.584 33.062 272.28 30.884 269.418 30.884ZM269.418 33.332C270.858 33.332 271.974 34.43 271.974 36.05C271.974 37.688 270.858 38.768 269.418 38.768C267.978 38.768 266.862 37.688 266.862 36.05C266.862 34.43 267.978 33.332 269.418 33.332ZM283.442 35.654C284.18 35.168 284.72 34.628 284.72 33.602C284.72 31.622 283.154 31.1 281.174 31.1H276.386V41H281.624C283.658 41 285.224 40.172 285.224 38.138C285.224 36.878 284.594 35.996 283.442 35.654ZM282.128 34.088C282.128 34.7 281.84 35.024 280.958 35.024H278.96V33.116H280.958C281.84 33.116 282.128 33.44 282.128 34.088ZM281.426 38.984H278.96V36.86H281.426C282.29 36.86 282.614 37.202 282.614 37.904C282.614 38.624 282.326 38.984 281.426 38.984Z" fill="#222222"/>
<rect x="24" y="70" width="295" height="54" rx="8" fill="white"/>
<path opacity="0.4" d="M44.73 86.82C45.32 86.57 45.67 86.02 45.67 85.38C45.67 84.21 44.64 83.38 43.16 83.38C41.76 83.38 40.7 84.04 40.5 85.5H41.64C41.83 84.72 42.33 84.46 43.13 84.46C44.04 84.46 44.52 84.89 44.52 85.52C44.52 86.13 44.06 86.41 43.17 86.41H42.32V87.41H43.38C44.41 87.41 44.75 87.82 44.75 88.41C44.75 89.1 44.26 89.54 43.25 89.54C42.34 89.54 41.72 89.23 41.55 88.41H40.41C40.57 89.9 41.76 90.62 43.27 90.62C44.86 90.62 45.9 89.81 45.9 88.51C45.9 87.69 45.46 87.08 44.73 86.82ZM51.2388 85V85.94C50.8388 85.31 50.1788 84.88 49.3088 84.88C47.8688 84.88 46.7788 86.07 46.7788 87.75C46.7788 89.43 47.8488 90.62 49.3188 90.62C50.1788 90.62 50.8388 90.21 51.2388 89.58V90.5H52.3688V85H51.2388ZM49.5588 89.54C48.6088 89.54 47.9188 88.81 47.9188 87.75C47.9188 86.7 48.5988 85.96 49.5588 85.96C50.5188 85.96 51.2488 86.7 51.2488 87.75C51.2488 88.81 50.5188 89.54 49.5588 89.54ZM56.3473 84.88C54.6873 84.88 53.5073 86.1 53.5073 87.76C53.5073 89.42 54.6973 90.62 56.3673 90.62C57.5373 90.62 58.5873 90.04 59.0173 88.81H57.8473C57.5873 89.35 57.0373 89.63 56.3773 89.63C55.4573 89.63 54.7473 89.07 54.6573 88.06H59.1273C59.2373 86.25 58.1173 84.88 56.3473 84.88ZM56.3473 85.86C57.1773 85.86 57.7473 86.39 57.9173 87.14H54.7173C54.9073 86.4 55.4873 85.86 56.3473 85.86ZM64.0503 87.59C64.4803 87.38 64.7703 87.03 64.7703 86.47C64.7703 85.49 63.8803 84.88 62.4803 84.88C60.9503 84.88 60.2303 85.6 60.0303 86.56H61.1803C61.3303 85.93 61.8703 85.74 62.4603 85.74C63.3203 85.74 63.6303 86.1 63.6303 86.55C63.6303 86.95 63.4003 87.23 62.6303 87.23H61.8103V88.1H62.8303C63.6203 88.1 63.8003 88.48 63.8003 88.86C63.8003 89.39 63.4203 89.74 62.5403 89.74C61.6803 89.74 61.1903 89.45 61.0303 88.69H59.8903C60.1003 89.83 60.8503 90.62 62.5703 90.62C64.0103 90.62 64.9403 90 64.9403 88.94C64.9403 88.32 64.6403 87.81 64.0503 87.59ZM71.3748 89.44V85H67.4448L66.9548 88.05C66.8248 88.83 66.6648 89.25 66.4148 89.44H65.4548V91.93H66.5848V90.5H71.2448V91.93H72.3748V89.44H71.3748ZM67.6448 89.44C67.8348 89.16 67.9748 88.74 68.0748 88.1L68.4048 86.06H70.2448V89.44H67.6448Z" fill="#222222"/>
<path d="M46.426 104.348C47.238 103.998 47.7 103.228 47.7 102.332C47.7 100.694 46.258 99.532 44.298 99.532C42.464 99.532 40.98 100.47 40.7 102.5H42.296C42.562 101.408 43.262 101.03 44.256 101.03C45.432 101.03 46.104 101.646 46.104 102.528C46.104 103.382 45.46 103.774 44.27 103.774H43.22V105.174H44.55C45.922 105.174 46.412 105.748 46.412 106.574C46.412 107.54 45.712 108.17 44.41 108.17C43.276 108.17 42.408 107.722 42.17 106.574H40.574C40.798 108.66 42.45 109.668 44.424 109.668C46.552 109.668 48.008 108.562 48.008 106.714C48.008 105.566 47.42 104.712 46.426 104.348ZM52.1139 99.7L49.0199 100.904V102.458L51.2459 101.548V109.5H52.8279V99.7H52.1139ZM66.7939 108.016V101.8H61.2919L60.6059 106.07C60.4239 107.162 60.1999 107.75 59.8499 108.016H58.5059V111.502H60.0879V109.5H66.6119V111.502H68.1939V108.016H66.7939ZM61.5719 108.016C61.8379 107.624 62.0339 107.036 62.1739 106.14L62.6359 103.284H65.2119V108.016H61.5719ZM72.9351 101.632C70.6111 101.632 68.9591 103.34 68.9591 105.664C68.9591 107.988 70.6251 109.668 72.9631 109.668C74.6011 109.668 76.0711 108.856 76.6731 107.134H75.0351C74.6711 107.89 73.9011 108.282 72.9771 108.282C71.6891 108.282 70.6951 107.498 70.5691 106.084H76.8271C76.9811 103.55 75.4131 101.632 72.9351 101.632ZM72.9351 103.004C74.0971 103.004 74.8951 103.746 75.1331 104.796H70.6531C70.9191 103.76 71.7311 103.004 72.9351 103.004ZM85.6233 109.5L81.5493 105.454L85.3153 101.8H83.2853L79.9533 105.132V101.8H78.3713V109.5H79.9533V105.944L83.5793 109.5H85.6233ZM92.0605 101.8V103.116C91.5005 102.234 90.5765 101.632 89.3585 101.632C87.3425 101.632 85.8165 103.298 85.8165 105.65C85.8165 108.002 87.3145 109.668 89.3725 109.668C90.5765 109.668 91.5005 109.094 92.0605 108.212V109.5H93.6425V101.8H92.0605ZM89.7085 108.156C88.3785 108.156 87.4125 107.134 87.4125 105.65C87.4125 104.18 88.3645 103.144 89.7085 103.144C91.0525 103.144 92.0745 104.18 92.0745 105.65C92.0745 107.134 91.0525 108.156 89.7085 108.156ZM99.6745 101.982C98.5125 101.982 97.4065 102.528 96.8465 103.592C97.0705 100.596 98.6945 100.05 102.194 100.05V98.552C97.9245 98.552 95.2365 99.49 95.2365 104.964C95.2505 108.198 97.0985 109.668 99.2545 109.668C101.452 109.668 103.16 108.086 103.16 105.692C103.16 103.452 101.634 101.982 99.6745 101.982ZM99.1845 108.296C97.8545 108.296 96.8325 107.316 96.8325 105.776C96.8325 104.292 97.9665 103.34 99.2685 103.34C100.584 103.34 101.578 104.306 101.578 105.776C101.578 107.316 100.514 108.296 99.1845 108.296ZM109.098 101.632C107.88 101.632 106.956 102.234 106.396 103.116V101.8H104.814V113H106.396V108.212C106.956 109.08 107.88 109.668 109.084 109.668C111.142 109.668 112.64 108.002 112.64 105.65C112.64 103.298 111.114 101.632 109.098 101.632ZM108.748 108.156C107.404 108.156 106.382 107.134 106.382 105.65C106.382 104.18 107.404 103.144 108.748 103.144C110.092 103.144 111.044 104.18 111.044 105.65C111.044 107.134 110.078 108.156 108.748 108.156ZM116.673 101.8C115.091 101.8 113.873 102.598 113.873 104.376C113.873 105.664 114.671 106.336 115.735 106.602L113.481 109.5H115.427L117.429 106.714H118.955V109.5H120.537V101.8H116.673ZM116.799 105.412C115.861 105.412 115.469 104.978 115.469 104.348C115.469 103.704 115.777 103.228 116.757 103.228H118.955V105.412H116.799ZM128.818 107.988L128.846 107.974L130.386 106.644C132.388 104.894 133.424 104.012 133.424 102.528C133.424 100.876 132.122 99.532 130.036 99.532C128.006 99.532 126.536 100.806 126.312 102.85H127.908C128.118 101.73 128.776 101.044 129.966 101.044C131.17 101.044 131.828 101.744 131.828 102.598C131.828 103.466 131.268 103.956 129.07 105.874L126.228 108.366V109.5H133.662V107.988H128.818ZM138.906 99.532C136.358 99.532 134.832 101.422 134.832 104.6C134.832 107.778 136.358 109.668 138.906 109.668C141.482 109.668 142.994 107.75 142.994 104.6C142.994 101.45 141.482 99.532 138.906 99.532ZM138.906 108.156C137.352 108.156 136.428 107.064 136.428 104.6C136.428 102.136 137.352 101.044 138.906 101.044C140.474 101.044 141.398 102.136 141.398 104.6C141.398 107.064 140.474 108.156 138.906 108.156ZM146.715 107.988L146.743 107.974L148.283 106.644C150.285 104.894 151.321 104.012 151.321 102.528C151.321 100.876 150.019 99.532 147.933 99.532C145.903 99.532 144.433 100.806 144.209 102.85H145.805C146.015 101.73 146.673 101.044 147.863 101.044C149.067 101.044 149.725 101.744 149.725 102.598C149.725 103.466 149.165 103.956 146.967 105.874L144.125 108.366V109.5H151.559V107.988H146.715ZM155.301 107.988L155.329 107.974L156.869 106.644C158.871 104.894 159.907 104.012 159.907 102.528C159.907 100.876 158.605 99.532 156.519 99.532C154.489 99.532 153.019 100.806 152.795 102.85H154.391C154.601 101.73 155.259 101.044 156.449 101.044C157.653 101.044 158.311 101.744 158.311 102.598C158.311 103.466 157.751 103.956 155.553 105.874L152.711 108.366V109.5H160.145V107.988H155.301Z" fill="#222222"/>
<g opacity="0.4">
<path fill-rule="evenodd" clip-rule="evenodd" d="M300.778 95.603H288.895C288.619 95.603 288.395 95.379 288.395 95.103C288.395 94.827 288.619 94.603 288.895 94.603H300.778C301.054 94.603 301.278 94.827 301.278 95.103C301.278 95.379 301.054 95.603 300.778 95.603Z" fill="#222222"/>
<path fill-rule="evenodd" clip-rule="evenodd" d="M297.801 98.2065C297.525 98.2065 297.298 97.9825 297.298 97.7065C297.298 97.4305 297.519 97.2065 297.795 97.2065H297.801C298.077 97.2065 298.301 97.4305 298.301 97.7065C298.301 97.9825 298.077 98.2065 297.801 98.2065Z" fill="#222222"/>
<path fill-rule="evenodd" clip-rule="evenodd" d="M294.843 98.2065C294.567 98.2065 294.34 97.9825 294.34 97.7065C294.34 97.4305 294.561 97.2065 294.837 97.2065H294.843C295.119 97.2065 295.343 97.4305 295.343 97.7065C295.343 97.9825 295.119 98.2065 294.843 98.2065Z" fill="#222222"/>
<path fill-rule="evenodd" clip-rule="evenodd" d="M291.878 98.2065C291.602 98.2065 291.375 97.9825 291.375 97.7065C291.375 97.4305 291.596 97.2065 291.872 97.2065H291.878C292.154 97.2065 292.378 97.4305 292.378 97.7065C292.378 97.9825 292.154 98.2065 291.878 98.2065Z" fill="#222222"/>
<path fill-rule="evenodd" clip-rule="evenodd" d="M297.801 100.798C297.525 100.798 297.298 100.574 297.298 100.298C297.298 100.022 297.519 99.7976 297.795 99.7976H297.801C298.077 99.7976 298.301 100.022 298.301 100.298C298.301 100.574 298.077 100.798 297.801 100.798Z" fill="#222222"/>
<path fill-rule="evenodd" clip-rule="evenodd" d="M294.843 100.798C294.567 100.798 294.34 100.574 294.34 100.298C294.34 100.022 294.561 99.7976 294.837 99.7976H294.843C295.119 99.7976 295.343 100.022 295.343 100.298C295.343 100.574 295.119 100.798 294.843 100.798Z" fill="#222222"/>
<path fill-rule="evenodd" clip-rule="evenodd" d="M291.878 100.798C291.602 100.798 291.375 100.574 291.375 100.298C291.375 100.022 291.596 99.7976 291.872 99.7976H291.878C292.154 99.7976 292.378 100.022 292.378 100.298C292.378 100.574 292.154 100.798 291.878 100.798Z" fill="#222222"/>
<path fill-rule="evenodd" clip-rule="evenodd" d="M297.529 92.8607C297.253 92.8607 297.029 92.6367 297.029 92.3607V90.1667C297.029 89.8907 297.253 89.6667 297.529 89.6667C297.805 89.6667 298.029 89.8907 298.029 90.1667V92.3607C298.029 92.6367 297.805 92.8607 297.529 92.8607Z" fill="#222222"/>
<path fill-rule="evenodd" clip-rule="evenodd" d="M292.144 92.8607C291.868 92.8607 291.644 92.6367 291.644 92.3607V90.1667C291.644 89.8907 291.868 89.6667 292.144 89.6667C292.42 89.6667 292.644 89.8907 292.644 90.1667V92.3607C292.644 92.6367 292.42 92.8607 292.144 92.8607Z" fill="#222222"/>
<mask id="mask0_917_2475" style="mask-type:alpha" maskUnits="userSpaceOnUse" x="288" y="90" width="14" height="14">
<path fill-rule="evenodd" clip-rule="evenodd" d="M288.333 90.7195H301.333V104H288.333V90.7195Z" fill="white"/>
</mask>
<g mask="url(#mask0_917_2475)">
<path fill-rule="evenodd" clip-rule="evenodd" d="M292.014 91.7195C290.285 91.7195 289.333 92.6415 289.333 94.3155V100.348C289.333 102.059 290.285 103 292.014 103H297.653C299.381 103 300.333 102.076 300.333 100.399V94.3155C300.336 93.4921 300.115 92.8521 299.675 92.4121C299.223 91.9588 298.527 91.7195 297.659 91.7195H292.014ZM297.653 104H292.014C289.744 104 288.333 102.601 288.333 100.348V94.3155C288.333 92.0968 289.744 90.7195 292.014 90.7195H297.659C298.798 90.7195 299.74 91.0608 300.383 91.7055C301.008 92.3328 301.337 93.2348 301.333 94.3168V100.399C301.333 102.62 299.923 104 297.653 104Z" fill="#222222"/>
</g>
</g>
<rect x="24.5" y="70.5" width="294" height="53" rx="7.5" stroke="black" stroke-opacity="0.2"/>
<rect x="24" y="140" width="295" height="54" rx="8" fill="white"/>
<path opacity="0.4" d="M45 156.76C45.63 156.47 45.93 156.01 45.93 155.3C45.93 154.15 45.16 153.5 43.8 153.5H40.82V160.5H43.84C45.31 160.5 46.16 159.75 46.16 158.52C46.16 157.67 45.79 157 45 156.76ZM44.79 155.48C44.79 156.05 44.49 156.38 43.67 156.38H41.95V154.58H43.66C44.47 154.58 44.79 154.87 44.79 155.48ZM43.81 159.42H41.95V157.42H43.8C44.72 157.42 45.02 157.79 45.02 158.43C45.02 159.03 44.73 159.42 43.81 159.42ZM49.9423 156.72H48.3623V155H47.2323V160.5H49.9023C51.0323 160.5 51.9123 159.89 51.9123 158.57C51.9123 157.25 51.0723 156.72 49.9423 156.72ZM52.7223 155V160.5H53.8523V155H52.7223ZM49.8623 159.42H48.3623V157.72H49.8823C50.5723 157.72 50.7723 158.06 50.7723 158.57C50.7723 159.06 50.5523 159.42 49.8623 159.42ZM57.822 154.88C56.162 154.88 54.982 156.1 54.982 157.76C54.982 159.42 56.172 160.62 57.842 160.62C59.012 160.62 60.062 160.04 60.492 158.81H59.322C59.062 159.35 58.512 159.63 57.852 159.63C56.932 159.63 56.222 159.07 56.132 158.06H60.602C60.712 156.25 59.592 154.88 57.822 154.88ZM57.822 155.86C58.652 155.86 59.222 156.39 59.392 157.14H56.192C56.382 156.4 56.962 155.86 57.822 155.86ZM65.5249 157.59C65.9549 157.38 66.2449 157.03 66.2449 156.47C66.2449 155.49 65.3549 154.88 63.9549 154.88C62.4249 154.88 61.7049 155.6 61.5049 156.56H62.6549C62.8049 155.93 63.3449 155.74 63.9349 155.74C64.7949 155.74 65.1049 156.1 65.1049 156.55C65.1049 156.95 64.8749 157.23 64.1049 157.23H63.2849V158.1H64.3049C65.0949 158.1 65.2749 158.48 65.2749 158.86C65.2749 159.39 64.8949 159.74 64.0149 159.74C63.1549 159.74 62.6649 159.45 62.5049 158.69H61.3649C61.5749 159.83 62.3249 160.62 64.0449 160.62C65.4849 160.62 66.4149 160 66.4149 158.94C66.4149 158.32 66.1149 157.81 65.5249 157.59ZM72.8495 159.44V155H68.9195L68.4295 158.05C68.2995 158.83 68.1395 159.25 67.8895 159.44H66.9295V161.93H68.0595V160.5H72.7195V161.93H73.8495V159.44H72.8495ZM69.1195 159.44C69.3095 159.16 69.4495 158.74 69.5495 158.1L69.8795 156.06H71.7195V159.44H69.1195Z" fill="#222222"/>
<path d="M43.164 177.988L43.192 177.974L44.732 176.644C46.734 174.894 47.77 174.012 47.77 172.528C47.77 170.876 46.468 169.532 44.382 169.532C42.352 169.532 40.882 170.806 40.658 172.85H42.254C42.464 171.73 43.122 171.044 44.312 171.044C45.516 171.044 46.174 171.744 46.174 172.598C46.174 173.466 45.614 173.956 43.416 175.874L40.574 178.366V179.5H48.008V177.988H43.164ZM56.3112 171.8C54.7292 171.8 53.5112 172.598 53.5112 174.376C53.5112 175.664 54.3092 176.336 55.3732 176.602L53.1192 179.5H55.0652L57.0672 176.714H58.5932V179.5H60.1752V171.8H56.3112ZM56.4372 175.412C55.4992 175.412 55.1072 174.978 55.1072 174.348C55.1072 173.704 55.4152 173.228 56.3952 173.228H58.5932V175.412H56.4372ZM67.6897 171.8V174.824H63.6017V171.8H62.0197V179.5H63.6017V176.322H67.6897V179.5H69.2717V171.8H67.6897ZM76.3615 175.37C76.9915 174.992 77.4115 174.53 77.4115 173.746C77.4115 172.332 76.3615 171.8 74.6955 171.8H71.1115V179.5H75.0315C76.7395 179.5 77.7895 178.744 77.7895 177.288C77.7895 176.35 77.3135 175.65 76.3615 175.37ZM75.8155 174.04C75.8155 174.586 75.4935 174.978 74.5415 174.978H72.6935V173.046H74.5695C75.5355 173.046 75.8155 173.424 75.8155 174.04ZM74.9335 178.254H72.6935V176.126H74.9195C75.8575 176.126 76.1935 176.532 76.1935 177.162C76.1935 177.806 75.9135 178.254 74.9335 178.254ZM85.3066 171.8V173.116C84.7466 172.234 83.8226 171.632 82.6046 171.632C80.5886 171.632 79.0626 173.298 79.0626 175.65C79.0626 178.002 80.5606 179.668 82.6186 179.668C83.8226 179.668 84.7466 179.094 85.3066 178.212V179.5H86.8886V171.8H85.3066ZM82.9546 178.156C81.6246 178.156 80.6586 177.134 80.6586 175.65C80.6586 174.18 81.6106 173.144 82.9546 173.144C84.2986 173.144 85.3206 174.18 85.3206 175.65C85.3206 177.134 84.2986 178.156 82.9546 178.156ZM93.0885 171.632C91.8705 171.632 90.9465 172.234 90.3865 173.116V171.8H88.8045V183H90.3865V178.212C90.9465 179.08 91.8705 179.668 93.0745 179.668C95.1325 179.668 96.6305 178.002 96.6305 175.65C96.6305 173.298 95.1045 171.632 93.0885 171.632ZM92.7385 178.156C91.3945 178.156 90.3725 177.134 90.3725 175.65C90.3725 174.18 91.3945 173.144 92.7385 173.144C94.0825 173.144 95.0345 174.18 95.0345 175.65C95.0345 177.134 94.0685 178.156 92.7385 178.156ZM100.663 171.8C99.0808 171.8 97.8628 172.598 97.8628 174.376C97.8628 175.664 98.6608 176.336 99.7248 176.602L97.4708 179.5H99.4168L101.419 176.714H102.945V179.5H104.527V171.8H100.663ZM100.789 175.412C99.8508 175.412 99.4588 174.978 99.4588 174.348C99.4588 173.704 99.7668 173.228 100.747 173.228H102.945V175.412H100.789ZM112.809 177.988L112.837 177.974L114.377 176.644C116.379 174.894 117.415 174.012 117.415 172.528C117.415 170.876 116.113 169.532 114.027 169.532C111.997 169.532 110.527 170.806 110.303 172.85H111.899C112.109 171.73 112.767 171.044 113.957 171.044C115.161 171.044 115.819 171.744 115.819 172.598C115.819 173.466 115.259 173.956 113.061 175.874L110.219 178.366V179.5H117.653V177.988H112.809ZM122.896 169.532C120.348 169.532 118.822 171.422 118.822 174.6C118.822 177.778 120.348 179.668 122.896 179.668C125.472 179.668 126.984 177.75 126.984 174.6C126.984 171.45 125.472 169.532 122.896 169.532ZM122.896 178.156C121.342 178.156 120.418 177.064 120.418 174.6C120.418 172.136 121.342 171.044 122.896 171.044C124.464 171.044 125.388 172.136 125.388 174.6C125.388 177.064 124.464 178.156 122.896 178.156ZM130.705 177.988L130.733 177.974L132.273 176.644C134.275 174.894 135.311 174.012 135.311 172.528C135.311 170.876 134.009 169.532 131.923 169.532C129.893 169.532 128.423 170.806 128.199 172.85H129.795C130.005 171.73 130.663 171.044 131.853 171.044C133.057 171.044 133.715 171.744 133.715 172.598C133.715 173.466 133.155 173.956 130.957 175.874L128.115 178.366V179.5H135.549V177.988H130.705ZM142.553 174.348C143.365 173.998 143.827 173.228 143.827 172.332C143.827 170.694 142.385 169.532 140.425 169.532C138.591 169.532 137.107 170.47 136.827 172.5H138.423C138.689 171.408 139.389 171.03 140.383 171.03C141.559 171.03 142.231 171.646 142.231 172.528C142.231 173.382 141.587 173.774 140.397 173.774H139.347V175.174H140.677C142.049 175.174 142.539 175.748 142.539 176.574C142.539 177.54 141.839 178.17 140.537 178.17C139.403 178.17 138.535 177.722 138.297 176.574H136.701C136.925 178.66 138.577 179.668 140.551 179.668C142.679 179.668 144.135 178.562 144.135 176.714C144.135 175.566 143.547 174.712 142.553 174.348Z" fill="#222222"/>
<g opacity="0.4">
<path fill-rule="evenodd" clip-rule="evenodd" d="M300.778 165.603H288.895C288.619 165.603 288.395 165.379 288.395 165.103C288.395 164.827 288.619 164.603 288.895 164.603H300.778C301.054 164.603 301.278 164.827 301.278 165.103C301.278 165.379 301.054 165.603 300.778 165.603Z" fill="#222222"/>
<path fill-rule="evenodd" clip-rule="evenodd" d="M297.801 168.207C297.525 168.207 297.298 167.983 297.298 167.707C297.298 167.431 297.519 167.207 297.795 167.207H297.801C298.077 167.207 298.301 167.431 298.301 167.707C298.301 167.983 298.077 168.207 297.801 168.207Z" fill="#222222"/>
<path fill-rule="evenodd" clip-rule="evenodd" d="M294.843 168.207C294.567 168.207 294.34 167.983 294.34 167.707C294.34 167.431 294.561 167.207 294.837 167.207H294.843C295.119 167.207 295.343 167.431 295.343 167.707C295.343 167.983 295.119 168.207 294.843 168.207Z" fill="#222222"/>
<path fill-rule="evenodd" clip-rule="evenodd" d="M291.878 168.207C291.602 168.207 291.375 167.983 291.375 167.707C291.375 167.431 291.596 167.207 291.872 167.207H291.878C292.154 167.207 292.378 167.431 292.378 167.707C292.378 167.983 292.154 168.207 291.878 168.207Z" fill="#222222"/>
<path fill-rule="evenodd" clip-rule="evenodd" d="M297.801 170.798C297.525 170.798 297.298 170.574 297.298 170.298C297.298 170.022 297.519 169.798 297.795 169.798H297.801C298.077 169.798 298.301 170.022 298.301 170.298C298.301 170.574 298.077 170.798 297.801 170.798Z" fill="#222222"/>
<path fill-rule="evenodd" clip-rule="evenodd" d="M294.843 170.798C294.567 170.798 294.34 170.574 294.34 170.298C294.34 170.022 294.561 169.798 294.837 169.798H294.843C295.119 169.798 295.343 170.022 295.343 170.298C295.343 170.574 295.119 170.798 294.843 170.798Z" fill="#222222"/>
<path fill-rule="evenodd" clip-rule="evenodd" d="M291.878 170.798C291.602 170.798 291.375 170.574 291.375 170.298C291.375 170.022 291.596 169.798 291.872 169.798H291.878C292.154 169.798 292.378 170.022 292.378 170.298C292.378 170.574 292.154 170.798 291.878 170.798Z" fill="#222222"/>
<path fill-rule="evenodd" clip-rule="evenodd" d="M297.529 162.861C297.253 162.861 297.029 162.637 297.029 162.361V160.167C297.029 159.891 297.253 159.667 297.529 159.667C297.805 159.667 298.029 159.891 298.029 160.167V162.361C298.029 162.637 297.805 162.861 297.529 162.861Z" fill="#222222"/>
<path fill-rule="evenodd" clip-rule="evenodd" d="M292.144 162.861C291.868 162.861 291.644 162.637 291.644 162.361V160.167C291.644 159.891 291.868 159.667 292.144 159.667C292.42 159.667 292.644 159.891 292.644 160.167V162.361C292.644 162.637 292.42 162.861 292.144 162.861Z" fill="#222222"/>
<mask id="mask1_917_2475" style="mask-type:alpha" maskUnits="userSpaceOnUse" x="288" y="160" width="14" height="14">
<path fill-rule="evenodd" clip-rule="evenodd" d="M288.333 160.719H301.333V174H288.333V160.719Z" fill="white"/>
</mask>
<g mask="url(#mask1_917_2475)">
<path fill-rule="evenodd" clip-rule="evenodd" d="M292.014 161.719C290.285 161.719 289.333 162.641 289.333 164.315V170.348C289.333 172.059 290.285 173 292.014 173H297.653C299.381 173 300.333 172.076 300.333 170.399V164.315C300.336 163.492 300.115 162.852 299.675 162.412C299.223 161.959 298.527 161.719 297.659 161.719H292.014ZM297.653 174H292.014C289.744 174 288.333 172.601 288.333 170.348V164.315C288.333 162.097 289.744 160.719 292.014 160.719H297.659C298.798 160.719 299.74 161.061 300.383 161.705C301.008 162.333 301.337 163.235 301.333 164.317V170.399C301.333 172.62 299.923 174 297.653 174Z" fill="#222222"/>
</g>
</g>
<rect x="24.5" y="140.5" width="294" height="53" rx="7.5" stroke="black" stroke-opacity="0.2"/>
<rect x="24" y="210" width="295" height="54" rx="8" fill="white"/>
<path opacity="0.4" d="M45.14 223.5H40.82V230.5H41.95V224.58H45.14V223.5ZM48.0663 224.88C46.4963 224.88 45.2163 226.09 45.2163 227.75C45.2163 229.39 46.4763 230.62 48.0663 230.62C49.6663 230.62 50.9163 229.4 50.9163 227.75C50.9163 226.09 49.6463 224.88 48.0663 224.88ZM48.0663 225.96C49.0163 225.96 49.7763 226.69 49.7763 227.75C49.7763 228.81 49.0263 229.54 48.0663 229.54C47.1063 229.54 46.3563 228.81 46.3563 227.75C46.3563 226.69 47.1163 225.96 48.0663 225.96ZM54.7167 230.62C56.0067 230.62 57.1667 229.85 57.4267 228.49H56.2567C56.0467 229.17 55.4367 229.57 54.7167 229.57C53.7267 229.57 53.0067 228.82 53.0067 227.75C53.0067 226.69 53.7067 225.93 54.7267 225.93C55.4367 225.93 56.0467 226.31 56.2567 227H57.4267C57.1767 225.67 56.0267 224.88 54.7267 224.88C53.0867 224.88 51.8667 226.11 51.8667 227.75C51.8667 229.39 53.0867 230.62 54.7167 230.62ZM62.6455 225H60.8555H57.9255V226.06H59.7255V230.5H60.8555V226.06H62.6455V225ZM67.3209 225L64.6009 229.03L64.6709 227.3V225H63.5409V230.5H64.8709L67.5909 226.46L67.5209 228.2V230.5H68.6509V225H67.3209Z" fill="#222222"/>
<path d="M43.528 239.7L40.434 240.904V242.458L42.66 241.548V249.5H44.242V239.7H43.528Z" fill="#222222"/>
<path d="M55.758 245.37C56.388 244.992 56.808 244.53 56.808 243.746C56.808 242.332 55.758 241.8 54.092 241.8H50.508V249.5H54.428C56.136 249.5 57.186 248.744 57.186 247.288C57.186 246.35 56.71 245.65 55.758 245.37ZM55.212 244.04C55.212 244.586 54.89 244.978 53.938 244.978H52.09V243.046H53.966C54.932 243.046 55.212 243.424 55.212 244.04ZM54.33 248.254H52.09V246.126H54.316C55.254 246.126 55.59 246.532 55.59 247.162C55.59 247.806 55.31 248.254 54.33 248.254ZM63.9224 245.426C64.5244 245.132 64.9304 244.642 64.9304 243.858C64.9304 242.486 63.6844 241.632 61.7244 241.632C59.5824 241.632 58.5744 242.64 58.2944 243.984H59.9044C60.1144 243.102 60.8704 242.836 61.6964 242.836C62.9004 242.836 63.3344 243.34 63.3344 243.97C63.3344 244.53 63.0124 244.922 61.9344 244.922H60.7864V246.14H62.2144C63.3204 246.14 63.5724 246.672 63.5724 247.204C63.5724 247.946 63.0404 248.436 61.8084 248.436C60.6044 248.436 59.9184 248.03 59.6944 246.966H58.0984C58.3924 248.562 59.4424 249.668 61.8504 249.668C63.8664 249.668 65.1684 248.8 65.1684 247.316C65.1684 246.448 64.7484 245.734 63.9224 245.426ZM70.9948 241.632C69.7768 241.632 68.8528 242.234 68.2928 243.116V241.8H66.7108V253H68.2928V248.212C68.8528 249.08 69.7768 249.668 70.9808 249.668C73.0388 249.668 74.5368 248.002 74.5368 245.65C74.5368 243.298 73.0108 241.632 70.9948 241.632ZM70.6448 248.156C69.3008 248.156 68.2788 247.134 68.2788 245.65C68.2788 244.18 69.3008 243.144 70.6448 243.144C71.9888 243.144 72.9408 244.18 72.9408 245.65C72.9408 247.134 71.9748 248.156 70.6448 248.156ZM79.8671 241.632C77.6691 241.632 75.8771 243.326 75.8771 245.65C75.8771 247.946 77.6411 249.668 79.8671 249.668C82.1071 249.668 83.8571 247.96 83.8571 245.65C83.8571 243.326 82.0791 241.632 79.8671 241.632ZM79.8671 243.144C81.1971 243.144 82.2611 244.166 82.2611 245.65C82.2611 247.134 81.2111 248.156 79.8671 248.156C78.5231 248.156 77.4731 247.134 77.4731 245.65C77.4731 244.166 78.5371 243.144 79.8671 243.144ZM89.1776 249.668C90.9836 249.668 92.6076 248.59 92.9716 246.686H91.3336C91.0396 247.638 90.1856 248.198 89.1776 248.198C87.7916 248.198 86.7836 247.148 86.7836 245.65C86.7836 244.166 87.7636 243.102 89.1916 243.102C90.1856 243.102 91.0396 243.634 91.3336 244.6H92.9716C92.6216 242.738 91.0116 241.632 89.1916 241.632C86.8956 241.632 85.1876 243.354 85.1876 245.65C85.1876 247.946 86.8956 249.668 89.1776 249.668ZM96.0116 241.8L95.2836 246.364C95.0456 247.792 94.7236 248.198 93.9816 248.198C93.8276 248.198 93.6736 248.17 93.5196 248.156V249.584C93.7716 249.626 94.0516 249.668 94.3036 249.668C95.6196 249.668 96.4736 248.8 96.8516 246.504L97.3556 243.284H99.9036V249.5H101.486V241.8H96.0116ZM107.116 244.208H104.904V241.8H103.322V249.5H107.06C108.642 249.5 109.874 248.646 109.874 246.798C109.874 244.95 108.698 244.208 107.116 244.208ZM111.008 241.8V249.5H112.59V241.8H111.008ZM107.004 247.988H104.904V245.608H107.032C107.998 245.608 108.278 246.084 108.278 246.798C108.278 247.484 107.97 247.988 107.004 247.988ZM118.008 240.638C119.226 240.638 120.29 239.826 120.29 238.468V238.146H119.03V238.412C119.03 239.042 118.624 239.434 118.008 239.434C117.378 239.434 116.972 239.042 116.972 238.412V238.146H115.712V238.468C115.712 239.826 116.776 240.638 118.008 240.638ZM119.716 241.8L115.908 247.442L116.006 245.02V241.8H114.424V249.5H116.286L120.094 243.844L119.996 246.28V249.5H121.578V241.8H119.716ZM126.024 248.744C126.024 247.904 125.422 247.694 124.988 247.694C124.414 247.694 123.966 248.1 123.966 248.702C123.966 249.164 124.232 249.486 124.624 249.612L123.63 251.908H124.68C125.996 249.416 126.038 249.024 126.024 248.744ZM136.479 241.982C135.317 241.982 134.211 242.528 133.651 243.592C133.875 240.596 135.499 240.05 138.999 240.05V238.552C134.729 238.552 132.041 239.49 132.041 244.964C132.055 248.198 133.903 249.668 136.059 249.668C138.257 249.668 139.965 248.086 139.965 245.692C139.965 243.452 138.439 241.982 136.479 241.982ZM135.989 248.296C134.659 248.296 133.637 247.316 133.637 245.776C133.637 244.292 134.771 243.34 136.073 243.34C137.389 243.34 138.383 244.306 138.383 245.776C138.383 247.316 137.319 248.296 135.989 248.296ZM145.273 241.632C142.949 241.632 141.297 243.34 141.297 245.664C141.297 247.988 142.963 249.668 145.301 249.668C146.939 249.668 148.409 248.856 149.011 247.134H147.373C147.009 247.89 146.239 248.282 145.315 248.282C144.027 248.282 143.033 247.498 142.907 246.084H149.165C149.319 243.55 147.751 241.632 145.273 241.632ZM145.273 243.004C146.435 243.004 147.233 243.746 147.471 244.796H142.991C143.257 243.76 144.069 243.004 145.273 243.004ZM156.057 245.426C156.659 245.132 157.065 244.642 157.065 243.858C157.065 242.486 155.819 241.632 153.859 241.632C151.717 241.632 150.709 242.64 150.429 243.984H152.039C152.249 243.102 153.005 242.836 153.831 242.836C155.035 242.836 155.469 243.34 155.469 243.97C155.469 244.53 155.147 244.922 154.069 244.922H152.921V246.14H154.349C155.455 246.14 155.707 246.672 155.707 247.204C155.707 247.946 155.175 248.436 153.943 248.436C152.739 248.436 152.053 248.03 151.829 246.966H150.233C150.527 248.562 151.577 249.668 153.985 249.668C156.001 249.668 157.303 248.8 157.303 247.316C157.303 246.448 156.883 245.734 156.057 245.426ZM170.673 248.016V241.8H165.171L164.485 246.07C164.303 247.162 164.079 247.75 163.729 248.016H162.385V251.502H163.967V249.5H170.491V251.502H172.073V248.016H170.673ZM165.451 248.016C165.717 247.624 165.913 247.036 166.053 246.14L166.515 243.284H169.091V248.016H165.451ZM176.814 241.632C174.49 241.632 172.838 243.34 172.838 245.664C172.838 247.988 174.504 249.668 176.842 249.668C178.48 249.668 179.95 248.856 180.552 247.134H178.914C178.55 247.89 177.78 248.282 176.856 248.282C175.568 248.282 174.574 247.498 174.448 246.084H180.706C180.86 243.55 179.292 241.632 176.814 241.632ZM176.814 243.004C177.976 243.004 178.774 243.746 179.012 244.796H174.532C174.798 243.76 175.61 243.004 176.814 243.004ZM188.106 241.8H185.6H181.498V243.284H184.018V249.5H185.6V243.284H188.106V241.8ZM192.919 241.632C190.595 241.632 188.943 243.34 188.943 245.664C188.943 247.988 190.609 249.668 192.947 249.668C194.585 249.668 196.055 248.856 196.657 247.134H195.019C194.655 247.89 193.885 248.282 192.961 248.282C191.673 248.282 190.679 247.498 190.553 246.084H196.811C196.965 243.55 195.397 241.632 192.919 241.632ZM192.919 243.004C194.081 243.004 194.879 243.746 195.117 244.796H190.637C190.903 243.76 191.715 243.004 192.919 243.004ZM201.94 240.638C203.158 240.638 204.222 239.826 204.222 238.468V238.146H202.962V238.412C202.962 239.042 202.556 239.434 201.94 239.434C201.31 239.434 200.904 239.042 200.904 238.412V238.146H199.644V238.468C199.644 239.826 200.708 240.638 201.94 240.638ZM203.648 241.8L199.84 247.442L199.938 245.02V241.8H198.356V249.5H200.218L204.026 243.844L203.928 246.28V249.5H205.51V241.8H203.648Z" fill="#7A7A7A"/>
<g opacity="0.4">
<path fill-rule="evenodd" clip-rule="evenodd" d="M298.529 233.861C298.529 235.819 296.959 237.389 295 237.389C293.041 237.389 291.471 235.819 291.471 233.861C291.471 231.903 293.041 230.333 295 230.333C296.959 230.333 298.529 231.903 298.529 233.861ZM295 243.667C292.108 243.667 289.667 243.197 289.667 241.383C289.667 239.569 292.124 239.116 295 239.116C297.892 239.116 300.333 239.586 300.333 241.399C300.333 243.213 297.876 243.667 295 243.667Z" fill="#222222"/>
</g>
<rect x="24.5" y="210.5" width="294" height="53" rx="7.5" stroke="black" stroke-opacity="0.2"/>
<rect x="24" y="288" width="295" height="40" rx="20" fill="#FC6733"/>
<path d="M123.922 302.7H117.566H115.564V312.5H117.566V304.604H121.92V312.5H123.922V302.7ZM129.606 304.632C127.394 304.632 125.602 306.326 125.602 308.65C125.602 310.96 127.366 312.668 129.606 312.668C131.86 312.668 133.624 310.974 133.624 308.65C133.624 306.326 131.832 304.632 129.606 304.632ZM129.606 306.536C130.726 306.536 131.594 307.39 131.594 308.65C131.594 309.924 130.726 310.764 129.606 310.764C128.486 310.764 127.618 309.924 127.618 308.65C127.618 307.39 128.486 306.536 129.606 306.536ZM142.741 312.5L138.989 308.468L142.503 304.8H139.955L137.029 308.006V304.8H135.027V312.5H137.029V309.14L140.179 312.5H142.741ZM148.683 304.8V305.878C148.151 305.136 147.339 304.632 146.247 304.632C144.273 304.632 142.747 306.27 142.747 308.65C142.747 311.016 144.245 312.668 146.261 312.668C147.339 312.668 148.137 312.192 148.669 311.464V312.5H150.671L150.685 304.8H148.683ZM146.709 310.764C145.603 310.764 144.763 309.924 144.763 308.65C144.763 307.39 145.589 306.536 146.709 306.536C147.829 306.536 148.683 307.39 148.683 308.65C148.683 309.924 147.829 310.764 146.709 310.764ZM157.936 308.426C158.496 308.146 158.888 307.67 158.888 306.886C158.888 305.416 157.516 304.632 155.584 304.632C153.246 304.632 152.322 305.752 152.07 307.11H154.1C154.254 306.312 154.87 306.116 155.556 306.116C156.536 306.116 156.872 306.494 156.872 307.026C156.872 307.516 156.62 307.782 155.78 307.782H154.702V309.322H155.99C156.886 309.322 157.11 309.686 157.11 310.148C157.11 310.778 156.676 311.142 155.654 311.142C154.646 311.142 154.1 310.82 153.946 309.91H151.916C152.196 311.492 153.19 312.668 155.696 312.668C157.712 312.668 159.14 311.87 159.14 310.288C159.14 309.392 158.692 308.734 157.936 308.426ZM166.197 304.8V305.878C165.665 305.136 164.853 304.632 163.761 304.632C161.787 304.632 160.261 306.27 160.261 308.65C160.261 311.016 161.759 312.668 163.775 312.668C164.853 312.668 165.651 312.192 166.183 311.464V312.5H168.185L168.199 304.8H166.197ZM164.223 310.764C163.117 310.764 162.277 309.924 162.277 308.65C162.277 307.39 163.103 306.536 164.223 306.536C165.343 306.536 166.197 307.39 166.197 308.65C166.197 309.924 165.343 310.764 164.223 310.764ZM176.052 304.8H173.672H169.304V306.69H171.67V312.5H173.672V306.69H176.052V304.8ZM181.126 307.054H179.166L179.152 304.8H177.15L177.164 312.5H181.07C182.498 312.5 183.926 311.73 183.926 309.714C183.926 307.698 182.554 307.054 181.126 307.054ZM181 310.596H179.166V308.818H181C181.672 308.818 181.91 309.154 181.91 309.714C181.91 310.232 181.672 310.596 181 310.596ZM196.648 310.61V304.8H194.646V310.61H191.538V304.8H189.536V312.5H191.538H196.046V314.446H198.048V310.61H196.648ZM202.888 304.632C200.536 304.632 198.87 306.354 198.87 308.664C198.87 310.96 200.522 312.668 202.93 312.668C204.582 312.668 206.122 311.87 206.696 310.05H204.624C204.358 310.666 203.686 311.016 202.916 311.016C201.88 311.016 201.04 310.4 200.914 309.168H206.822C207.018 306.634 205.436 304.632 202.888 304.632ZM202.874 306.284C203.84 306.284 204.47 306.858 204.694 307.698H201.012C201.264 306.872 201.894 306.284 202.874 306.284ZM213.645 304.8V307.642H210.187V304.8H208.185V312.5H210.187V309.532H213.645V312.5H215.647V304.8H213.645ZM221.211 307.054H219.251V304.8H217.249V312.5H221.141C222.569 312.5 224.011 311.73 224.011 309.714C224.011 307.698 222.639 307.054 221.211 307.054ZM225.047 304.8V312.5H227.049V304.8H225.047ZM221.071 310.596H219.251V308.818H221.085C221.757 308.818 221.981 309.154 221.981 309.714C221.981 310.232 221.743 310.596 221.071 310.596Z" fill="white"/>
</svg>
