<svg width="480" height="508" viewBox="0 0 480 508" fill="none" xmlns="http://www.w3.org/2000/svg">
<path d="M0 11.8033C0 5.2845 5.28451 0 11.8033 0H468.197C474.715 0 480 5.28451 480 11.8033V496.197C480 502.716 474.715 508 468.197 508H11.8033C5.28452 508 0 502.715 0 496.197V11.8033Z" fill="white"/>
<rect x="31.4727" y="154.578" width="417.049" height="54.1003" rx="7.86885" fill="white"/>
<rect x="47.2103" y="147.693" width="40.8689" height="14" rx="7" fill="white"/>
<path opacity="0.4" d="M55.7972 154.073C56.3776 153.827 56.7218 153.286 56.7218 152.657C56.7218 151.506 55.7087 150.689 54.253 150.689C52.8759 150.689 51.8333 151.339 51.6366 152.775H52.7579C52.9448 152.007 53.4366 151.752 54.2235 151.752C55.1185 151.752 55.5907 152.175 55.5907 152.794C55.5907 153.394 55.1382 153.67 54.2628 153.67H53.4267V154.653H54.4694C55.4825 154.653 55.8169 155.057 55.8169 155.637C55.8169 156.316 55.3349 156.748 54.3415 156.748C53.4464 156.748 52.8366 156.443 52.6694 155.637H51.5481C51.7054 157.102 52.8759 157.811 54.3612 157.811C55.9251 157.811 56.9481 157.014 56.9481 155.735C56.9481 154.929 56.5153 154.329 55.7972 154.073ZM62.1994 152.283V153.207C61.8059 152.588 61.1567 152.165 60.301 152.165C58.8846 152.165 57.8125 153.335 57.8125 154.988C57.8125 156.64 58.8649 157.811 60.3108 157.811C61.1567 157.811 61.8059 157.407 62.1994 156.788V157.693H63.3108V152.283H62.1994ZM60.5469 156.748C59.6125 156.748 58.9338 156.03 58.9338 154.988C58.9338 153.955 59.6026 153.227 60.5469 153.227C61.4912 153.227 62.2092 153.955 62.2092 154.988C62.2092 156.03 61.4912 156.748 60.5469 156.748ZM67.2241 152.165C65.5913 152.165 64.4307 153.365 64.4307 154.998C64.4307 156.63 65.6012 157.811 67.2438 157.811C68.3946 157.811 69.4274 157.24 69.8504 156.03H68.6995C68.4438 156.561 67.9028 156.837 67.2536 156.837C66.3487 156.837 65.6504 156.286 65.5618 155.293H69.9586C70.0668 153.512 68.9651 152.165 67.2241 152.165ZM67.2241 153.129C68.0405 153.129 68.6012 153.65 68.7684 154.388H65.6209C65.8077 153.66 66.3782 153.129 67.2241 153.129ZM74.8008 154.83C75.2238 154.624 75.509 154.28 75.509 153.729C75.509 152.765 74.6336 152.165 73.2566 152.165C71.7516 152.165 71.0434 152.873 70.8467 153.817H71.9779C72.1254 153.198 72.6566 153.011 73.2369 153.011C74.0828 153.011 74.3877 153.365 74.3877 153.807C74.3877 154.201 74.1615 154.476 73.4041 154.476H72.5975V155.332H73.6008C74.3779 155.332 74.5549 155.706 74.5549 156.08C74.5549 156.601 74.1811 156.945 73.3156 156.945C72.4697 156.945 71.9877 156.66 71.8303 155.912H70.709C70.9156 157.034 71.6533 157.811 73.3451 157.811C74.7615 157.811 75.6762 157.201 75.6762 156.158C75.6762 155.548 75.3811 155.047 74.8008 154.83ZM82.0053 156.65V152.283H78.1397L77.6577 155.283C77.5299 156.05 77.3725 156.463 77.1266 156.65H76.1823V159.099H77.2938V157.693H81.8774V159.099H82.9889V156.65H82.0053ZM78.3364 156.65C78.5233 156.375 78.661 155.961 78.7594 155.332L79.084 153.325H80.8938V156.65H78.3364Z" fill="#222222"/>
<path d="M57.4654 181.315C58.2641 180.97 58.7185 180.213 58.7185 179.332C58.7185 177.72 57.3002 176.577 55.3723 176.577C53.5684 176.577 52.1087 177.5 51.8333 179.497H53.4031C53.6648 178.423 54.3533 178.051 55.331 178.051C56.4877 178.051 57.1487 178.657 57.1487 179.524C57.1487 180.364 56.5153 180.75 55.3448 180.75H54.312V182.127H55.6202C56.9697 182.127 57.4517 182.692 57.4517 183.504C57.4517 184.454 56.7631 185.074 55.4825 185.074C54.3671 185.074 53.5133 184.633 53.2792 183.504H51.7094C51.9297 185.556 53.5546 186.547 55.4963 186.547C57.5894 186.547 59.0215 185.459 59.0215 183.642C59.0215 182.513 58.4431 181.673 57.4654 181.315ZM63.0601 176.743L60.0168 177.927V179.456L62.2064 178.56V186.382H63.7624V176.743H63.0601ZM77.4995 184.922V178.808H72.0877L71.4129 183.008C71.2339 184.082 71.0136 184.661 70.6693 184.922H69.3473V188.351H70.9034V186.382H77.3204V188.351H78.8765V184.922H77.4995ZM72.3631 184.922C72.6247 184.537 72.8175 183.958 72.9552 183.077L73.4096 180.268H75.9434V184.922H72.3631ZM83.54 178.643C81.2541 178.643 79.6291 180.323 79.6291 182.609C79.6291 184.895 81.2678 186.547 83.5675 186.547C85.1787 186.547 86.6246 185.749 87.2167 184.055H85.6055C85.2475 184.798 84.4901 185.184 83.5813 185.184C82.3144 185.184 81.3367 184.413 81.2128 183.022H87.3682C87.5196 180.53 85.9773 178.643 83.54 178.643ZM83.54 179.993C84.6829 179.993 85.4678 180.722 85.7019 181.755H81.2954C81.557 180.736 82.3557 179.993 83.54 179.993ZM96.0201 186.382L92.0129 182.402L95.7172 178.808H93.7204L90.4431 182.086V178.808H88.887V186.382H90.4431V182.884L94.0096 186.382H96.0201ZM102.352 178.808V180.103C101.801 179.235 100.892 178.643 99.6942 178.643C97.7112 178.643 96.2102 180.282 96.2102 182.595C96.2102 184.909 97.6837 186.547 99.7079 186.547C100.892 186.547 101.801 185.983 102.352 185.115V186.382H103.908V178.808H102.352ZM100.038 185.06C98.7302 185.06 97.7801 184.055 97.7801 182.595C97.7801 181.149 98.7164 180.13 100.038 180.13C101.36 180.13 102.366 181.149 102.366 182.595C102.366 184.055 101.36 185.06 100.038 185.06ZM109.841 178.987C108.698 178.987 107.61 179.524 107.059 180.571C107.28 177.624 108.877 177.087 112.32 177.087V175.614C108.12 175.614 105.476 176.536 105.476 181.92C105.489 185.101 107.307 186.547 109.428 186.547C111.59 186.547 113.27 184.991 113.27 182.637C113.27 180.433 111.769 178.987 109.841 178.987ZM109.359 185.198C108.051 185.198 107.046 184.234 107.046 182.719C107.046 181.259 108.161 180.323 109.442 180.323C110.736 180.323 111.714 181.273 111.714 182.719C111.714 184.234 110.667 185.198 109.359 185.198ZM119.11 178.643C117.912 178.643 117.003 179.235 116.453 180.103V178.808H114.897V189.825H116.453V185.115C117.003 185.969 117.912 186.547 119.097 186.547C121.121 186.547 122.594 184.909 122.594 182.595C122.594 180.282 121.093 178.643 119.11 178.643ZM118.766 185.06C117.444 185.06 116.439 184.055 116.439 182.595C116.439 181.149 117.444 180.13 118.766 180.13C120.088 180.13 121.024 181.149 121.024 182.595C121.024 184.055 120.074 185.06 118.766 185.06ZM126.56 178.808C125.004 178.808 123.806 179.593 123.806 181.342C123.806 182.609 124.591 183.27 125.638 183.532L123.421 186.382H125.335L127.304 183.642H128.805V186.382H130.361V178.808H126.56ZM126.684 182.361C125.762 182.361 125.376 181.934 125.376 181.315C125.376 180.681 125.679 180.213 126.643 180.213H128.805V182.361H126.684ZM138.507 184.895L138.535 184.881L140.049 183.573C142.019 181.852 143.038 180.984 143.038 179.524C143.038 177.899 141.757 176.577 139.705 176.577C137.708 176.577 136.262 177.831 136.042 179.841H137.612C137.819 178.739 138.466 178.065 139.636 178.065C140.82 178.065 141.468 178.753 141.468 179.593C141.468 180.447 140.917 180.929 138.755 182.816L135.959 185.267V186.382H143.272V184.895H138.507ZM148.429 176.577C145.923 176.577 144.422 178.437 144.422 181.562C144.422 184.688 145.923 186.547 148.429 186.547C150.963 186.547 152.45 184.661 152.45 181.562C152.45 178.464 150.963 176.577 148.429 176.577ZM148.429 185.06C146.9 185.06 145.992 183.986 145.992 181.562C145.992 179.139 146.9 178.065 148.429 178.065C149.971 178.065 150.88 179.139 150.88 181.562C150.88 183.986 149.971 185.06 148.429 185.06ZM156.11 184.895L156.138 184.881L157.652 183.573C159.622 181.852 160.641 180.984 160.641 179.524C160.641 177.899 159.36 176.577 157.308 176.577C155.311 176.577 153.866 177.831 153.645 179.841H155.215C155.422 178.739 156.069 178.065 157.239 178.065C158.424 178.065 159.071 178.753 159.071 179.593C159.071 180.447 158.52 180.929 156.358 182.816L153.563 185.267V186.382H160.875V184.895H156.11ZM164.555 184.895L164.583 184.881L166.098 183.573C168.067 181.852 169.086 180.984 169.086 179.524C169.086 177.899 167.805 176.577 165.753 176.577C163.757 176.577 162.311 177.831 162.09 179.841H163.66C163.867 178.739 164.514 178.065 165.685 178.065C166.869 178.065 167.516 178.753 167.516 179.593C167.516 180.447 166.965 180.929 164.803 182.816L162.008 185.267V186.382H169.32V184.895H164.555Z" fill="#222222"/>
<g opacity="0.4">
<path fill-rule="evenodd" clip-rule="evenodd" d="M430.598 180.254H418.91C418.639 180.254 418.418 180.033 418.418 179.762C418.418 179.49 418.639 179.27 418.91 179.27H430.598C430.87 179.27 431.09 179.49 431.09 179.762C431.09 180.033 430.87 180.254 430.598 180.254Z" fill="#222222"/>
<path fill-rule="evenodd" clip-rule="evenodd" d="M427.67 182.815C427.399 182.815 427.176 182.594 427.176 182.323C427.176 182.051 427.393 181.831 427.664 181.831H427.67C427.942 181.831 428.162 182.051 428.162 182.323C428.162 182.594 427.942 182.815 427.67 182.815Z" fill="#222222"/>
<path fill-rule="evenodd" clip-rule="evenodd" d="M424.76 182.815C424.489 182.815 424.266 182.594 424.266 182.323C424.266 182.051 424.483 181.831 424.754 181.831H424.76C425.032 181.831 425.252 182.051 425.252 182.323C425.252 182.594 425.032 182.815 424.76 182.815Z" fill="#222222"/>
<path fill-rule="evenodd" clip-rule="evenodd" d="M421.844 182.815C421.573 182.815 421.349 182.594 421.349 182.323C421.349 182.051 421.567 181.831 421.838 181.831H421.844C422.116 181.831 422.336 182.051 422.336 182.323C422.336 182.594 422.116 182.815 421.844 182.815Z" fill="#222222"/>
<path fill-rule="evenodd" clip-rule="evenodd" d="M427.67 185.363C427.399 185.363 427.176 185.143 427.176 184.871C427.176 184.6 427.393 184.38 427.664 184.38H427.67C427.942 184.38 428.162 184.6 428.162 184.871C428.162 185.143 427.942 185.363 427.67 185.363Z" fill="#222222"/>
<path fill-rule="evenodd" clip-rule="evenodd" d="M424.76 185.363C424.489 185.363 424.266 185.143 424.266 184.871C424.266 184.6 424.483 184.38 424.754 184.38H424.76C425.032 184.38 425.252 184.6 425.252 184.871C425.252 185.143 425.032 185.363 424.76 185.363Z" fill="#222222"/>
<path fill-rule="evenodd" clip-rule="evenodd" d="M421.844 185.363C421.573 185.363 421.349 185.143 421.349 184.871C421.349 184.6 421.567 184.38 421.838 184.38H421.844C422.116 184.38 422.336 184.6 422.336 184.871C422.336 185.143 422.116 185.363 421.844 185.363Z" fill="#222222"/>
<path fill-rule="evenodd" clip-rule="evenodd" d="M427.403 177.556C427.131 177.556 426.911 177.336 426.911 177.065V174.907C426.911 174.635 427.131 174.415 427.403 174.415C427.674 174.415 427.895 174.635 427.895 174.907V177.065C427.895 177.336 427.674 177.556 427.403 177.556Z" fill="#222222"/>
<path fill-rule="evenodd" clip-rule="evenodd" d="M422.106 177.556C421.834 177.556 421.614 177.336 421.614 177.065V174.907C421.614 174.635 421.834 174.415 422.106 174.415C422.377 174.415 422.597 174.635 422.597 174.907V177.065C422.597 177.336 422.377 177.556 422.106 177.556Z" fill="#222222"/>
<mask id="mask0_917_1979" style="mask-type:alpha" maskUnits="userSpaceOnUse" x="418" y="175" width="14" height="14">
<path fill-rule="evenodd" clip-rule="evenodd" d="M418.358 175.45H431.145V188.513H418.358V175.45Z" fill="white"/>
</mask>
<g mask="url(#mask0_917_1979)">
<path fill-rule="evenodd" clip-rule="evenodd" d="M421.978 176.434C420.278 176.434 419.341 177.341 419.341 178.987V184.921C419.341 186.604 420.278 187.53 421.978 187.53H427.524C429.225 187.53 430.161 186.621 430.161 184.971V178.987C430.164 178.177 429.946 177.548 429.514 177.115C429.069 176.669 428.384 176.434 427.53 176.434H421.978ZM427.524 188.513H421.978C419.745 188.513 418.358 187.137 418.358 184.921V178.987C418.358 176.805 419.745 175.45 421.978 175.45H427.53C428.651 175.45 429.578 175.786 430.21 176.42C430.825 177.037 431.148 177.924 431.145 178.989V184.971C431.145 187.156 429.757 188.513 427.524 188.513Z" fill="#222222"/>
</g>
</g>
<rect x="31.9645" y="155.07" width="416.066" height="53.1167" rx="7.37705" stroke="#222222" stroke-opacity="0.2" stroke-width="0.983607"/>
<rect x="31.4727" y="232.285" width="417.049" height="54.1003" rx="7.86885" fill="white"/>
<rect x="47.2103" y="225.399" width="41.8689" height="14" rx="7" fill="white"/>
<path opacity="0.4" d="M56.0628 231.721C56.6825 231.435 56.9776 230.983 56.9776 230.285C56.9776 229.154 56.2202 228.514 54.8825 228.514H51.9513V235.399H54.9218C56.3677 235.399 57.2038 234.662 57.2038 233.452C57.2038 232.616 56.8399 231.957 56.0628 231.721ZM55.8563 230.462C55.8563 231.022 55.5612 231.347 54.7546 231.347H53.0628V229.576H54.7448C55.5415 229.576 55.8563 229.862 55.8563 230.462ZM54.8923 234.337H53.0628V232.37H54.8825C55.7874 232.37 56.0825 232.734 56.0825 233.363C56.0825 233.954 55.7972 234.337 54.8923 234.337ZM60.9241 231.681H59.37V229.99H58.2585V235.399H60.8847C61.9962 235.399 62.8618 234.799 62.8618 233.501C62.8618 232.203 62.0355 231.681 60.9241 231.681ZM63.6585 229.99V235.399H64.77V229.99H63.6585ZM60.8454 234.337H59.37V232.665H60.865C61.5437 232.665 61.7404 232.999 61.7404 233.501C61.7404 233.983 61.5241 234.337 60.8454 234.337ZM68.6746 229.872C67.0418 229.872 65.8811 231.072 65.8811 232.704C65.8811 234.337 67.0516 235.517 68.6942 235.517C69.8451 235.517 70.8778 234.947 71.3008 233.737H70.15C69.8942 234.268 69.3533 234.544 68.7041 234.544C67.7992 234.544 67.1008 233.993 67.0123 232.999H71.409C71.5172 231.219 70.4155 229.872 68.6746 229.872ZM68.6746 230.835C69.491 230.835 70.0516 231.357 70.2188 232.094H67.0713C67.2582 231.367 67.8287 230.835 68.6746 230.835ZM76.2513 232.537C76.6742 232.331 76.9595 231.986 76.9595 231.435C76.9595 230.472 76.084 229.872 74.707 229.872C73.2021 229.872 72.4939 230.58 72.2972 231.524H73.4283C73.5758 230.904 74.107 230.717 74.6873 230.717C75.5332 230.717 75.8381 231.072 75.8381 231.514C75.8381 231.908 75.6119 232.183 74.8545 232.183H74.048V233.039H75.0513C75.8283 233.039 76.0054 233.413 76.0054 233.786C76.0054 234.308 75.6316 234.652 74.766 234.652C73.9201 234.652 73.4381 234.367 73.2808 233.619H72.1595C72.366 234.74 73.1037 235.517 74.7955 235.517C76.2119 235.517 77.1267 234.908 77.1267 233.865C77.1267 233.255 76.8316 232.754 76.2513 232.537ZM83.4557 234.357V229.99H79.5901L79.1082 232.99C78.9803 233.757 78.8229 234.17 78.577 234.357H77.6328V236.806H78.7442V235.399H83.3278V236.806H84.4393V234.357H83.4557ZM79.7869 234.357C79.9737 234.081 80.1115 233.668 80.2098 233.039L80.5344 231.032H82.3442V234.357H79.7869Z" fill="#222222"/>
<path d="M54.2569 262.602L54.2844 262.588L55.7992 261.28C57.7684 259.558 58.7874 258.691 58.7874 257.231C58.7874 255.606 57.5067 254.284 55.4549 254.284C53.4582 254.284 52.0123 255.537 51.792 257.548H53.3618C53.5684 256.446 54.2156 255.771 55.3861 255.771C56.5703 255.771 57.2176 256.46 57.2176 257.3C57.2176 258.154 56.6667 258.636 54.5048 260.522L51.7094 262.973V264.089H59.0215V262.602H54.2569ZM67.1886 256.515C65.6325 256.515 64.4345 257.3 64.4345 259.049C64.4345 260.316 65.2194 260.977 66.266 261.238L64.0489 264.089H65.963L67.9322 261.349H69.4332V264.089H70.9892V256.515H67.1886ZM67.3125 260.068C66.3899 260.068 66.0043 259.641 66.0043 259.021C66.0043 258.388 66.3073 257.92 67.2712 257.92H69.4332V260.068H67.3125ZM78.3805 256.515V259.49H74.3596V256.515H72.8035V264.089H74.3596V260.963H78.3805V264.089H79.9366V256.515H78.3805ZM86.9102 260.027C87.5299 259.655 87.943 259.2 87.943 258.429C87.943 257.038 86.9102 256.515 85.2715 256.515H81.7463V264.089H85.602C87.282 264.089 88.3148 263.345 88.3148 261.913C88.3148 260.991 87.8466 260.302 86.9102 260.027ZM86.3731 258.718C86.3731 259.255 86.0564 259.641 85.12 259.641H83.3023V257.741H85.1476C86.0977 257.741 86.3731 258.112 86.3731 258.718ZM85.5056 262.863H83.3023V260.77H85.4918C86.4144 260.77 86.7449 261.17 86.7449 261.789C86.7449 262.423 86.4695 262.863 85.5056 262.863ZM95.7087 256.515V257.81C95.1579 256.942 94.249 256.35 93.051 256.35C91.068 256.35 89.567 257.989 89.567 260.302C89.567 262.615 91.0405 264.254 93.0647 264.254C94.249 264.254 95.1579 263.69 95.7087 262.822V264.089H97.2647V256.515H95.7087ZM93.3952 262.767C92.087 262.767 91.1369 261.762 91.1369 260.302C91.1369 258.856 92.0733 257.837 93.3952 257.837C94.7172 257.837 95.7224 258.856 95.7224 260.302C95.7224 261.762 94.7172 262.767 93.3952 262.767ZM103.363 256.35C102.165 256.35 101.256 256.942 100.705 257.81V256.515H99.1493V267.531H100.705V262.822C101.256 263.676 102.165 264.254 103.349 264.254C105.374 264.254 106.847 262.615 106.847 260.302C106.847 257.989 105.346 256.35 103.363 256.35ZM103.019 262.767C101.697 262.767 100.692 261.762 100.692 260.302C100.692 258.856 101.697 257.837 103.019 257.837C104.341 257.837 105.277 258.856 105.277 260.302C105.277 261.762 104.327 262.767 103.019 262.767ZM110.813 256.515C109.257 256.515 108.059 257.3 108.059 259.049C108.059 260.316 108.844 260.977 109.89 261.238L107.673 264.089H109.587L111.557 261.349H113.058V264.089H114.614V256.515H110.813ZM110.937 260.068C110.014 260.068 109.629 259.641 109.629 259.021C109.629 258.388 109.932 257.92 110.896 257.92H113.058V260.068H110.937ZM122.76 262.602L122.787 262.588L124.302 261.28C126.271 259.558 127.29 258.691 127.29 257.231C127.29 255.606 126.01 254.284 123.958 254.284C121.961 254.284 120.515 255.537 120.295 257.548H121.865C122.071 256.446 122.718 255.771 123.889 255.771C125.073 255.771 125.72 256.46 125.72 257.3C125.72 258.154 125.17 258.636 123.008 260.522L120.212 262.973V264.089H127.524V262.602H122.76ZM132.682 254.284C130.175 254.284 128.674 256.143 128.674 259.269C128.674 262.395 130.175 264.254 132.682 264.254C135.215 264.254 136.703 262.368 136.703 259.269C136.703 256.171 135.215 254.284 132.682 254.284ZM132.682 262.767C131.153 262.767 130.244 261.693 130.244 259.269C130.244 256.846 131.153 255.771 132.682 255.771C134.224 255.771 135.133 256.846 135.133 259.269C135.133 261.693 134.224 262.767 132.682 262.767ZM140.363 262.602L140.39 262.588L141.905 261.28C143.874 259.558 144.893 258.691 144.893 257.231C144.893 255.606 143.613 254.284 141.561 254.284C139.564 254.284 138.118 255.537 137.898 257.548H139.468C139.674 256.446 140.322 255.771 141.492 255.771C142.676 255.771 143.323 256.46 143.323 257.3C143.323 258.154 142.773 258.636 140.611 260.522L137.815 262.973V264.089H145.127V262.602H140.363ZM152.017 259.021C152.815 258.677 153.27 257.92 153.27 257.038C153.27 255.427 151.851 254.284 149.923 254.284C148.119 254.284 146.66 255.207 146.384 257.204H147.954C148.216 256.13 148.904 255.758 149.882 255.758C151.039 255.758 151.7 256.364 151.7 257.231C151.7 258.071 151.066 258.457 149.896 258.457H148.863V259.834H150.171C151.521 259.834 152.003 260.398 152.003 261.211C152.003 262.161 151.314 262.781 150.034 262.781C148.918 262.781 148.064 262.34 147.83 261.211H146.26C146.481 263.263 148.106 264.254 150.047 264.254C152.14 264.254 153.573 263.166 153.573 261.349C153.573 260.219 152.994 259.379 152.017 259.021Z" fill="#222222"/>
<g opacity="0.4">
<path fill-rule="evenodd" clip-rule="evenodd" d="M430.598 257.96H418.91C418.639 257.96 418.418 257.74 418.418 257.469C418.418 257.197 418.639 256.977 418.91 256.977H430.598C430.87 256.977 431.09 257.197 431.09 257.469C431.09 257.74 430.87 257.96 430.598 257.96Z" fill="#222222"/>
<path fill-rule="evenodd" clip-rule="evenodd" d="M427.67 260.521C427.399 260.521 427.176 260.301 427.176 260.03C427.176 259.758 427.393 259.538 427.664 259.538H427.67C427.942 259.538 428.162 259.758 428.162 260.03C428.162 260.301 427.942 260.521 427.67 260.521Z" fill="#222222"/>
<path fill-rule="evenodd" clip-rule="evenodd" d="M424.76 260.521C424.489 260.521 424.266 260.301 424.266 260.03C424.266 259.758 424.483 259.538 424.754 259.538H424.76C425.032 259.538 425.252 259.758 425.252 260.03C425.252 260.301 425.032 260.521 424.76 260.521Z" fill="#222222"/>
<path fill-rule="evenodd" clip-rule="evenodd" d="M421.844 260.521C421.573 260.521 421.349 260.301 421.349 260.03C421.349 259.758 421.567 259.538 421.838 259.538H421.844C422.116 259.538 422.336 259.758 422.336 260.03C422.336 260.301 422.116 260.521 421.844 260.521Z" fill="#222222"/>
<path fill-rule="evenodd" clip-rule="evenodd" d="M427.67 263.07C427.399 263.07 427.176 262.85 427.176 262.578C427.176 262.307 427.393 262.086 427.664 262.086H427.67C427.942 262.086 428.162 262.307 428.162 262.578C428.162 262.85 427.942 263.07 427.67 263.07Z" fill="#222222"/>
<path fill-rule="evenodd" clip-rule="evenodd" d="M424.76 263.07C424.489 263.07 424.266 262.85 424.266 262.578C424.266 262.307 424.483 262.086 424.754 262.086H424.76C425.032 262.086 425.252 262.307 425.252 262.578C425.252 262.85 425.032 263.07 424.76 263.07Z" fill="#222222"/>
<path fill-rule="evenodd" clip-rule="evenodd" d="M421.844 263.07C421.573 263.07 421.349 262.85 421.349 262.578C421.349 262.307 421.567 262.086 421.838 262.086H421.844C422.116 262.086 422.336 262.307 422.336 262.578C422.336 262.85 422.116 263.07 421.844 263.07Z" fill="#222222"/>
<path fill-rule="evenodd" clip-rule="evenodd" d="M427.403 255.263C427.131 255.263 426.911 255.043 426.911 254.771V252.613C426.911 252.342 427.131 252.122 427.403 252.122C427.674 252.122 427.895 252.342 427.895 252.613V254.771C427.895 255.043 427.674 255.263 427.403 255.263Z" fill="#222222"/>
<path fill-rule="evenodd" clip-rule="evenodd" d="M422.106 255.263C421.834 255.263 421.614 255.043 421.614 254.771V252.613C421.614 252.342 421.834 252.122 422.106 252.122C422.377 252.122 422.597 252.342 422.597 252.613V254.771C422.597 255.043 422.377 255.263 422.106 255.263Z" fill="#222222"/>
<mask id="mask1_917_1979" style="mask-type:alpha" maskUnits="userSpaceOnUse" x="418" y="253" width="14" height="14">
<path fill-rule="evenodd" clip-rule="evenodd" d="M418.358 253.157H431.145V266.22H418.358V253.157Z" fill="white"/>
</mask>
<g mask="url(#mask1_917_1979)">
<path fill-rule="evenodd" clip-rule="evenodd" d="M421.978 254.141C420.278 254.141 419.341 255.047 419.341 256.694V262.628C419.341 264.31 420.278 265.236 421.978 265.236H427.524C429.225 265.236 430.161 264.327 430.161 262.678V256.694C430.164 255.884 429.946 255.255 429.514 254.822C429.069 254.376 428.384 254.141 427.53 254.141H421.978ZM427.524 266.22H421.978C419.745 266.22 418.358 264.844 418.358 262.628V256.694C418.358 254.512 419.745 253.157 421.978 253.157H427.53C428.651 253.157 429.578 253.493 430.21 254.127C430.825 254.744 431.148 255.631 431.145 256.695V262.678C431.145 264.863 429.757 266.22 427.524 266.22Z" fill="#222222"/>
</g>
</g>
<rect x="31.9645" y="232.776" width="416.066" height="53.1167" rx="7.37705" stroke="#222222" stroke-opacity="0.2" stroke-width="0.983607"/>
<rect x="31.4727" y="309.992" width="417.049" height="54.1003" rx="7.86885" fill="white"/>
<rect x="47.2103" y="303.106" width="36.8689" height="14" rx="7" fill="white"/>
<path opacity="0.4" d="M56.2005 306.221H51.9513V313.106H53.0628V307.283H56.2005V306.221ZM59.0789 307.579C57.5346 307.579 56.2756 308.769 56.2756 310.402C56.2756 312.015 57.5149 313.224 59.0789 313.224C60.6526 313.224 61.8821 312.024 61.8821 310.402C61.8821 308.769 60.633 307.579 59.0789 307.579ZM59.0789 308.641C60.0133 308.641 60.7608 309.359 60.7608 310.402C60.7608 311.444 60.0231 312.162 59.0789 312.162C58.1346 312.162 57.3969 311.444 57.3969 310.402C57.3969 309.359 58.1444 308.641 59.0789 308.641ZM65.6202 313.224C66.8891 313.224 68.0301 312.467 68.2858 311.129H67.135C66.9284 311.798 66.3284 312.192 65.6202 312.192C64.6465 312.192 63.9383 311.454 63.9383 310.402C63.9383 309.359 64.6268 308.611 65.6301 308.611C66.3284 308.611 66.9284 308.985 67.135 309.664H68.2858C68.0399 308.356 66.9088 307.579 65.6301 307.579C64.017 307.579 62.817 308.788 62.817 310.402C62.817 312.015 64.017 313.224 65.6202 313.224ZM73.4191 307.697H71.6584H68.7765V308.739H70.547V313.106H71.6584V308.739H73.4191V307.697ZM78.0178 307.697L75.3423 311.661L75.4112 309.959V307.697H74.2997V313.106H75.6079L78.2833 309.133L78.2145 310.844V313.106H79.3259V307.697H78.0178Z" fill="#222222"/>
<path d="M54.2569 340.055L54.2844 340.041L55.7992 338.733C57.7684 337.011 58.7874 336.144 58.7874 334.684C58.7874 333.059 57.5067 331.737 55.4549 331.737C53.4582 331.737 52.0123 332.99 51.792 335.001H53.3618C53.5684 333.899 54.2156 333.224 55.3861 333.224C56.5703 333.224 57.2176 333.913 57.2176 334.753C57.2176 335.607 56.6667 336.089 54.5048 337.975L51.7094 340.426V341.542H59.0215V340.055H54.2569Z" fill="#222222"/>
<path d="M69.7912 337.479C70.4109 337.108 70.824 336.653 70.824 335.882C70.824 334.491 69.7912 333.968 68.1525 333.968H64.6273V341.542H68.483C70.163 341.542 71.1958 340.798 71.1958 339.366C71.1958 338.443 70.7276 337.755 69.7912 337.479ZM69.2542 336.171C69.2542 336.708 68.9374 337.094 68.001 337.094H66.1833V335.194H68.0286C68.9787 335.194 69.2542 335.565 69.2542 336.171ZM68.3866 340.316H66.1833V338.223H68.3728C69.2955 338.223 69.626 338.622 69.626 339.242C69.626 339.876 69.3505 340.316 68.3866 340.316ZM77.8218 337.535C78.4139 337.245 78.8132 336.763 78.8132 335.992C78.8132 334.643 77.5877 333.803 75.6598 333.803C73.5529 333.803 72.5614 334.794 72.286 336.116H73.8696C74.0762 335.249 74.8198 334.987 75.6323 334.987C76.8165 334.987 77.2434 335.483 77.2434 336.102C77.2434 336.653 76.9267 337.039 75.8664 337.039H74.7372V338.237H76.1418C77.2296 338.237 77.4775 338.76 77.4775 339.283C77.4775 340.013 76.9542 340.495 75.7424 340.495C74.5582 340.495 73.8834 340.096 73.6631 339.049H72.0932C72.3824 340.619 73.4152 341.707 75.7837 341.707C77.7667 341.707 79.0473 340.853 79.0473 339.394C79.0473 338.54 78.6342 337.837 77.8218 337.535ZM84.7782 333.803C83.5802 333.803 82.6713 334.395 82.1205 335.262V333.968H80.5645V344.984H82.1205V340.275C82.6713 341.129 83.5802 341.707 84.7645 341.707C86.7887 341.707 88.2622 340.068 88.2622 337.755C88.2622 335.441 86.7612 333.803 84.7782 333.803ZM84.434 340.22C83.112 340.22 82.1068 339.215 82.1068 337.755C82.1068 336.309 83.112 335.29 84.434 335.29C85.7559 335.29 86.6923 336.309 86.6923 337.755C86.6923 339.215 85.7422 340.22 84.434 340.22ZM93.5051 333.803C91.3431 333.803 89.5805 335.469 89.5805 337.755C89.5805 340.013 91.3156 341.707 93.5051 341.707C95.7083 341.707 97.4297 340.027 97.4297 337.755C97.4297 335.469 95.6808 333.803 93.5051 333.803ZM93.5051 335.29C94.8133 335.29 95.8598 336.295 95.8598 337.755C95.8598 339.215 94.827 340.22 93.5051 340.22C92.1831 340.22 91.1503 339.215 91.1503 337.755C91.1503 336.295 92.1969 335.29 93.5051 335.29ZM102.663 341.707C104.439 341.707 106.037 340.647 106.395 338.774H104.784C104.494 339.71 103.654 340.261 102.663 340.261C101.3 340.261 100.308 339.228 100.308 337.755C100.308 336.295 101.272 335.249 102.677 335.249C103.654 335.249 104.494 335.772 104.784 336.722H106.395C106.051 334.891 104.467 333.803 102.677 333.803C100.418 333.803 98.7384 335.497 98.7384 337.755C98.7384 340.013 100.418 341.707 102.663 341.707ZM109.385 333.968L108.669 338.457C108.435 339.862 108.118 340.261 107.388 340.261C107.237 340.261 107.085 340.234 106.934 340.22V341.624C107.182 341.666 107.457 341.707 107.705 341.707C108.999 341.707 109.839 340.853 110.211 338.595L110.707 335.428H113.213V341.542H114.769V333.968H109.385ZM120.308 336.337H118.132V333.968H116.576V341.542H120.253C121.809 341.542 123.021 340.702 123.021 338.884C123.021 337.066 121.864 336.337 120.308 336.337ZM124.136 333.968V341.542H125.692V333.968H124.136ZM120.198 340.055H118.132V337.714H120.225C121.175 337.714 121.451 338.182 121.451 338.884C121.451 339.559 121.148 340.055 120.198 340.055ZM134.243 341.542L131.544 337.672L134.105 333.968H132.233L130.608 336.502L128.928 333.968H127.069L129.63 337.645L126.917 341.542H128.79L130.553 338.829L132.384 341.542H134.243ZM138.059 340.798C138.059 339.972 137.466 339.765 137.04 339.765C136.475 339.765 136.034 340.165 136.034 340.757C136.034 341.211 136.296 341.528 136.681 341.652L135.704 343.91H136.737C138.031 341.459 138.072 341.074 138.059 340.798ZM148.342 334.147C147.199 334.147 146.111 334.684 145.56 335.731C145.781 332.784 147.378 332.247 150.821 332.247V330.773C146.621 330.773 143.977 331.696 143.977 337.08C143.99 340.261 145.808 341.707 147.929 341.707C150.091 341.707 151.771 340.151 151.771 337.796C151.771 335.593 150.27 334.147 148.342 334.147ZM147.86 340.357C146.552 340.357 145.546 339.394 145.546 337.879C145.546 336.419 146.662 335.483 147.943 335.483C149.237 335.483 150.215 336.433 150.215 337.879C150.215 339.394 149.168 340.357 147.86 340.357ZM156.992 333.803C154.706 333.803 153.081 335.483 153.081 337.769C153.081 340.055 154.719 341.707 157.019 341.707C158.63 341.707 160.076 340.908 160.668 339.215H159.057C158.699 339.958 157.942 340.344 157.033 340.344C155.766 340.344 154.788 339.573 154.664 338.182H160.82C160.971 335.689 159.429 333.803 156.992 333.803ZM156.992 335.152C158.135 335.152 158.919 335.882 159.154 336.915H154.747C155.009 335.896 155.807 335.152 156.992 335.152ZM167.599 337.535C168.191 337.245 168.59 336.763 168.59 335.992C168.59 334.643 167.365 333.803 165.437 333.803C163.33 333.803 162.339 334.794 162.063 336.116H163.647C163.853 335.249 164.597 334.987 165.409 334.987C166.594 334.987 167.021 335.483 167.021 336.102C167.021 336.653 166.704 337.039 165.644 337.039H164.514V338.237H165.919C167.007 338.237 167.255 338.76 167.255 339.283C167.255 340.013 166.731 340.495 165.52 340.495C164.335 340.495 163.661 340.096 163.44 339.049H161.87C162.16 340.619 163.192 341.707 165.561 341.707C167.544 341.707 168.824 340.853 168.824 339.394C168.824 338.54 168.411 337.837 167.599 337.535ZM181.975 340.082V333.968H176.563L175.888 338.168C175.709 339.242 175.489 339.82 175.145 340.082H173.823V343.511H175.379V341.542H181.796V343.511H183.352V340.082H181.975ZM176.839 340.082C177.1 339.697 177.293 339.118 177.431 338.237L177.885 335.428H180.419V340.082H176.839ZM188.016 333.803C185.73 333.803 184.105 335.483 184.105 337.769C184.105 340.055 185.743 341.707 188.043 341.707C189.654 341.707 191.1 340.908 191.692 339.215H190.081C189.723 339.958 188.966 340.344 188.057 340.344C186.79 340.344 185.812 339.573 185.688 338.182H191.844C191.995 335.689 190.453 333.803 188.016 333.803ZM188.016 335.152C189.158 335.152 189.943 335.882 190.177 336.915H185.771C186.033 335.896 186.831 335.152 188.016 335.152ZM199.122 333.968H196.658H192.623V335.428H195.102V341.542H196.658V335.428H199.122V333.968ZM203.857 333.803C201.571 333.803 199.946 335.483 199.946 337.769C199.946 340.055 201.585 341.707 203.885 341.707C205.496 341.707 206.942 340.908 207.534 339.215H205.923C205.565 339.958 204.807 340.344 203.898 340.344C202.631 340.344 201.654 339.573 201.53 338.182H207.685C207.837 335.689 206.294 333.803 203.857 333.803ZM203.857 335.152C205 335.152 205.785 335.882 206.019 336.915H201.612C201.874 335.896 202.673 335.152 203.857 335.152ZM212.729 332.825C213.927 332.825 214.974 332.026 214.974 330.691V330.374H213.734V330.636C213.734 331.255 213.335 331.641 212.729 331.641C212.11 331.641 211.71 331.255 211.71 330.636V330.374H210.471V330.691C210.471 332.026 211.517 332.825 212.729 332.825ZM214.409 333.968L210.664 339.517L210.76 337.135V333.968H209.204V341.542H211.035L214.781 335.978L214.685 338.375V341.542H216.241V333.968H214.409Z" fill="#7A7A7A"/>
<rect x="31.9645" y="310.484" width="416.066" height="53.1167" rx="7.37705" stroke="#222222" stroke-opacity="0.2" stroke-width="0.983607"/>
<rect x="31.4727" y="395.567" width="417.049" height="53.1148" rx="26.5574" fill="#FC6733"/>
<path d="M193.265 416.985H187.013H185.044V426.625H187.013V418.858H191.296V426.625H193.265V416.985ZM198.856 418.886C196.68 418.886 194.918 420.552 194.918 422.838C194.918 425.11 196.653 426.79 198.856 426.79C201.073 426.79 202.808 425.124 202.808 422.838C202.808 420.552 201.045 418.886 198.856 418.886ZM198.856 420.759C199.958 420.759 200.811 421.599 200.811 422.838C200.811 424.091 199.958 424.917 198.856 424.917C197.754 424.917 196.901 424.091 196.901 422.838C196.901 421.599 197.754 420.759 198.856 420.759ZM211.775 426.625L208.084 422.659L211.541 419.051H209.034L206.156 422.204V419.051H204.187V426.625H206.156V423.32L209.255 426.625H211.775ZM217.62 419.051V420.111C217.096 419.381 216.298 418.886 215.224 418.886C213.282 418.886 211.781 420.497 211.781 422.838C211.781 425.165 213.254 426.79 215.237 426.79C216.298 426.79 217.083 426.322 217.606 425.606V426.625H219.575L219.589 419.051H217.62ZM215.678 424.917C214.59 424.917 213.764 424.091 213.764 422.838C213.764 421.599 214.576 420.759 215.678 420.759C216.78 420.759 217.62 421.599 217.62 422.838C217.62 424.091 216.78 424.917 215.678 424.917ZM226.722 422.618C227.272 422.342 227.658 421.874 227.658 421.103C227.658 419.657 226.308 418.886 224.408 418.886C222.108 418.886 221.2 419.987 220.952 421.323H222.948C223.1 420.538 223.706 420.345 224.381 420.345C225.345 420.345 225.675 420.717 225.675 421.24C225.675 421.722 225.427 421.984 224.601 421.984H223.541V423.499H224.808C225.689 423.499 225.909 423.857 225.909 424.311C225.909 424.931 225.482 425.289 224.477 425.289C223.486 425.289 222.948 424.972 222.797 424.077H220.8C221.076 425.633 222.053 426.79 224.518 426.79C226.501 426.79 227.906 426.005 227.906 424.449C227.906 423.568 227.465 422.92 226.722 422.618ZM234.846 419.051V420.111C234.323 419.381 233.524 418.886 232.45 418.886C230.509 418.886 229.008 420.497 229.008 422.838C229.008 425.165 230.481 426.79 232.464 426.79C233.524 426.79 234.309 426.322 234.833 425.606V426.625H236.802L236.815 419.051H234.846ZM232.905 424.917C231.817 424.917 230.991 424.091 230.991 422.838C230.991 421.599 231.803 420.759 232.905 420.759C234.006 420.759 234.846 421.599 234.846 422.838C234.846 424.091 234.006 424.917 232.905 424.917ZM244.54 419.051H242.199H237.903V420.91H240.23V426.625H242.199V420.91H244.54V419.051ZM249.531 421.268H247.603L247.589 419.051H245.62L245.634 426.625H249.476C250.88 426.625 252.285 425.867 252.285 423.884C252.285 421.901 250.935 421.268 249.531 421.268ZM249.407 424.752H247.603V423.003H249.407C250.068 423.003 250.302 423.334 250.302 423.884C250.302 424.394 250.068 424.752 249.407 424.752ZM264.799 424.766V419.051H262.83V424.766H259.773V419.051H257.803V426.625H259.773H264.207V428.539H266.176V424.766H264.799ZM270.936 418.886C268.623 418.886 266.984 420.58 266.984 422.852C266.984 425.11 268.609 426.79 270.977 426.79C272.602 426.79 274.117 426.005 274.682 424.215H272.644C272.382 424.821 271.721 425.165 270.964 425.165C269.945 425.165 269.118 424.559 268.995 423.347H274.806C274.998 420.855 273.442 418.886 270.936 418.886ZM270.922 420.511C271.873 420.511 272.492 421.075 272.713 421.901H269.091C269.339 421.089 269.958 420.511 270.922 420.511ZM281.517 419.051V421.846H278.115V419.051H276.146V426.625H278.115V423.705H281.517V426.625H283.486V419.051H281.517ZM288.959 421.268H287.031V419.051H285.062V426.625H288.89C290.295 426.625 291.713 425.867 291.713 423.884C291.713 421.901 290.364 421.268 288.959 421.268ZM292.732 419.051V426.625H294.701V419.051H292.732ZM288.821 424.752H287.031V423.003H288.835C289.496 423.003 289.716 423.334 289.716 423.884C289.716 424.394 289.482 424.752 288.821 424.752Z" fill="white"/>
<path d="M81.4393 73.1489C75.7658 73.1489 71.4143 77.4453 71.4143 83.1187C71.4143 88.7922 75.7658 93.0885 81.4393 93.0885C87.1127 93.0885 91.4917 88.7922 91.4917 83.1187C91.4917 77.4453 87.1127 73.1489 81.4393 73.1489ZM81.4393 76.8944C84.9094 76.8944 87.4983 79.5108 87.4983 83.1187C87.4983 86.7266 84.9094 89.343 81.4393 89.343C77.9691 89.343 75.3802 86.7266 75.3802 83.1187C75.3802 79.5108 77.9691 76.8944 81.4393 76.8944ZM105.05 77.6105V83.2013H98.2479V77.6105H94.3095V92.7581H98.2479V86.9194H105.05V92.7581H108.989V77.6105H105.05ZM115.942 77.6105L114.51 86.4512C114.124 88.7922 113.546 89.4256 112.196 89.4256C111.866 89.4256 111.535 89.3981 111.177 89.343V92.8958C111.756 93.0059 112.417 93.0885 113.023 93.0885C115.777 93.0885 117.677 91.3259 118.393 86.8367L119.302 81.3285H123.213V92.7581H127.151V77.6105H115.942ZM141.615 77.6105V79.7312C140.568 78.2715 138.971 77.28 136.823 77.28C132.94 77.28 129.938 80.5023 129.938 85.1843C129.938 89.8387 132.885 93.0885 136.85 93.0885C138.971 93.0885 140.541 92.1522 141.587 90.72V92.7581H145.526L145.553 77.6105H141.615ZM137.732 89.343C135.556 89.343 133.904 87.6905 133.904 85.1843C133.904 82.7056 135.528 81.0256 137.732 81.0256C139.935 81.0256 141.615 82.7056 141.615 85.1843C141.615 87.6905 139.935 89.343 137.732 89.343ZM155.935 75.7102C158.332 75.7102 160.535 74.1128 160.535 71.3312V70.5876H157.45V71.221C157.45 72.1574 156.844 72.7358 155.935 72.7358C155.027 72.7358 154.421 72.1574 154.421 71.221V70.5876H151.309V71.3312C151.309 74.1128 153.512 75.7102 155.935 75.7102ZM158.662 77.6105L152.438 87.4151L152.631 82.981V77.6105H148.692V92.7581H153.236L159.488 82.8984L159.24 87.3876V92.7581H163.179V77.6105H158.662ZM177.077 77.6105V83.2013H170.274V77.6105H166.336V92.7581H170.274V86.9194H177.077V92.7581H181.015V77.6105H177.077ZM193.972 82.7056H184.691V86.4787H193.972V82.7056ZM206.263 78.0787C204.197 78.0787 202.27 78.9876 201.251 80.8053C201.581 75.7653 204.638 74.9115 211 74.9115V71.221C202.958 71.221 197.257 72.9285 197.257 83.3941C197.257 90.3069 201.085 93.0885 205.271 93.0885C209.595 93.0885 212.955 90.0315 212.955 85.322C212.955 80.943 210.009 78.0787 206.263 78.0787ZM205.106 89.701C202.931 89.701 201.223 88.0761 201.223 85.5423C201.223 83.0636 203.013 81.4387 205.189 81.4387C207.365 81.4387 209.017 83.0636 209.017 85.5423C209.017 88.0761 207.31 89.701 205.106 89.701ZM224.584 77.28C222.463 77.28 220.838 78.2715 219.792 79.7312V77.6105H215.853V99.6433H219.792V90.72C220.866 92.1522 222.436 93.0885 224.584 93.0885C228.522 93.0885 231.497 89.8387 231.497 85.1843C231.497 80.5023 228.467 77.28 224.584 77.28ZM223.675 89.343C221.472 89.343 219.792 87.6905 219.792 85.1843C219.792 82.7056 221.472 81.0256 223.675 81.0256C225.878 81.0256 227.503 82.7056 227.503 85.1843C227.503 87.6905 225.851 89.343 223.675 89.343ZM241.765 77.28C237.414 77.28 233.889 80.6125 233.889 85.1843C233.889 89.7285 237.359 93.0885 241.765 93.0885C246.2 93.0885 249.67 89.7561 249.67 85.1843C249.67 80.6125 246.144 77.28 241.765 77.28ZM241.765 81.0256C243.969 81.0256 245.676 82.7056 245.676 85.1843C245.676 87.6905 243.969 89.343 241.765 89.343C239.562 89.343 237.855 87.6905 237.855 85.1843C237.855 82.7056 239.562 81.0256 241.765 81.0256ZM263.169 77.6105V83.2013H256.366V77.6105H252.428V92.7581H256.366V86.9194H263.169V92.7581H267.107V77.6105H263.169ZM280.23 77.6105L274.005 87.4151L274.198 82.981V77.6105H270.26V92.7581H274.804L281.056 82.8984L280.808 87.3876V92.7581H284.746V77.6105H280.23ZM296.771 77.28C294.651 77.28 293.026 78.2715 291.979 79.7312V77.6105H288.041V99.6433H291.979V90.72C293.053 92.1522 294.623 93.0885 296.771 93.0885C300.71 93.0885 303.684 89.8387 303.684 85.1843C303.684 80.5023 300.655 77.28 296.771 77.28ZM295.863 89.343C293.659 89.343 291.979 87.6905 291.979 85.1843C291.979 82.7056 293.659 81.0256 295.863 81.0256C298.066 81.0256 299.691 82.7056 299.691 85.1843C299.691 87.6905 298.038 89.343 295.863 89.343ZM313.953 77.28C309.601 77.28 306.076 80.6125 306.076 85.1843C306.076 89.7285 309.546 93.0885 313.953 93.0885C318.387 93.0885 321.857 89.7561 321.857 85.1843C321.857 80.6125 318.332 77.28 313.953 77.28ZM313.953 81.0256C316.156 81.0256 317.864 82.7056 317.864 85.1843C317.864 87.6905 316.156 89.343 313.953 89.343C311.75 89.343 310.042 87.6905 310.042 85.1843C310.042 82.7056 311.75 81.0256 313.953 81.0256ZM335.412 84.5784C336.541 83.8348 337.367 83.0085 337.367 81.4387C337.367 78.4092 334.971 77.6105 331.942 77.6105H324.616V92.7581H332.63C335.742 92.7581 338.138 91.4912 338.138 88.379C338.138 86.4512 337.174 85.1017 335.412 84.5784ZM333.401 82.1823C333.401 83.1187 332.961 83.6144 331.611 83.6144H328.554V80.6951H331.611C332.961 80.6951 333.401 81.1908 333.401 82.1823ZM332.327 89.6735H328.554V86.4236H332.327C333.649 86.4236 334.145 86.9469 334.145 88.021C334.145 89.1226 333.704 89.6735 332.327 89.6735ZM352.099 77.6105V79.7312C351.053 78.2715 349.455 77.28 347.307 77.28C343.424 77.28 340.422 80.5023 340.422 85.1843C340.422 89.8387 343.369 93.0885 347.335 93.0885C349.455 93.0885 351.025 92.1522 352.072 90.72V92.7581H356.01L356.038 77.6105H352.099ZM348.216 89.343C346.04 89.343 344.388 87.6905 344.388 85.1843C344.388 82.7056 346.013 81.0256 348.216 81.0256C350.419 81.0256 352.099 82.7056 352.099 85.1843C352.099 87.6905 350.419 89.343 348.216 89.343ZM369.917 77.6105V83.2013H363.115V77.6105H359.176V92.7581H363.115V86.9194H369.917V92.7581H373.856V77.6105H369.917ZM386.978 77.6105L380.754 87.4151L380.946 82.981V77.6105H377.008V92.7581H381.552L387.804 82.8984L387.556 87.3876V92.7581H391.495V77.6105H386.978ZM402.198 77.28C397.571 77.28 394.293 80.6676 394.293 85.2118C394.293 89.7285 397.543 93.0885 402.28 93.0885C405.53 93.0885 408.56 91.5187 409.689 87.9384H405.613C405.09 89.1502 403.768 89.8387 402.253 89.8387C400.215 89.8387 398.562 88.6269 398.314 86.2033H409.937C410.322 81.2184 407.21 77.28 402.198 77.28ZM402.17 80.5299C404.07 80.5299 405.31 81.659 405.75 83.3115H398.507C399.003 81.6866 400.242 80.5299 402.17 80.5299Z" fill="#222222"/>
</svg>
