<svg width="546" height="445" viewBox="0 0 546 445" fill="none" xmlns="http://www.w3.org/2000/svg">
<path d="M0 0H546V444.478H0V0Z" fill="#F6F6F6"/>
<line x1="104" y1="73.074" x2="489" y2="73.074" stroke="#DEDEDE" stroke-width="1.85199"/>
<line x1="104" y1="148.074" x2="489" y2="148.074" stroke="#DEDEDE" stroke-width="1.85199"/>
<line x1="104" y1="222.074" x2="489" y2="222.074" stroke="#DEDEDE" stroke-width="1.85199"/>
<line x1="104" y1="295.074" x2="489" y2="295.074" stroke="#DEDEDE" stroke-width="1.85199"/>
<line x1="104" y1="369.074" x2="489" y2="369.074" stroke="#DEDEDE" stroke-width="1.85199"/>
<path d="M41.4734 367.205L41.503 367.19L43.1328 365.782C45.2515 363.93 46.3478 362.997 46.3478 361.426C46.3478 359.678 44.97 358.256 42.7624 358.256C40.6141 358.256 39.0584 359.604 38.8213 361.767H40.5104C40.7326 360.582 41.429 359.856 42.6883 359.856C43.9625 359.856 44.6588 360.597 44.6588 361.5C44.6588 362.419 44.0662 362.938 41.7401 364.967L38.7325 367.605V368.805H46.5997V367.205H41.4734ZM52.1485 358.256C49.452 358.256 47.8371 360.256 47.8371 363.619C47.8371 366.982 49.452 368.982 52.1485 368.982C54.8747 368.982 56.4748 366.953 56.4748 363.619C56.4748 360.286 54.8747 358.256 52.1485 358.256ZM52.1485 367.382C50.5039 367.382 49.5261 366.227 49.5261 363.619C49.5261 361.012 50.5039 359.856 52.1485 359.856C53.8079 359.856 54.7858 361.012 54.7858 363.619C54.7858 366.227 53.8079 367.382 52.1485 367.382ZM61.2533 364.493C62.8978 364.493 64.0535 363.412 64.0535 361.382C64.0535 359.352 62.8978 358.256 61.2533 358.256C59.5939 358.256 58.453 359.352 58.453 361.382C58.453 363.412 59.5939 364.493 61.2533 364.493ZM69.0464 358.434H67.4315L61.5051 368.805H63.1201L69.0464 358.434ZM61.2533 363.189C60.3939 363.189 59.9198 362.612 59.9198 361.382C59.9198 360.137 60.3939 359.574 61.2533 359.574C62.1126 359.574 62.5867 360.137 62.5867 361.382C62.5867 362.612 62.1126 363.189 61.2533 363.189ZM69.3131 362.745C67.6537 362.745 66.5129 363.827 66.5129 365.856C66.5129 367.886 67.6537 368.982 69.3131 368.982C70.9577 368.982 72.1133 367.886 72.1133 365.856C72.1133 363.827 70.9577 362.745 69.3131 362.745ZM69.3131 364.049C70.1725 364.049 70.6466 364.627 70.6466 365.856C70.6466 367.101 70.1725 367.664 69.3131 367.664C68.439 367.664 67.9649 367.101 67.9649 365.856C67.9649 364.627 68.439 364.049 69.3131 364.049Z" fill="#BDBDBD"/>
<path d="M110.171 394.547H103.178H101.504V404.918H103.178V396.147H108.497V404.918H110.171V394.547ZM119.58 394.547V398.785H114.261V394.547H112.587V404.918H114.261V400.385H119.58V404.918H121.254V394.547H119.58Z" fill="#BDBDBD"/>
<path d="M174.006 399.377C174.939 398.948 175.384 398.266 175.384 397.214C175.384 395.51 174.243 394.547 172.228 394.547H167.813V404.918H172.287C174.465 404.918 175.724 403.807 175.724 401.985C175.724 400.726 175.176 399.733 174.006 399.377ZM173.694 397.481C173.694 398.325 173.25 398.814 172.035 398.814H169.487V396.147H172.02C173.22 396.147 173.694 396.577 173.694 397.481ZM172.243 403.318H169.487V400.355H172.228C173.591 400.355 174.035 400.903 174.035 401.852C174.035 402.741 173.606 403.318 172.243 403.318ZM184.621 394.547H176.621V396.147H179.777V404.918H181.451V396.147H184.621V394.547Z" fill="#BDBDBD"/>
<path d="M232.851 405.096C235.251 405.096 237.162 403.644 237.814 401.496H236.022C235.473 402.711 234.303 403.496 232.836 403.496C230.717 403.496 229.191 401.896 229.191 399.733C229.191 397.57 230.717 395.97 232.836 395.97C234.303 395.97 235.473 396.755 236.022 397.97H237.814C237.162 395.821 235.251 394.37 232.851 394.37C229.769 394.37 227.502 396.666 227.502 399.733C227.502 402.8 229.769 405.096 232.851 405.096ZM243.889 394.547H239.637V404.918H241.311V401.407H243.889C246.156 401.407 247.533 399.985 247.533 397.955C247.533 395.91 246.156 394.547 243.889 394.547ZM243.829 399.807H241.311V396.147H243.829C245.192 396.147 245.83 396.918 245.83 397.97C245.83 399.022 245.192 399.807 243.829 399.807Z" fill="#BDBDBD"/>
<path d="M298.832 394.547V399.54C298.372 399.822 297.587 399.985 296.669 399.985C295.276 399.985 294.416 399.451 294.416 397.896V394.547H292.727V398.088C292.727 400.533 294.194 401.585 296.343 401.585C297.454 401.585 298.269 401.363 298.832 401.096V404.918H300.506V394.547H298.832ZM310.183 394.547H302.183V396.147H305.338V404.918H307.013V396.147H310.183V394.547Z" fill="#BDBDBD"/>
<path d="M364.003 394.547H357.01H355.336V404.918H357.01V396.147H362.329V404.918H364.003V394.547ZM373.664 394.547H365.663V396.147H368.819V404.918H370.493V396.147H373.664V394.547Z" fill="#BDBDBD"/>
<path d="M423.484 405.096C425.884 405.096 427.795 403.644 428.447 401.496H426.654C426.106 402.711 424.936 403.496 423.469 403.496C421.35 403.496 419.824 401.896 419.824 399.733C419.824 397.57 421.35 395.97 423.469 395.97C424.936 395.97 426.106 396.755 426.654 397.97H428.447C427.795 395.821 425.884 394.37 423.484 394.37C420.402 394.37 418.135 396.666 418.135 399.733C418.135 402.8 420.402 405.096 423.484 405.096ZM434.729 398.592H431.944V396.147H437.411V394.547H431.944H430.269V404.918H434.625C436.892 404.918 438.166 403.704 438.166 401.733C438.166 399.748 437.011 398.592 434.729 398.592ZM434.566 403.318H431.944V400.133H434.655C435.944 400.133 436.462 400.726 436.462 401.718C436.462 402.696 435.855 403.318 434.566 403.318Z" fill="#BDBDBD"/>
<path d="M490.002 399.377C490.935 398.948 491.379 398.266 491.379 397.214C491.379 395.51 490.239 394.547 488.224 394.547H483.809V404.918H488.283C490.461 404.918 491.72 403.807 491.72 401.985C491.72 400.726 491.172 399.733 490.002 399.377ZM489.69 397.481C489.69 398.325 489.246 398.814 488.031 398.814H485.483V396.147H488.016C489.216 396.147 489.69 396.577 489.69 397.481ZM488.239 403.318H485.483V400.355H488.224C489.587 400.355 490.031 400.903 490.031 401.852C490.031 402.741 489.602 403.318 488.239 403.318ZM498.494 405.096C500.895 405.096 502.806 403.644 503.458 401.496H501.665C501.117 402.711 499.946 403.496 498.48 403.496C496.361 403.496 494.835 401.896 494.835 399.733C494.835 397.57 496.361 395.97 498.48 395.97C499.946 395.97 501.117 396.755 501.665 397.97H503.458C502.806 395.821 500.895 394.37 498.494 394.37C495.413 394.37 493.146 396.666 493.146 399.733C493.146 402.8 495.413 405.096 498.494 405.096Z" fill="#BDBDBD"/>
<path d="M44.9255 290.198C45.7848 289.828 46.2738 289.013 46.2738 288.065C46.2738 286.331 44.7477 285.101 42.6735 285.101C40.7326 285.101 39.1621 286.094 38.8658 288.242H40.5548C40.8363 287.087 41.5771 286.687 42.629 286.687C43.8736 286.687 44.5847 287.339 44.5847 288.272C44.5847 289.176 43.9032 289.591 42.6439 289.591H41.5327V291.072H42.9402C44.3921 291.072 44.9107 291.68 44.9107 292.554C44.9107 293.576 44.1699 294.243 42.792 294.243C41.5919 294.243 40.6733 293.769 40.4215 292.554H38.7325C38.9695 294.761 40.7178 295.828 42.8068 295.828C45.0589 295.828 46.5997 294.658 46.5997 292.702C46.5997 291.487 45.9774 290.583 44.9255 290.198ZM52.2932 285.101C49.5967 285.101 47.9818 287.102 47.9818 290.465C47.9818 293.828 49.5967 295.828 52.2932 295.828C55.0193 295.828 56.6195 293.798 56.6195 290.465C56.6195 287.131 55.0193 285.101 52.2932 285.101ZM52.2932 294.228C50.6486 294.228 49.6708 293.072 49.6708 290.465C49.6708 287.857 50.6486 286.702 52.2932 286.702C53.9526 286.702 54.9304 287.857 54.9304 290.465C54.9304 293.072 53.9526 294.228 52.2932 294.228ZM61.3979 291.339C63.0425 291.339 64.1982 290.257 64.1982 288.228C64.1982 286.198 63.0425 285.101 61.3979 285.101C59.7386 285.101 58.5977 286.198 58.5977 288.228C58.5977 290.257 59.7386 291.339 61.3979 291.339ZM69.1911 285.279H67.5762L61.6498 295.65H63.2648L69.1911 285.279ZM61.3979 290.035C60.5386 290.035 60.0645 289.457 60.0645 288.228C60.0645 286.983 60.5386 286.42 61.3979 286.42C62.2573 286.42 62.7314 286.983 62.7314 288.228C62.7314 289.457 62.2573 290.035 61.3979 290.035ZM69.4578 289.591C67.7984 289.591 66.6576 290.672 66.6576 292.702C66.6576 294.732 67.7984 295.828 69.4578 295.828C71.1024 295.828 72.258 294.732 72.258 292.702C72.258 290.672 71.1024 289.591 69.4578 289.591ZM69.4578 290.894C70.3171 290.894 70.7913 291.472 70.7913 292.702C70.7913 293.947 70.3171 294.51 69.4578 294.51C68.5837 294.51 68.1096 293.947 68.1096 292.702C68.1096 291.472 68.5837 290.894 69.4578 290.894Z" fill="#BDBDBD"/>
<path d="M47.1035 218.541H45.607V212.126H43.118L38.5843 218.541V220.127L43.9328 220.112V222.497H45.607V220.112H47.1035V218.541ZM40.4067 218.541L43.7995 213.682H43.9328V218.541H40.4067ZM52.626 211.948C49.9295 211.948 48.3145 213.948 48.3145 217.311C48.3145 220.675 49.9295 222.675 52.626 222.675C55.3521 222.675 56.9522 220.645 56.9522 217.311C56.9522 213.978 55.3521 211.948 52.626 211.948ZM52.626 221.075C50.9814 221.075 50.0036 219.919 50.0036 217.311C50.0036 214.704 50.9814 213.548 52.626 213.548C54.2854 213.548 55.2632 214.704 55.2632 217.311C55.2632 219.919 54.2854 221.075 52.626 221.075ZM61.7307 218.186C63.3753 218.186 64.5309 217.104 64.5309 215.074C64.5309 213.045 63.3753 211.948 61.7307 211.948C60.0713 211.948 58.9305 213.045 58.9305 215.074C58.9305 217.104 60.0713 218.186 61.7307 218.186ZM69.5239 212.126H67.909L61.9826 222.497H63.5975L69.5239 212.126ZM61.7307 216.882C60.8714 216.882 60.3973 216.304 60.3973 215.074C60.3973 213.83 60.8714 213.267 61.7307 213.267C62.5901 213.267 63.0642 213.83 63.0642 215.074C63.0642 216.304 62.5901 216.882 61.7307 216.882ZM69.7906 216.437C68.1312 216.437 66.9904 217.519 66.9904 219.549C66.9904 221.578 68.1312 222.675 69.7906 222.675C71.4352 222.675 72.5908 221.578 72.5908 219.549C72.5908 217.519 71.4352 216.437 69.7906 216.437ZM69.7906 217.741C70.6499 217.741 71.124 218.319 71.124 219.549C71.124 220.793 70.6499 221.356 69.7906 221.356C68.9165 221.356 68.4423 220.793 68.4423 219.549C68.4423 218.319 68.9165 217.741 69.7906 217.741Z" fill="#BDBDBD"/>
<path d="M43.1476 142.439C42.2586 142.439 41.6067 142.691 41.0882 143.091L41.6216 140.572H46.1552V138.972H40.3622L39.088 144.928H40.6882C41.0734 144.306 41.7549 143.832 42.792 143.832C44.0366 143.832 44.9403 144.617 44.9403 145.847C44.9403 147.032 44.0662 147.936 42.7624 147.936C41.6216 147.936 40.6585 147.343 40.4215 146.158H38.7325C38.9695 148.41 40.7919 149.521 42.7772 149.521C44.97 149.521 46.6442 148.069 46.6442 145.862C46.6442 143.713 45.044 142.439 43.1476 142.439ZM52.3221 138.794C49.6256 138.794 48.0107 140.794 48.0107 144.158C48.0107 147.521 49.6256 149.521 52.3221 149.521C55.0483 149.521 56.6484 147.491 56.6484 144.158C56.6484 140.824 55.0483 138.794 52.3221 138.794ZM52.3221 147.921C50.6776 147.921 49.6997 146.765 49.6997 144.158C49.6997 141.55 50.6776 140.394 52.3221 140.394C53.9815 140.394 54.9594 141.55 54.9594 144.158C54.9594 146.765 53.9815 147.921 52.3221 147.921ZM61.4269 145.032C63.0715 145.032 64.2271 143.95 64.2271 141.92C64.2271 139.891 63.0715 138.794 61.4269 138.794C59.7675 138.794 58.6267 139.891 58.6267 141.92C58.6267 143.95 59.7675 145.032 61.4269 145.032ZM69.2201 138.972H67.6051L61.6788 149.343H63.2937L69.2201 138.972ZM61.4269 143.728C60.5676 143.728 60.0935 143.15 60.0935 141.92C60.0935 140.676 60.5676 140.113 61.4269 140.113C62.2862 140.113 62.7603 140.676 62.7603 141.92C62.7603 143.15 62.2862 143.728 61.4269 143.728ZM69.4868 143.284C67.8274 143.284 66.6865 144.365 66.6865 146.395C66.6865 148.425 67.8274 149.521 69.4868 149.521C71.1313 149.521 72.287 148.425 72.287 146.395C72.287 144.365 71.1313 143.284 69.4868 143.284ZM69.4868 144.587C70.3461 144.587 70.8202 145.165 70.8202 146.395C70.8202 147.639 70.3461 148.202 69.4868 148.202C68.6126 148.202 68.1385 147.639 68.1385 146.395C68.1385 145.165 68.6126 144.587 69.4868 144.587Z" fill="#BDBDBD"/>
<path d="M43.1624 69.1667C42.5105 69.1667 42.0216 69.3297 41.5475 69.5815L44.4218 65.8183H42.4513C40.0363 69.0334 38.7325 70.6187 38.7325 72.5744C38.7325 74.9301 40.5252 76.3672 42.6735 76.3672C44.8811 76.3672 46.6293 74.8708 46.6293 72.5892C46.6293 70.352 44.9403 69.1667 43.1624 69.1667ZM42.6735 74.7671C41.4141 74.7671 40.4215 73.9374 40.4215 72.604C40.4215 71.2706 41.3697 70.4557 42.6883 70.4557C43.9477 70.4557 44.9403 71.2409 44.9403 72.5892C44.9403 73.9226 43.9625 74.7671 42.6735 74.7671ZM52.3221 65.6405C49.6256 65.6405 48.0107 67.6407 48.0107 71.0039C48.0107 74.3671 49.6256 76.3672 52.3221 76.3672C55.0483 76.3672 56.6484 74.3375 56.6484 71.0039C56.6484 67.6703 55.0483 65.6405 52.3221 65.6405ZM52.3221 74.7671C50.6776 74.7671 49.6997 73.6115 49.6997 71.0039C49.6997 68.3963 50.6776 67.2406 52.3221 67.2406C53.9815 67.2406 54.9594 68.3963 54.9594 71.0039C54.9594 73.6115 53.9815 74.7671 52.3221 74.7671ZM61.4269 71.878C63.0715 71.878 64.2271 70.7965 64.2271 68.7667C64.2271 66.7369 63.0715 65.6405 61.4269 65.6405C59.7675 65.6405 58.6267 66.7369 58.6267 68.7667C58.6267 70.7965 59.7675 71.878 61.4269 71.878ZM69.2201 65.8183H67.6051L61.6788 76.1895H63.2937L69.2201 65.8183ZM61.4269 70.5742C60.5676 70.5742 60.0935 69.9964 60.0935 68.7667C60.0935 67.5221 60.5676 66.9591 61.4269 66.9591C62.2862 66.9591 62.7603 67.5221 62.7603 68.7667C62.7603 69.9964 62.2862 70.5742 61.4269 70.5742ZM69.4868 70.1297C67.8274 70.1297 66.6865 71.2113 66.6865 73.2411C66.6865 75.2709 67.8274 76.3672 69.4868 76.3672C71.1313 76.3672 72.287 75.2709 72.287 73.2411C72.287 71.2113 71.1313 70.1297 69.4868 70.1297ZM69.4868 71.4335C70.3461 71.4335 70.8202 72.0114 70.8202 73.2411C70.8202 74.4856 70.3461 75.0486 69.4868 75.0486C68.6126 75.0486 68.1385 74.4856 68.1385 73.2411C68.1385 72.0114 68.6126 71.4335 69.4868 71.4335Z" fill="#2655FF"/>
<path d="M104.25 262.949C104.25 257.503 108.665 253.088 114.112 253.088C119.558 253.088 123.973 257.503 123.973 262.949V368.929H104.25V262.949Z" fill="#FC6733"/>
<path d="M228.227 221.398C228.227 215.951 232.642 211.536 238.088 211.536C243.535 211.536 247.95 215.951 247.95 221.398V368.929H228.227V221.398Z" fill="#FC6733"/>
<path d="M290.211 201.252C290.211 195.805 294.626 191.39 300.073 191.39C305.519 191.39 309.934 195.805 309.934 201.252V368.93H290.211V201.252Z" fill="#FC6733"/>
<path d="M476.176 92.9651C476.176 87.5187 480.591 83.1035 486.037 83.1035C491.484 83.1035 495.899 87.5187 495.899 92.9651V368.929H476.176V92.9651Z" fill="#FC6733"/>
<path d="M352.199 143.331C352.199 137.884 356.614 133.469 362.061 133.469C367.507 133.469 371.922 137.884 371.922 143.331V368.929H352.199V143.331Z" fill="#FC6733"/>
<path d="M414.187 129.48C414.187 124.034 418.603 119.619 424.049 119.619C429.495 119.619 433.911 124.034 433.911 129.48V368.929H414.187V129.48Z" fill="#FC6733"/>
<path d="M166.238 246.581C166.238 241.135 170.653 236.719 176.1 236.719C181.546 236.719 185.961 241.135 185.961 246.581V368.93H166.238V246.581Z" fill="#FC6733"/>
<path d="M104.25 280.578C104.25 275.131 108.665 270.716 114.112 270.716C119.558 270.716 123.973 275.131 123.973 280.578V370.189H104.25V280.578Z" fill="#2655FF"/>
<path d="M228.227 236.508C228.227 231.061 232.642 226.646 238.088 226.646C243.535 226.646 247.95 231.061 247.95 236.508V370.189H228.227V236.508Z" fill="#2655FF"/>
<path d="M290.211 221.398C290.211 215.951 294.626 211.536 300.073 211.536C305.519 211.536 309.934 215.951 309.934 221.398V370.188H290.211V221.398Z" fill="#2655FF"/>
<path d="M476.176 162.218C476.176 156.772 480.591 152.356 486.037 152.356C491.484 152.356 495.899 156.772 495.899 162.218V370.189H476.176V162.218Z" fill="#2655FF"/>
<path d="M352.199 177.328C352.199 171.882 356.614 167.466 362.061 167.466C367.507 167.466 371.922 171.881 371.922 177.328V370.189H352.199V177.328Z" fill="#2655FF"/>
<path d="M414.188 150.886C414.188 145.44 418.603 141.024 424.049 141.024C429.495 141.024 433.911 145.44 433.911 150.886V370.189H414.188V150.886Z" fill="#2655FF"/>
<path d="M166.238 256.654C166.238 251.208 170.653 246.792 176.1 246.792C181.546 246.792 185.961 251.208 185.961 256.654V370.189H166.238V256.654Z" fill="#2655FF"/>
</svg>
