<svg width="470" height="426" viewBox="0 0 470 426" fill="none" xmlns="http://www.w3.org/2000/svg">
<path opacity="0.6" d="M355 386H177.5L-3.05176e-05 209L177.5 32H355L177.5 209L355 386Z" fill="white"/>
<path d="M468.519 345.034C471.26 365.485 461.773 383.406 453.761 394.791C452.496 384.881 450.809 374.551 448.701 364.22C447.647 358.316 446.382 352.624 445.117 347.142C445.117 347.142 440.689 334.914 430.991 324.794C412.016 304.765 384.608 306.241 349.188 287.476C341.387 283.26 330.213 276.724 317.773 266.182L316.719 265.128C317.352 264.496 317.984 263.863 318.617 263.231C316.93 259.857 315.243 255.851 313.768 251.424C312.503 247.84 311.659 244.677 311.027 241.515C307.232 241.515 303.647 241.515 299.852 241.515C298.377 239.828 295.847 236.876 294.371 232.238C292.684 226.967 292.895 222.329 293.317 219.799C305.545 223.172 324.731 225.913 344.971 218.534C350.663 216.425 357.41 214.106 363.524 208.203C381.656 191.125 376.807 162.452 376.174 158.025L375.753 157.814C377.65 153.597 377.65 148.959 377.65 146.429C377.65 142.634 377.65 135.044 372.59 130.616C383.975 128.719 395.782 124.291 406.956 117.755C406.956 121.34 406.956 124.713 407.378 128.297C408.643 137.995 412.648 147.272 418.763 154.651C422.768 159.5 427.618 163.506 431.623 168.145C445.328 183.325 450.809 205.462 446.171 225.28C444.063 234.135 440.9 246.785 437.948 255.43C434.997 264.074 433.099 273.772 436.262 282.416C438.581 288.952 443.43 294.012 447.858 299.494C460.086 315.096 466.833 333.438 468.519 345.034Z" fill="#FC6733"/>
<path d="M453.76 394.791C454.603 400.483 455.235 406.176 455.868 411.657C403.792 419.669 342.861 425.362 274.762 425.362C199.705 425.362 132.871 418.404 77 409.127C80.3733 397.953 83.325 388.466 85.855 380.454C88.5959 372.021 90.9151 365.063 92.6017 359.792C96.1859 349.251 98.0834 344.612 98.0834 344.612C98.2942 343.769 103.354 330.065 106.728 325.216C113.053 315.939 131.184 309.614 164.707 296.121C175.038 292.115 180.098 290.006 184.314 288.109C203.289 279.676 218.048 270.821 227.535 264.496C231.963 268.08 237.234 273.14 241.872 280.097C246.299 286.422 249.04 292.536 250.727 297.175C254.1 294.223 257.263 291.061 260.636 287.477C261.69 291.904 262.112 295.488 262.323 298.018C263.799 312.777 261.479 325.005 258.949 337.866C258.106 342.082 257.474 345.245 256.841 347.353C253.257 362.112 249.251 373.707 246.089 381.508C249.251 386.357 253.678 391.839 259.371 397.532C264.009 402.17 268.648 405.965 272.864 408.917C277.714 405.754 283.195 401.748 288.888 396.477C293.315 392.261 297.11 388.255 300.273 384.46C297.743 375.605 294.159 363.166 290.364 347.775C288.888 341.872 288.044 338.92 287.623 336.812C281.719 311.512 281.298 300.759 281.087 297.386C280.876 293.591 281.087 289.796 281.298 286.001C284.671 289.796 287.834 293.38 291.207 296.964C294.369 291.693 298.164 286.001 303.014 280.097C307.652 274.194 312.29 269.345 316.718 265.128L317.772 266.182C330.211 276.513 341.174 283.26 349.186 287.477C384.606 306.241 412.015 304.765 430.99 324.794C440.688 335.125 445.115 347.142 445.115 347.142C446.38 352.835 447.645 358.527 448.7 364.22C450.597 374.551 452.284 384.671 453.76 394.791ZM219.313 371.81C219.523 368.437 219.734 364.642 219.523 360.214C219.313 356.419 218.68 353.046 218.048 350.094C205.187 350.937 194.645 350.727 187.477 350.516C172.929 349.883 162.388 348.618 159.647 353.678C159.014 354.732 159.014 357.684 159.014 363.798C159.014 369.491 159.014 372.442 159.436 373.075C162.809 378.978 177.989 373.497 204.133 372.442C204.133 372.232 204.133 372.232 219.313 371.81Z" fill="#BEE0FF"/>
<path d="M406.325 70.107C411.806 85.0762 407.168 101.521 406.535 117.545C395.361 124.08 383.555 128.508 372.17 130.405C371.748 129.984 371.326 129.773 370.905 129.351C366.266 126.189 360.574 127.032 358.887 127.454C358.465 126.4 357.833 124.924 356.779 123.448C357.622 115.225 358.465 95.1962 347.08 73.6912C343.707 67.1554 334.852 51.132 315.666 40.3795C289.523 25.832 263.169 32.157 253.892 34.4762C246.091 36.3737 231.754 39.9579 218.472 52.1862C207.93 61.8845 202.87 72.4262 200.762 77.2754C193.172 94.1421 192.961 109.955 193.594 119.02C192.539 120.075 191.696 121.34 191.064 123.026C178.624 120.285 166.185 117.545 153.746 114.804C155.011 113.539 156.276 112.063 157.541 110.376C170.613 92.4554 164.077 67.1554 170.402 45.8612C178.835 17.3987 217.839 -0.943877 251.994 1.16446C283.409 3.06196 303.86 22.6695 309.552 28.5728C317.564 27.7295 367.531 22.4587 394.729 52.1862C398.524 56.6137 403.162 61.6737 406.325 70.107Z" fill="#FC6733"/>
<path d="M377.229 146.218C377.229 148.748 377.229 153.386 375.332 157.603C374.489 159.711 373.013 161.819 370.694 163.506C366.266 166.669 361.206 166.247 359.309 166.036C360.363 163.295 360.784 157.814 361.206 146.85C361.206 144.32 361.628 138.206 359.941 131.67C363.947 131.67 367.953 131.249 371.959 130.405C377.229 134.833 377.229 142.423 377.229 146.218Z" fill="black"/>
<path d="M375.963 157.814C376.806 162.241 381.445 190.915 363.313 207.992C357.199 213.895 350.452 216.215 344.76 218.323C324.73 225.491 305.545 222.75 293.105 219.588C293.105 219.377 293.105 219.166 293.316 218.955C297.744 216.847 301.539 214.317 304.912 212.209C322.833 200.613 332.531 183.957 337.802 172.572C338.224 172.994 338.646 173.415 339.067 173.837C340.332 175.102 343.284 177.843 347.079 177.843C354.247 177.632 358.675 167.09 359.307 165.825C361.205 166.036 366.265 166.458 370.692 163.295C373.011 161.609 374.487 159.711 375.331 157.392L375.963 157.814Z" fill="#FC6733"/>
<path d="M370.904 129.351C371.326 129.773 371.748 129.984 372.169 130.405C368.163 131.038 364.158 131.46 360.152 131.67C359.941 131.249 359.941 130.616 359.73 130.195C359.519 129.14 359.098 128.297 358.887 127.665C360.573 127.032 366.055 126.189 370.904 129.351Z" fill="black"/>
<path d="M360.149 131.46C361.625 137.996 361.414 144.11 361.414 146.64C360.992 157.603 360.571 163.085 359.516 165.826C358.884 167.091 354.456 177.632 347.288 177.843C343.493 178.054 340.541 175.102 339.276 173.837C338.855 173.416 338.433 172.994 338.011 172.572C339.276 169.832 340.331 167.302 341.174 165.404C343.704 159.079 345.18 154.23 345.601 152.543C347.71 144.953 348.764 137.785 348.975 131.249C352.559 131.46 356.354 131.671 360.149 131.46Z" fill="black"/>
<path d="M359.725 129.984C359.936 130.405 359.936 131.038 360.147 131.46C356.352 131.67 352.768 131.46 349.184 131.038C349.394 126.189 349.394 121.761 349.184 117.966C350.027 118.177 350.659 118.177 350.659 118.177C353.611 119.02 355.509 121.34 356.984 123.448C357.828 124.924 358.671 126.4 359.093 127.454C359.093 128.297 359.304 128.93 359.725 129.984Z" fill="black"/>
<path d="M347.08 73.691C358.465 94.9852 357.621 115.225 356.778 123.448C355.513 121.339 353.405 119.02 350.453 118.177C350.453 118.177 349.821 117.966 348.977 117.966C348.345 108.057 346.658 100.889 345.815 98.1477C342.652 86.7627 338.436 70.1068 323.256 57.6677C316.298 51.7643 308.708 48.391 303.437 46.4935C301.751 45.861 300.064 45.4393 299.01 45.0176C288.257 41.8551 279.402 42.2768 274.553 42.4876C266.963 42.9093 246.512 44.3852 227.959 59.5652C225.218 61.8843 216.152 69.896 209.195 83.3893C202.87 96.0394 201.394 107.424 200.761 116.912C199.496 116.701 198.231 116.701 196.755 117.123C195.49 117.544 194.436 118.177 193.382 119.231C192.75 110.165 192.75 94.3527 200.55 77.486C202.87 72.6369 207.719 62.0952 218.26 52.3968C231.543 40.1685 245.88 36.5843 253.681 34.6868C262.957 32.3676 289.311 26.0426 315.455 40.5902C334.851 51.1318 343.706 67.1552 347.08 73.691Z" fill="black"/>
<path d="M348.977 117.966C349.188 121.972 349.188 126.4 348.977 131.038C344.128 130.406 339.49 129.351 335.062 127.665C337.171 123.026 339.912 119.653 343.074 118.388C345.393 117.545 347.712 117.756 348.977 117.966Z" fill="black"/>
<path d="M348.974 117.966C347.499 117.755 345.39 117.755 343.071 118.599C339.909 119.864 336.957 123.237 335.059 127.875C329.789 125.978 324.729 123.448 320.301 120.074C317.982 118.388 300.694 104.894 297.109 83.3894C303.645 67.7877 302.591 51.1319 301.748 50.921L303.856 46.2827C309.127 48.1802 316.506 51.5536 323.674 57.4569C338.644 70.1069 343.071 86.5519 346.234 97.9369C346.655 100.678 348.342 107.846 348.974 117.966Z" fill="#FC6733"/>
<path d="M348.974 131.038C348.553 137.574 347.499 144.743 345.601 152.333C345.18 154.019 343.704 159.079 341.174 165.193C340.33 167.091 339.276 169.621 338.011 172.362C329.156 161.609 329.367 140.104 335.06 127.665C339.487 129.352 344.125 130.406 348.974 131.038Z" fill="black"/>
<path d="M293.525 218.745C288.043 221.486 281.507 223.594 273.706 223.805C265.695 224.016 258.737 222.54 252.412 219.799C239.762 214.528 231.118 205.884 227.745 202.3C217.414 191.758 213.197 180.795 208.98 169.41C214.673 162.452 215.306 154.862 215.938 149.17C216.36 144.953 216.992 136.52 212.986 127.875C214.04 128.086 214.884 128.297 215.938 128.508C223.95 129.14 244.611 129.984 265.484 117.545C270.966 114.382 288.465 103.63 296.898 83.1787C300.482 104.684 317.771 117.966 320.09 119.864C324.517 123.237 329.577 125.767 334.848 127.665C329.156 140.315 328.734 161.82 337.8 172.361C332.529 183.535 322.831 200.191 304.91 211.998C301.747 214.317 297.952 216.636 293.525 218.745Z" fill="#E2C7B5"/>
<path d="M323 264.116C322.338 264.776 321.676 265.437 321.014 266.097C316.378 270.5 311.523 275.563 306.667 281.728C301.811 287.892 297.617 293.836 294.306 299.34C290.775 295.597 287.464 291.854 283.932 287.892C281.505 285.25 279.297 282.388 276.869 279.526C275.766 278.205 274.662 276.884 273.559 275.563C272.676 276.884 271.793 278.205 270.91 279.526C268.261 283.269 265.392 286.791 262.302 289.873C258.991 293.616 255.459 296.918 251.928 300C250.162 295.157 247.293 288.772 242.658 282.168C237.581 274.903 232.063 269.619 227.649 265.877C226.766 265.216 225.883 264.556 225 263.896C226.324 260.373 227.869 256.631 229.194 253.108C230.739 248.925 232.505 244.963 234.05 241C238.685 241 243.541 241.22 248.396 241.22C257.667 241.44 266.937 241.44 276.428 241.66C285.477 241.881 294.306 241.881 303.356 241.881C307.329 241.881 311.081 241.881 315.054 241.881C315.716 245.183 316.82 248.485 317.923 252.228C319.468 256.631 321.234 260.593 323 264.116Z" fill="white"/>
<path d="M304 46.7081L301.889 51.3212C300.834 51.3212 294.713 67.2575 297.246 83.6131C288.803 103.953 271.285 114.647 265.797 117.792C244.902 130.164 224.217 129.325 216.197 128.696C215.141 128.486 214.086 128.277 213.242 128.067C213.031 127.438 212.609 126.809 212.398 126.389C208.809 119.679 205.01 118.212 203.955 117.792C203.533 117.582 202.477 117.373 201 117.163C201.422 107.727 202.9 96.404 209.443 83.8228C216.408 70.4028 225.484 62.4347 228.227 60.1281C246.801 44.8209 267.275 43.5628 274.873 43.1434C279.727 42.9338 288.592 42.5144 299.357 45.6597C300.834 45.45 302.311 46.0791 304 46.7081Z" fill="#FC6733"/>
<path d="M301.747 50.9209C302.801 51.1317 303.644 67.5767 297.109 83.3892C294.368 66.9442 300.693 50.9209 301.747 50.9209Z" fill="#FC6733"/>
<path d="M293.393 346.924C297.455 362.087 301.292 374.513 304 383.569C300.615 387.36 296.778 391.362 291.813 395.574C285.72 400.839 279.852 404.841 274.661 408C270.148 405.051 265.409 401.261 260.218 396.627C254.124 390.941 249.611 385.465 246 380.621C249.385 372.618 253.673 361.245 257.51 346.502C257.961 344.396 258.864 341.237 259.767 337.025C262.475 324.178 264.957 311.963 263.377 297.22C263.152 294.693 262.7 291.112 261.572 286.69C264.506 283.53 267.44 280.371 270.374 276.791C271.276 275.527 272.179 274.264 273.082 273C274.21 274.264 275.339 275.527 276.467 276.791C278.949 279.529 281.206 282.267 283.689 284.794C283.463 288.374 283.463 292.165 283.463 296.167C283.689 299.537 284.14 310.488 290.459 335.551C290.911 338.078 291.813 341.027 293.393 346.924Z" fill="#2655FF"/>
<path d="M293.313 219.588C292.892 222.118 292.47 226.756 294.367 232.027C295.843 236.455 298.373 239.617 299.849 241.304C291.416 241.304 282.772 241.093 274.127 241.093C265.272 240.882 256.207 240.882 247.352 240.671V240.25C248.827 238.141 251.357 234.346 252.201 228.865C252.833 225.281 252.622 222.329 252.201 220.221C258.315 222.751 265.483 224.437 273.495 224.226C281.296 224.016 287.832 221.907 293.313 219.166C293.524 218.956 293.313 219.377 293.313 219.588Z" fill="#E2C7B5"/>
<path d="M252.416 220.01C252.838 222.118 253.048 225.28 252.416 228.654C251.573 234.135 249.043 238.141 247.567 240.039V240.46C242.928 240.46 238.501 240.25 233.863 240.25C232.387 244.045 230.7 248.051 229.224 251.846C227.959 255.43 226.483 258.803 225.218 262.176C226.062 262.809 226.905 263.441 227.748 264.074C218.05 270.399 203.503 279.254 184.528 287.687C180.311 289.585 175.251 291.693 164.92 295.699C131.398 308.981 113.266 315.306 106.941 324.794C103.567 329.854 98.5075 343.347 98.2966 344.191C98.2966 344.191 96.3991 349.04 92.8149 359.371C90.9174 364.641 88.5983 371.599 86.0683 380.032C78.2675 335.125 85.6466 316.361 94.7125 307.927C97.6642 305.186 105.465 298.44 110.947 286.844C114.109 280.308 114.952 272.929 115.374 265.76C116.639 241.936 113.266 218.112 114.109 194.288C115.163 170.464 121.277 145.375 138.566 128.719C143.626 123.87 149.529 119.864 154.378 114.804C166.818 117.545 179.257 120.285 191.696 123.026C190.853 124.924 190.22 127.032 189.588 129.351C187.901 128.93 183.263 128.297 178.624 131.038C175.673 132.725 174.408 135.044 173.353 136.52C168.293 145.164 170.191 156.127 173.986 161.609C175.673 164.139 177.992 165.615 178.203 165.825C179.257 166.669 181.154 167.934 183.895 168.145C186.636 168.566 188.744 167.723 189.798 167.301H190.009C191.274 172.361 193.383 176.578 196.967 177.421C202.027 178.686 207.719 171.729 209.617 169.62C213.833 181.005 218.05 191.969 228.381 202.51C231.122 206.095 239.766 214.739 252.416 220.01Z" fill="#FC6733"/>
<path d="M226.845 363.535C227.081 369.395 227.081 374.418 226.608 378.883C209.588 379.72 209.588 379.72 209.588 379.72C180.039 381.116 163.255 388.092 159.473 380.557C159 379.72 159 375.813 159 368.279C159 360.186 159 356.279 159.709 354.884C162.782 348.186 174.838 350.14 190.913 350.698C198.95 350.977 210.77 351.256 225.19 350.14C225.899 354.047 226.608 358.512 226.845 363.535Z" fill="#FF6633"/>
<path d="M213.197 127.875C216.992 136.52 216.359 144.953 216.149 149.17C215.516 155.073 214.884 162.663 209.191 169.41C208.98 168.988 208.77 168.356 208.559 167.723C201.601 148.748 200.758 132.514 200.758 124.924C204.974 126.189 208.98 127.032 213.197 127.875Z" fill="black"/>
<path d="M213.197 127.876C208.98 127.032 204.974 125.978 200.758 125.135C200.758 123.448 200.758 122.183 200.758 121.34C200.758 119.864 200.969 118.177 200.969 116.491C202.444 116.702 203.499 117.123 203.92 117.123C204.974 117.545 208.769 119.021 212.354 125.767C212.564 126.822 212.986 127.454 213.197 127.876Z" fill="black"/>
<path d="M188.952 129.351C189.584 127.032 190.217 124.923 191.06 123.026C194.223 123.658 197.385 124.502 200.758 125.134C200.758 132.724 201.602 148.958 208.559 167.933C208.77 168.355 208.981 168.988 209.192 169.62C207.294 171.728 201.602 178.686 196.542 177.421C192.958 176.578 190.849 172.361 189.584 167.301C188.108 161.398 187.687 154.651 187.476 151.699C187.054 145.374 187.265 136.519 188.952 129.351Z" fill="black"/>
<path d="M193.589 119.231C194.643 118.177 195.697 117.544 196.962 117.123C198.227 116.701 199.703 116.701 200.968 116.912C200.968 118.599 200.757 120.074 200.757 121.761C200.757 122.604 200.757 123.869 200.757 125.556C197.594 124.924 194.432 124.08 191.059 123.448C191.902 121.55 192.745 120.285 193.589 119.231Z" fill="black"/>
<path d="M189.584 167.301C188.319 167.723 186.211 168.566 183.47 168.145C180.729 167.723 178.832 166.458 177.778 165.826C177.778 165.826 175.458 164.139 173.561 161.609C169.766 156.127 167.658 145.164 172.928 136.52C173.772 135.044 175.248 132.725 178.199 131.038C182.838 128.297 187.687 129.141 189.163 129.351C187.476 136.52 187.265 145.375 187.476 151.7C187.687 154.862 187.898 161.609 189.584 167.301Z" fill="black"/>
<path d="M209.191 169.621C213.408 181.006 217.624 191.969 227.955 202.511C231.329 205.884 239.973 214.739 252.623 220.01C258.737 222.54 265.905 224.227 273.917 224.016C281.718 223.805 288.254 221.697 293.735 218.956C298.163 216.847 301.958 214.317 305.331 212.209C323.252 200.613 332.95 183.957 338.221 172.572C339.486 169.832 340.54 167.302 341.384 165.404C343.914 159.079 345.39 154.23 345.811 152.543C347.92 144.953 348.974 137.785 349.185 131.249C349.395 126.4 349.395 121.972 349.185 118.177C348.552 108.268 346.865 101.1 346.022 98.359C342.86 86.9739 338.643 70.3181 323.463 57.8789C316.505 51.9756 308.915 48.6022 303.645 46.7047C301.958 46.0722 300.271 45.6506 299.217 45.2289C288.465 42.0664 279.61 42.4881 274.76 42.6989C267.17 43.1206 246.72 44.5964 228.166 59.7764C225.425 62.0956 216.36 70.1073 209.402 83.6006C203.077 96.2506 201.601 107.636 200.969 117.123C200.969 118.81 200.758 120.286 200.758 121.972C200.758 122.816 200.758 124.081 200.758 125.767C200.758 133.357 201.601 149.592 208.559 168.567C208.77 168.567 208.98 169.199 209.191 169.621Z" stroke="black" stroke-miterlimit="10" stroke-linecap="round" stroke-linejoin="round"/>
<path d="M406.535 117.545C406.535 121.129 406.535 124.502 406.957 128.087C408.222 137.785 412.228 147.062 418.342 154.441C422.348 159.29 427.197 163.296 431.203 167.934C444.907 183.114 450.389 205.252 445.75 225.07C443.642 233.925 440.479 246.575 437.528 255.219C434.576 263.863 432.679 273.562 435.841 282.206C438.16 288.742 443.009 293.802 447.437 299.283C460.087 314.885 466.834 333.228 468.52 344.823C471.261 365.274 461.774 383.195 453.762 394.58C453.551 394.791 453.551 395.002 453.34 395.002" stroke="black" stroke-miterlimit="10" stroke-linecap="round" stroke-linejoin="round"/>
<path d="M85.6464 380.243C77.8456 335.336 85.2248 316.572 94.2906 308.138C97.2423 305.397 105.043 298.651 110.525 287.055C113.687 280.519 114.531 273.14 114.952 265.971C116.217 242.147 112.844 218.323 113.687 194.499C114.741 170.675 120.856 145.586 138.144 128.93C143.204 124.081 149.107 120.075 153.956 115.015C155.221 113.75 156.487 112.274 157.752 110.587C170.823 92.6663 164.287 67.3663 170.612 46.0721C179.046 17.6096 218.05 -0.732939 252.205 1.3754C283.619 3.2729 304.07 22.8804 309.763 28.7838C317.774 27.9404 367.742 22.6696 394.939 52.3971C398.734 56.6138 403.583 61.6738 406.535 69.8963C412.017 84.8655 407.378 101.31 406.746 117.334" stroke="black" stroke-miterlimit="10" stroke-linecap="round" stroke-linejoin="round"/>
<path d="M316.716 264.706C317.349 264.074 317.981 263.441 318.614 262.809C316.927 259.435 315.241 255.43 313.765 251.002C312.5 247.418 311.656 244.255 311.024 241.093C307.229 241.093 303.645 241.093 299.85 241.093C291.416 241.093 282.772 240.882 274.128 240.882C265.273 240.671 256.207 240.671 247.352 240.46C242.714 240.46 238.286 240.25 233.648 240.25C232.172 244.045 230.486 248.05 229.01 251.845C227.745 255.43 226.269 258.803 225.004 262.176C225.847 262.809 226.691 263.441 227.534 264.074C231.961 267.658 237.232 272.718 241.871 279.675C246.298 286 249.039 292.115 250.726 296.753C254.099 293.801 257.261 290.639 260.635 287.055C263.376 283.892 266.116 280.73 268.857 277.145C269.701 275.88 270.544 274.615 271.387 273.35C272.441 274.615 273.496 275.88 274.55 277.145C276.869 279.886 278.977 282.627 281.296 285.157C284.67 288.952 287.832 292.536 291.206 296.12C294.368 290.85 298.163 285.157 303.012 279.254C307.651 273.772 312.289 268.923 316.716 264.706Z" stroke="black" stroke-miterlimit="10" stroke-linecap="round" stroke-linejoin="round"/>
<path d="M372.17 130.406C368.164 131.039 364.158 131.46 360.152 131.671C356.357 131.882 352.773 131.671 349.189 131.249C344.34 130.617 339.701 129.563 335.274 127.876C330.003 125.979 324.943 123.449 320.516 120.075C318.196 118.389 300.908 104.895 297.324 83.3902C294.583 66.9452 300.908 50.9219 301.962 50.9219C303.016 51.1327 303.86 67.5777 297.324 83.3902C288.89 103.841 271.391 114.594 265.91 117.756C245.037 130.195 224.375 129.352 216.364 128.719C215.31 128.509 214.255 128.298 213.412 128.087C209.195 127.244 205.19 126.189 200.973 125.346C197.81 124.714 194.648 123.87 191.275 123.238C178.835 120.497 166.396 117.756 153.957 115.015" stroke="black" stroke-miterlimit="10" stroke-linecap="round" stroke-linejoin="round"/>
<path d="M406.534 117.545C395.36 124.081 383.553 128.508 372.168 130.406" stroke="black" stroke-miterlimit="10" stroke-linecap="round" stroke-linejoin="round"/>
<path d="M260.633 287.266C261.688 291.693 262.109 295.278 262.32 297.808C263.796 312.566 261.477 324.794 258.947 337.655C258.103 341.872 257.471 345.034 256.838 347.143C253.254 361.901 249.248 373.497 246.086 381.298C249.248 386.147 253.676 391.628 259.368 397.321C264.007 401.959 268.645 405.754 272.862 408.706C277.711 405.544 283.193 401.538 288.885 396.267C293.313 392.05 297.108 388.044 300.27 384.249C297.74 375.394 294.156 362.955 290.361 347.564C288.885 341.661 288.042 338.709 287.62 336.601C281.717 311.301 281.295 300.548 281.084 297.175C280.873 293.38 281.084 289.585 281.295 285.79" stroke="black" stroke-miterlimit="10" stroke-linecap="round" stroke-linejoin="round"/>
<path d="M227.746 264.285C218.048 270.61 203.5 279.465 184.525 287.898C180.309 289.796 175.249 291.904 164.918 295.91C131.395 309.193 113.264 315.518 106.939 325.005C103.565 330.065 98.5052 343.559 98.2944 344.402C98.2944 344.402 96.3968 349.251 92.8127 359.582C90.9152 364.853 88.596 371.81 86.066 380.244C83.536 388.255 80.5843 397.954 77.211 408.917C133.082 418.194 199.916 425.151 274.973 425.151C343.072 425.151 404.003 419.248 456.079 411.447" stroke="black" stroke-miterlimit="10" stroke-linecap="round" stroke-linejoin="round"/>
<path d="M317.77 265.761C330.209 276.092 341.172 282.838 349.184 287.055C384.604 305.819 412.012 304.343 430.987 324.373C440.686 334.703 445.113 346.721 445.113 346.721C446.378 352.413 447.643 358.106 448.697 363.798C450.805 374.34 452.492 384.46 453.757 394.369C454.6 400.062 455.233 405.754 455.865 411.236" stroke="black" stroke-miterlimit="10" stroke-linecap="round" stroke-linejoin="round"/>
<path d="M159 367.193C159 374.234 159 377.885 159.459 378.667C163.133 385.969 179.667 379.189 208.142 377.885C208.142 377.885 208.142 377.885 224.675 377.102C224.905 372.93 225.135 368.236 224.905 362.76C224.675 358.066 223.986 353.893 223.297 350.242C209.29 351.285 197.808 351.025 190.001 350.764C174.156 349.981 162.674 348.417 159.689 354.676C159 355.979 159 359.891 159 367.193Z" stroke="black" stroke-miterlimit="10" stroke-linecap="round" stroke-linejoin="round"/>
<path d="M252.412 220.01C252.833 222.119 253.044 225.281 252.412 228.654C251.568 234.136 249.038 238.142 247.562 240.039" stroke="black" stroke-miterlimit="10" stroke-linecap="round" stroke-linejoin="round"/>
<path d="M293.524 218.745C293.524 218.955 293.524 219.166 293.313 219.588C292.891 222.118 292.469 226.756 294.367 232.027C295.843 236.455 298.373 239.617 299.849 241.304" stroke="black" stroke-miterlimit="10" stroke-linecap="round" stroke-linejoin="round"/>
<path d="M189.586 167.302C190.851 172.362 192.959 176.578 196.543 177.422C201.603 178.687 207.296 171.729 209.193 169.621C214.886 162.663 215.518 155.073 216.151 149.381C216.573 145.164 217.205 136.731 213.199 128.087C212.988 127.454 212.567 126.822 212.356 126.4C208.772 119.653 204.977 118.178 203.923 117.756C203.501 117.545 202.447 117.334 200.971 117.123C199.706 116.913 198.441 116.913 196.965 117.334C195.7 117.756 194.646 118.388 193.592 119.443C192.538 120.497 191.694 121.762 191.062 123.448C190.218 125.346 189.586 127.454 188.953 129.773C187.267 136.942 187.056 145.797 187.267 152.122C187.688 154.863 187.899 161.609 189.586 167.302Z" stroke="black" stroke-miterlimit="10" stroke-linecap="round" stroke-linejoin="round"/>
<path d="M188.953 129.351C187.266 128.93 182.417 128.297 177.99 131.038C175.038 132.725 173.773 135.044 172.719 136.52C167.659 145.164 169.556 156.127 173.351 161.609C175.038 164.139 177.357 165.615 177.568 165.826C178.622 166.669 180.52 167.934 183.26 168.145C186.001 168.566 188.11 167.723 189.164 167.301" stroke="black" stroke-miterlimit="10" stroke-linecap="round" stroke-linejoin="round"/>
<path d="M338.012 172.573C338.434 172.994 338.855 173.416 339.277 173.838C340.542 175.103 343.494 177.843 347.289 177.843C354.457 177.633 358.885 167.091 359.517 165.826C360.571 163.085 360.993 157.603 361.415 146.64C361.415 144.11 361.836 137.996 360.15 131.46C359.939 131.038 359.939 130.406 359.728 129.984C359.517 128.93 359.095 128.087 358.885 127.454C358.463 126.4 357.83 124.924 356.776 123.448C355.511 121.34 353.403 119.021 350.451 118.178C350.451 118.178 349.819 117.967 348.975 117.967C347.5 117.756 345.391 117.756 343.072 118.599C339.91 119.864 336.958 123.238 335.06 127.876C329.368 140.315 328.946 161.82 338.012 172.573Z" stroke="black" stroke-miterlimit="10" stroke-linecap="round" stroke-linejoin="round"/>
<path d="M358.672 127.454C360.359 127.033 366.051 126.189 370.689 129.352C371.111 129.773 371.533 129.984 371.954 130.406C377.014 134.833 377.014 142.423 377.014 146.218C377.014 148.748 377.014 153.387 375.117 157.603C374.274 159.712 372.798 161.82 370.479 163.507C366.051 166.669 360.991 166.248 359.094 166.037" stroke="black" stroke-miterlimit="10" stroke-linecap="round" stroke-linejoin="round"/>
<path d="M193.804 120.286C193.804 119.864 193.804 119.442 193.593 119.232C192.961 110.166 192.961 94.3532 200.761 77.4865C203.081 72.6373 207.93 62.0956 218.471 52.3973C231.754 40.169 246.091 36.5848 253.891 34.6873C263.168 32.3681 289.522 26.0431 315.666 40.5906C334.851 51.1323 343.707 67.3665 347.08 73.9023C358.465 95.1965 357.622 115.437 356.778 123.659" stroke="black" stroke-miterlimit="10" stroke-linecap="round" stroke-linejoin="round"/>
<path d="M375.963 157.814C376.806 162.241 381.444 190.915 363.313 207.992C357.198 213.896 350.452 216.215 344.759 218.323C324.73 225.492 305.544 222.751 293.105 219.588C292.894 219.588 292.473 219.377 292.262 219.377" stroke="black" stroke-miterlimit="10" stroke-linecap="round" stroke-linejoin="round"/>
<path d="M257.684 181.427C260.214 189.017 267.382 193.656 274.55 192.813C280.454 192.18 285.514 187.753 287.411 181.849" stroke="black" stroke-miterlimit="10" stroke-linecap="round" stroke-linejoin="round"/>
<path opacity="0.4" d="M191.842 357.006V360.915L196.065 364.825L200.288 360.915V357.006L196.065 360.915L191.842 357.006Z" fill="white" fill-opacity="0.85"/>
<path opacity="0.6" d="M184 364.825H187.922L191.843 360.915L187.922 357.006H184L187.922 360.915L184 364.825Z" fill="white" fill-opacity="0.9"/>
<path d="M200.288 364.825H196.065L191.842 369.036L196.065 373.246H200.288L196.065 369.036L200.288 364.825Z" fill="white"/>
<path opacity="0.8" d="M191.843 373.246V369.036L187.922 364.825L184 369.036V373.246L187.922 369.036L191.843 373.246Z" fill="white" fill-opacity="0.95"/>
</svg>
