<svg width="559" height="610" viewBox="0 0 559 610" fill="none" xmlns="http://www.w3.org/2000/svg">
<circle cx="510.946" cy="147.946" r="46.9461" fill="#405C9A"/>
<path d="M536.298 148.22H531.833V138.987C531.833 138.945 531.828 138.903 531.826 138.861V130.876H521.669L513.026 122.595L506.356 128.902L502.893 125.324L497.45 130.882C497.418 130.878 497.386 130.876 497.353 130.876H486.535L486.536 141.068C486.536 141.096 486.537 141.125 486.54 141.152V172.501H531.833V160.892L536.298 160.892C536.298 160.892 536.298 160.5 536.298 160.017V148.22ZM530.075 132.627V136.611H527.404L523.42 132.627H530.075ZM513.026 124.709L524.928 136.611H522.271L511.697 126.037L513.026 124.709ZM510.459 127.275L519.795 136.611H514.065L507.594 130.14L510.459 127.275ZM502.893 127.915L505.118 130.14L506.356 131.378L511.589 136.611H509.203L501.7 129.108L502.893 127.915ZM506.727 136.611H494.197L500.462 130.346L506.727 136.611ZM491.721 136.611H488.286V132.627H495.705L491.721 136.611ZM530.082 170.751H488.291L488.286 138.362H530.075L530.075 141.068C530.075 141.102 530.078 141.136 530.082 141.169V148.22H522.125C518.632 148.22 515.789 151.062 515.789 154.556C515.789 158.05 518.632 160.892 522.125 160.892H530.082V170.751ZM534.547 159.142H531.833H530.082H522.125C519.597 159.142 517.54 157.084 517.54 154.556C517.54 152.028 519.597 149.971 522.125 149.971H530.082H531.833H534.547V159.142Z" fill="#DEEFFF"/>
<path d="M522.169 151.555C520.514 151.555 519.168 152.902 519.168 154.556C519.168 156.211 520.514 157.558 522.169 157.558C523.824 157.558 525.171 156.211 525.171 154.556C525.171 152.902 523.824 151.555 522.169 151.555ZM522.169 155.807C521.48 155.807 520.919 155.246 520.919 154.556C520.919 153.867 521.48 153.306 522.169 153.306C522.859 153.306 523.42 153.867 523.42 154.556C523.42 155.246 522.859 155.807 522.169 155.807Z" fill="#DEEFFF"/>
<circle cx="369.068" cy="45.0682" r="45.0682" fill="#405C9A"/>
<path d="M377.516 30.0456V24.4121H361.555V30.0456" stroke="#DEEFFF" stroke-width="2"/>
<path d="M343.778 31.0459H395.296V64.7249H343.778V31.0459Z" stroke="#DEEFFF" stroke-width="2"/>
<path d="M345.594 31.9233L366.25 46.9461" stroke="#DEEFFF" stroke-width="2" stroke-linecap="square"/>
<path d="M393.48 31.9233L372.824 46.9461" stroke="#DEEFFF" stroke-width="2" stroke-linecap="square"/>
<path d="M367.25 45.1294H371.822V52.5186H367.25V45.1294Z" stroke="#DEEFFF" stroke-width="2"/>
<circle cx="207.068" cy="56.0682" r="45.0682" fill="#405C9A"/>
<path fill-rule="evenodd" clip-rule="evenodd" d="M214.709 36.3501V74.857L185.796 62.3947V48.8146L214.709 36.3501ZM187.318 49.8036V61.4056L213.187 72.5561V38.6512L187.318 49.8036ZM214.709 50.3236C215.969 50.3236 217.142 50.9202 217.983 51.9205C218.821 52.9169 219.274 54.2432 219.274 55.6036C219.274 56.964 218.821 58.2903 217.983 59.2867C217.142 60.287 215.969 60.8836 214.709 60.8836V59.375C215.466 59.375 216.228 59.018 216.814 58.3209C217.404 57.6198 217.752 56.6438 217.752 55.6036C217.752 54.5634 217.404 53.5874 216.814 52.8863C216.228 52.1892 215.466 51.8321 214.709 51.8321V50.3236ZM175.145 51.8321C175.145 50.1658 176.507 48.815 178.188 48.815L185.796 48.8146V50.3236H178.188C177.348 50.3236 176.666 50.999 176.666 51.8321V59.375C176.666 60.2082 177.348 60.8836 178.188 60.8836H185.796V62.3922H178.188C176.507 62.3922 175.145 61.0414 175.145 59.375V51.8321ZM181.231 75.2151V62.3922H179.71V76.7237H185.796V62.3922H184.275V75.2151H181.231ZM187.318 71.4437H185.796V72.9523H188.84V66.1637H185.796V67.6723H187.318V71.4437Z" fill="#DEEFFF"/>
<path d="M220.06 38.0488L226.289 38.7645L229.088 33.3859M219.262 37.8057L229.352 32.5942L232.826 39.3208L222.736 44.5323L219.262 37.8057Z" stroke="#DEEFFF" stroke-width="1.5" stroke-linecap="square"/>
<path d="M232.03 72.1181L225.801 72.8338L223.002 67.4553M232.828 71.875L222.738 66.6635L219.264 73.3902L229.354 78.6016L232.828 71.875Z" stroke="#DEEFFF" stroke-width="1.5" stroke-linecap="square"/>
<path d="M226.352 51.2988H237.708V59.5006H235.5L234.553 61.3934L232.345 59.5006H226.352V51.2988Z" stroke="#DEEFFF" stroke-width="1.5"/>
<circle cx="400.068" cy="288.068" r="45.0682" fill="#405C9A"/>
<path d="M406.916 277.552H393.219V267.412H429.174V293.502H422.183L419.187 299.523L412.195 293.502H406.916V277.552ZM406.916 277.552H370.961V303.643H377.952L380.948 309.664L387.94 303.643H406.916V277.552ZM376.097 285.158H401.78M412.053 275.017H424.038M376.097 290.228H401.78M412.053 280.088H424.038M412.053 285.158H424.038M376.097 295.298H391.935" stroke="white" stroke-width="2" stroke-linecap="square"/>
<rect opacity="0.3" x="28" y="198" width="296" height="288" fill="url(#paint0_linear_860_1185)"/>
<path opacity="0.3" d="M21.8837 176.776C21.4153 173.185 24.2115 170 27.8333 170H324.264C327.852 170 330.637 173.127 330.224 176.691L328.369 192.691C328.019 195.717 325.456 198 322.409 198H29.9201C26.9064 198 24.3603 195.764 23.9705 192.776L21.8837 176.776Z" fill="#94C2FF"/>
<path opacity="0.3" fill-rule="evenodd" clip-rule="evenodd" d="M70.0898 248.447C70.0898 238.483 77.5486 230.261 87.1875 229.059V253.333H70.0898V248.447ZM70.0898 258.218V280.368C70.0898 282.073 71.4722 283.456 73.1774 283.456H106.081C107.786 283.456 109.169 282.073 109.169 280.368V258.218H92.0724V283.455H87.1875V258.218H70.0898ZM92.0724 253.333H109.169V248.447C109.169 238.483 101.711 230.261 92.0724 229.059V253.333Z" fill="#DEEFFF"/>
<path opacity="0.3" fill-rule="evenodd" clip-rule="evenodd" d="M70.0898 338.818C70.0898 328.854 77.5486 320.631 87.1875 319.43V343.703H70.0898V338.818ZM70.0898 348.588V370.739C70.0898 372.444 71.4722 373.826 73.1774 373.826H106.081C107.786 373.826 109.169 372.444 109.169 370.739V348.588H92.0724V373.826H87.1875V348.588H70.0898ZM92.0724 343.703H109.169V338.818C109.169 328.854 101.711 320.632 92.0724 319.43V343.703Z" fill="#DEEFFF"/>
<path opacity="0.3" fill-rule="evenodd" clip-rule="evenodd" d="M70.0898 429.188C70.0898 419.224 77.5486 411.001 87.1875 409.8V434.074H70.0898V429.188ZM70.0898 438.958V461.109C70.0898 462.814 71.4722 464.196 73.1774 464.196H106.081C107.786 464.196 109.169 462.814 109.169 461.109V438.958H92.0724V464.196H87.1875V438.958H70.0898ZM92.0724 434.074H109.169V429.188C109.169 419.224 101.711 411.002 92.0724 409.8V434.074Z" fill="#DEEFFF"/>
<path opacity="0.3" fill-rule="evenodd" clip-rule="evenodd" d="M157.203 248.447C157.203 238.483 164.662 230.261 174.301 229.059V253.333H157.203V248.447ZM157.203 258.218V280.368C157.203 282.073 158.585 283.456 160.291 283.456H193.194C194.9 283.456 196.282 282.073 196.282 280.368V258.218H179.186V283.455H174.301V258.218H157.203ZM179.186 253.333H196.282V248.447C196.282 238.483 188.824 230.261 179.186 229.059V253.333Z" fill="#DEEFFF"/>
<path opacity="0.3" fill-rule="evenodd" clip-rule="evenodd" d="M157.203 338.818C157.203 328.854 164.662 320.631 174.301 319.43V343.703H157.203V338.818ZM157.203 348.588V370.739C157.203 372.444 158.585 373.826 160.291 373.826H193.194C194.9 373.826 196.282 372.444 196.282 370.739V348.588H179.186V373.826H174.301V348.588H157.203ZM179.186 343.703H196.282V338.818C196.282 328.854 188.824 320.632 179.186 319.43V343.703Z" fill="#DEEFFF"/>
<path opacity="0.3" fill-rule="evenodd" clip-rule="evenodd" d="M244.316 248.447C244.316 238.483 251.775 230.261 261.414 229.059V253.333H244.316V248.447ZM244.316 258.218V280.368C244.316 282.073 245.699 283.456 247.404 283.456H280.308C282.013 283.456 283.395 282.073 283.395 280.368V258.218H266.299V283.455H261.414V258.218H244.316ZM266.299 253.333H283.395V248.447C283.395 238.483 275.937 230.261 266.299 229.059V253.333Z" fill="#DEEFFF"/>
<path opacity="0.3" fill-rule="evenodd" clip-rule="evenodd" d="M244.316 338.818C244.316 328.854 251.775 320.631 261.414 319.43V343.703H244.316V338.818ZM244.316 348.588V370.739C244.316 372.444 245.699 373.826 247.404 373.826H280.308C282.013 373.826 283.395 372.444 283.395 370.739V348.588H266.299V373.826H261.414V348.588H244.316ZM266.299 343.703H283.395V338.818C283.395 328.854 275.937 320.632 266.299 319.43V343.703Z" fill="#DEEFFF"/>
<path d="M278.183 459.11C278.393 459.037 278.614 459 278.836 459H400.509C402.752 459 403.296 462.125 401.185 462.882L373.328 472.882C373.111 472.96 372.882 473 372.652 473H249.907C247.651 473 247.122 469.847 249.254 469.11L278.183 459.11Z" fill="#AFAFAF"/>
<path d="M0 479C0 475.686 2.68629 473 6 473H480C483.314 473 486 475.686 486 479V610H0V479Z" fill="#405C9A"/>
<path d="M362.653 398.589C363.174 397.611 364.192 397 365.301 397H492.089C494.332 397 495.782 399.373 494.758 401.37L458.837 471.37C458.323 472.371 457.293 473 456.168 473H327.998C325.734 473 324.286 470.587 325.351 468.589L362.653 398.589Z" fill="#D9D9D9"/>
<circle cx="412.5" cy="435.5" r="6.5" fill="white"/>
<path d="M447.472 312.837C475.46 342.293 480.834 358.494 473.013 387.028" stroke="white" stroke-dasharray="6 6"/>
<path d="M256.002 82.1292C376.735 120.196 511.347 228.752 488.442 386.816" stroke="white" stroke-dasharray="6 6"/>
<path d="M510.215 206C287 191 287.5 337.5 436.953 386.911" stroke="white" stroke-opacity="0.6" stroke-dasharray="6 6"/>
<path d="M406.5 86.9998C441.999 185.5 534.999 339.5 380.499 386.5" stroke="white" stroke-opacity="0.6" stroke-dasharray="6 6"/>
<defs>
<linearGradient id="paint0_linear_860_1185" x1="176.408" y1="384.425" x2="347.72" y2="523.032" gradientUnits="userSpaceOnUse">
<stop offset="0.000935172" stop-color="#2655FF"/>
<stop offset="1" stop-color="#1C306F" stop-opacity="0.8"/>
</linearGradient>
</defs>
</svg>
