<svg width="476" height="201" viewBox="0 0 476 201" fill="none" xmlns="http://www.w3.org/2000/svg">
<rect x="0.5" y="0.5" width="279.452" height="168.254" fill="white"/>
<g clip-path="url(#clip0_1005_3114)">
<rect x="15.9441" y="15.944" width="13.8999" height="13.8999" rx="2.86175" stroke="#222222" stroke-opacity="0.2" stroke-width="0.817643"/>
<path d="M18.8058 20.4411C18.8058 19.5379 19.538 18.8058 20.4411 18.8058H25.347C26.2501 18.8058 26.9823 19.5379 26.9823 20.4411V25.3469C26.9823 26.2501 26.2501 26.9822 25.347 26.9822H20.4411C19.538 26.9822 18.8058 26.2501 18.8058 25.3469V20.4411Z" fill="#FC6733"/>
</g>
<path d="M47.0424 18.8811H45.6L43.5167 22.6586L41.4104 18.8811H39.9567L42.7955 24.0552L41.2502 26.894H42.6925L47.0424 18.8811ZM56.8263 20.5982L54.9605 23.1852L53.1061 20.5982H51.5836V26.894H52.8771V24.2612L52.7855 22.0749L54.949 25.1541H54.9834L57.1469 22.0749L57.0553 24.2612V26.894H58.3488V20.5982H56.8263ZM62.9008 20.4608C61.0006 20.4608 59.6498 21.8574 59.6498 23.7576C59.6498 25.6578 61.012 27.0314 62.9237 27.0314C64.263 27.0314 65.4649 26.3675 65.9571 24.9595H64.6178C64.3202 25.5776 63.6906 25.8982 62.9351 25.8982C61.882 25.8982 61.0692 25.2571 60.9662 24.101H66.083C66.2089 22.0291 64.9269 20.4608 62.9008 20.4608ZM62.9008 21.5826C63.8509 21.5826 64.5033 22.1893 64.6979 23.0478H61.0349C61.2524 22.2008 61.9163 21.5826 62.9008 21.5826ZM71.9816 20.5982V23.0707H68.6391V20.5982H67.3456V26.894H68.6391V24.2956H71.9816V26.894H73.2751V20.5982H71.9816ZM76.9086 20.5982C75.6151 20.5982 74.6192 21.2507 74.6192 22.7044C74.6192 23.7576 75.2717 24.307 76.1416 24.5245L74.2987 26.894H75.8898L77.5267 24.6161H78.7744V26.894H80.068V20.5982H76.9086ZM77.0116 23.5515C76.2447 23.5515 75.9241 23.1967 75.9241 22.6815C75.9241 22.155 76.176 21.7658 76.9773 21.7658H78.7744V23.5515H77.0116ZM88.0529 20.4608C86.1527 20.4608 84.8019 21.8574 84.8019 23.7576C84.8019 25.6578 86.1641 27.0314 88.0758 27.0314C89.4151 27.0314 90.617 26.3675 91.1092 24.9595H89.7699C89.4723 25.5776 88.8427 25.8982 88.0872 25.8982C87.0341 25.8982 86.2214 25.2571 86.1183 24.101H91.2351C91.3611 22.0291 90.079 20.4608 88.0529 20.4608ZM88.0529 21.5826C89.003 21.5826 89.6555 22.1893 89.8501 23.0478H86.187C86.4045 22.2008 87.0684 21.5826 88.0529 21.5826ZM95.5541 27.0314C97.0307 27.0314 98.3586 26.15 98.6562 24.5932H97.3169C97.0765 25.3716 96.3782 25.8295 95.5541 25.8295C94.4208 25.8295 93.5966 24.9709 93.5966 23.7461C93.5966 22.5327 94.3979 21.6628 95.5655 21.6628C96.3782 21.6628 97.0765 22.0977 97.3169 22.8876H98.6562C98.37 21.3651 97.0536 20.4608 95.5655 20.4608C93.6882 20.4608 92.2917 21.8688 92.2917 23.7461C92.2917 25.6234 93.6882 27.0314 95.5541 27.0314ZM104.63 20.5982H102.581H99.2272V21.8116H101.288V26.894H102.581V21.8116H104.63V20.5982ZM108.769 22.5671H106.949V20.5982H105.655V26.894H108.723C110.016 26.894 111.024 26.1958 111.024 24.6848C111.024 23.1738 110.062 22.5671 108.769 22.5671ZM108.689 25.6578H106.949V23.7118H108.7C109.49 23.7118 109.719 24.101 109.719 24.6848C109.719 25.2457 109.478 25.6578 108.689 25.6578ZM121.599 20.5982H117.054H115.761V26.894H117.054V21.8116H120.305V26.894H121.599V20.5982ZM126.654 20.4608C125.658 20.4608 124.902 20.953 124.445 21.6742V20.5982H123.151V29.7558H124.445V25.8409C124.902 26.5506 125.658 27.0314 126.642 27.0314C128.325 27.0314 129.55 25.6692 129.55 23.7461C129.55 21.823 128.302 20.4608 126.654 20.4608ZM126.368 25.7951C125.269 25.7951 124.433 24.9595 124.433 23.7461C124.433 22.5442 125.269 21.6971 126.368 21.6971C127.467 21.6971 128.245 22.5442 128.245 23.7461C128.245 24.9595 127.455 25.7951 126.368 25.7951ZM133.908 20.4608C132.111 20.4608 130.646 21.8459 130.646 23.7461C130.646 25.6234 132.088 27.0314 133.908 27.0314C135.74 27.0314 137.171 25.6349 137.171 23.7461C137.171 21.8459 135.717 20.4608 133.908 20.4608ZM133.908 21.6971C134.996 21.6971 135.866 22.5327 135.866 23.7461C135.866 24.9595 135.007 25.7951 133.908 25.7951C132.809 25.7951 131.951 24.9595 131.951 23.7461C131.951 22.5327 132.821 21.6971 133.908 21.6971ZM143.707 20.5982L141.841 23.1852L139.987 20.5982H138.465V26.894H139.758V24.2612L139.667 22.0749L141.83 25.1541H141.864L144.028 22.0749L143.936 24.2612V26.894H145.23V20.5982H143.707ZM149.793 20.4608C147.996 20.4608 146.531 21.8459 146.531 23.7461C146.531 25.6234 147.973 27.0314 149.793 27.0314C151.625 27.0314 153.056 25.6349 153.056 23.7461C153.056 21.8459 151.602 20.4608 149.793 20.4608ZM149.793 21.6971C150.881 21.6971 151.751 22.5327 151.751 23.7461C151.751 24.9595 150.892 25.7951 149.793 25.7951C148.694 25.7951 147.836 24.9595 147.836 23.7461C147.836 22.5327 148.706 21.6971 149.793 21.6971ZM160.279 26.894L156.948 23.5859L160.027 20.5982H158.367L155.643 23.3226V20.5982H154.35V26.894H155.643V23.9865L158.608 26.894H160.279ZM163.7 20.4608C161.902 20.4608 160.437 21.8459 160.437 23.7461C160.437 25.6234 161.879 27.0314 163.7 27.0314C165.531 27.0314 166.962 25.6349 166.962 23.7461C166.962 21.8459 165.508 20.4608 163.7 20.4608ZM163.7 21.6971C164.787 21.6971 165.657 22.5327 165.657 23.7461C165.657 24.9595 164.798 25.7951 163.7 25.7951C162.601 25.7951 161.742 24.9595 161.742 23.7461C161.742 22.5327 162.612 21.6971 163.7 21.6971ZM174.149 25.6807V20.5982H169.651L169.09 24.0895C168.941 24.9824 168.758 25.4632 168.472 25.6807H167.373V28.531H168.666V26.894H174.001V28.531H175.294V25.6807H174.149ZM169.88 25.6807C170.097 25.3601 170.257 24.8794 170.372 24.1468L170.75 21.8116H172.856V25.6807H169.88Z" fill="#222222"/>
<rect x="13.0823" y="52.3292" width="254.287" height="44.972" rx="6.54115" fill="white"/>
<rect x="26.1646" y="46.6057" width="76.5411" height="12" rx="6" fill="white"/>
<path opacity="0.4" d="M33.8422 50.7653V49.8822H30.1056V55.6057H33.8422V54.7227H31.0295V53.1283H33.6378V52.2452H31.0295V50.7653H33.8422ZM36.9008 55.7038C37.9556 55.7038 38.9041 55.0742 39.1167 53.9622H38.16C37.9883 54.5182 37.4895 54.8453 36.9008 54.8453C36.0914 54.8453 35.5027 54.2321 35.5027 53.3572C35.5027 52.4905 36.075 51.8691 36.909 51.8691C37.4895 51.8691 37.9883 52.1798 38.16 52.744H39.1167C38.9122 51.6565 37.972 51.0106 36.909 51.0106C35.5681 51.0106 34.5706 52.0163 34.5706 53.3572C34.5706 54.6981 35.5681 55.7038 36.9008 55.7038ZM43.3838 51.1087H41.9202H39.5245V51.9754H40.9963V55.6057H41.9202V51.9754H43.3838V51.1087ZM46.3398 52.515H45.0398V51.1087H44.1158V55.6057H46.3071C47.2311 55.6057 47.9506 55.107 47.9506 54.0277C47.9506 52.9484 47.2638 52.515 46.3398 52.515ZM46.2826 54.7227H45.0398V53.3327H46.2908C46.8549 53.3327 47.0185 53.6107 47.0185 54.0277C47.0185 54.4283 46.8468 54.7227 46.2826 54.7227ZM55.5041 51.1087H52.258H51.3341V55.6057H52.258V51.9754H54.5801V55.6057H55.5041V51.1087ZM59.115 51.0106C58.4036 51.0106 57.864 51.3621 57.5369 51.8773V51.1087H56.613V57.6498H57.5369V54.8535C57.864 55.3604 58.4036 55.7038 59.1068 55.7038C60.3088 55.7038 61.1836 54.7308 61.1836 53.3572C61.1836 51.9836 60.2924 51.0106 59.115 51.0106ZM58.9106 54.8208C58.1257 54.8208 57.5288 54.2239 57.5288 53.3572C57.5288 52.4987 58.1257 51.8936 58.9106 51.8936C59.6955 51.8936 60.2515 52.4987 60.2515 53.3572C60.2515 54.2239 59.6874 54.8208 58.9106 54.8208ZM64.2967 51.0106C63.013 51.0106 61.9664 51.9999 61.9664 53.3572C61.9664 54.6981 62.9966 55.7038 64.2967 55.7038C65.6049 55.7038 66.627 54.7063 66.627 53.3572C66.627 51.9999 65.5886 51.0106 64.2967 51.0106ZM64.2967 51.8936C65.0734 51.8936 65.6949 52.4905 65.6949 53.3572C65.6949 54.2239 65.0816 54.8208 64.2967 54.8208C63.5117 54.8208 62.8985 54.2239 62.8985 53.3572C62.8985 52.4905 63.5199 51.8936 64.2967 51.8936ZM71.296 51.1087L69.9633 52.9565L68.6387 51.1087H67.5512V55.6057H68.4752V53.7251L68.4098 52.1634L69.9551 54.3629H69.9796L71.525 52.1634L71.4596 53.7251V55.6057H72.3835V51.1087H71.296ZM75.6431 51.0106C74.3594 51.0106 73.3128 51.9999 73.3128 53.3572C73.3128 54.6981 74.343 55.7038 75.6431 55.7038C76.9513 55.7038 77.9734 54.7063 77.9734 53.3572C77.9734 51.9999 76.935 51.0106 75.6431 51.0106ZM75.6431 51.8936C76.4198 51.8936 77.0413 52.4905 77.0413 53.3572C77.0413 54.2239 76.428 54.8208 75.6431 54.8208C74.8581 54.8208 74.2449 54.2239 74.2449 53.3572C74.2449 52.4905 74.8663 51.8936 75.6431 51.8936ZM83.133 55.6057L80.7537 53.2427L82.9531 51.1087H81.7676L79.8216 53.0547V51.1087H78.8976V55.6057H79.8216V53.5289L81.9393 55.6057H83.133ZM85.5762 51.0106C84.2925 51.0106 83.2459 51.9999 83.2459 53.3572C83.2459 54.6981 84.2761 55.7038 85.5762 55.7038C86.8844 55.7038 87.9065 54.7063 87.9065 53.3572C87.9065 51.9999 86.868 51.0106 85.5762 51.0106ZM85.5762 51.8936C86.3529 51.8936 86.9743 52.4905 86.9743 53.3572C86.9743 54.2239 86.3611 54.8208 85.5762 54.8208C84.7912 54.8208 84.178 54.2239 84.178 53.3572C84.178 52.4905 84.7994 51.8936 85.5762 51.8936ZM93.0403 54.739V51.1087H89.827L89.4263 53.6025C89.32 54.2402 89.1892 54.5837 88.9848 54.739H88.1999V56.7749H89.1238V55.6057H92.934V56.7749H93.8579V54.739H93.0403ZM89.9905 54.739C90.1458 54.5101 90.2603 54.1667 90.3421 53.6434L90.6119 51.9754H92.1164V54.739H89.9905ZM95.8794 53.8069H96.787V53.5534C96.787 53.2345 96.9751 53.0955 97.3103 52.9157C97.9317 52.5886 98.4223 52.2697 98.4223 51.4684C98.4223 50.4137 97.5883 49.7841 96.4518 49.7841C95.3316 49.7841 94.4649 50.4055 94.3913 51.6647H95.3234C95.397 50.8797 95.8467 50.6426 96.4191 50.6426C97.1386 50.6426 97.4902 51.0024 97.4902 51.493C97.4902 51.9018 97.2531 52.0571 96.7788 52.3024C96.182 52.6131 95.8794 52.793 95.8794 53.3817V53.8069ZM96.3373 55.7038C96.6889 55.7038 96.9587 55.4667 96.9587 55.1233C96.9587 54.7799 96.6889 54.551 96.3373 54.551C95.9857 54.551 95.7241 54.7799 95.7241 55.1233C95.7241 55.4667 95.9857 55.7038 96.3373 55.7038Z" fill="#222222"/>
<path d="M36.6124 78.8152L34.0139 74.7629L36.5323 70.8023H34.9984L33.2241 73.664L31.4498 70.8023H29.9044L32.3999 74.6828L29.79 78.8152H31.3239L33.1897 75.7703L35.0785 78.8152H36.6124ZM44.1469 78.8152L41.5484 74.7629L44.0667 70.8023H42.5328L40.7585 73.664L38.9842 70.8023H37.4389L39.9344 74.6828L37.3244 78.8152H38.8583L40.7242 75.7703L42.613 78.8152H44.1469ZM51.6813 78.8152L49.0828 74.7629L51.6012 70.8023H50.0673L48.293 73.664L46.5187 70.8023H44.9734L47.4688 74.6828L44.8589 78.8152H46.3928L48.2587 75.7703L50.1474 78.8152H51.6813ZM59.2158 78.8152L56.6173 74.7629L59.1356 70.8023H57.6017L55.8275 73.664L54.0532 70.8023H52.5078L55.0033 74.6828L52.3933 78.8152H53.9272L55.7931 75.7703L57.6819 78.8152H59.2158ZM66.7502 78.8152L64.1517 74.7629L66.6701 70.8023H65.1362L63.3619 73.664L61.5876 70.8023H60.0423L62.5377 74.6828L59.9278 78.8152H61.4617L63.3276 75.7703L65.2163 78.8152H66.7502ZM74.2847 78.8152L71.6862 74.7629L74.2045 70.8023H72.6706L70.8964 73.664L69.1221 70.8023H67.5767L70.0722 74.6828L67.4623 78.8152H68.9962L70.862 75.7703L72.7508 78.8152H74.2847ZM81.8191 78.8152L79.2207 74.7629L81.739 70.8023H80.2051L78.4308 73.664L76.6565 70.8023H75.1112L77.6066 74.6828L74.9967 78.8152H76.5306L78.3965 75.7703L80.2852 78.8152H81.8191ZM89.3536 78.8152L86.7551 74.7629L89.2735 70.8023H87.7396L85.9653 73.664L84.191 70.8023H82.6456L85.1411 74.6828L82.5312 78.8152H84.0651L85.9309 75.7703L87.8197 78.8152H89.3536Z" fill="#222222"/>
<rect x="13.4911" y="52.738" width="253.469" height="44.1544" rx="6.13233" stroke="#222222" stroke-opacity="0.2" stroke-width="0.817643"/>
<rect x="13.0823" y="123.466" width="254.287" height="32.7057" rx="16.3529" fill="#FC6733"/>
<path d="M114.43 135.806H109.233H107.596V143.819H109.233V137.363H112.793V143.819H114.43V135.806ZM119.638 137.386C118.757 137.386 118.082 137.798 117.647 138.404V137.523H116.01V146.68H117.647V142.972C118.093 143.567 118.745 143.956 119.638 143.956C121.275 143.956 122.512 142.605 122.512 140.671C122.512 138.725 121.252 137.386 119.638 137.386ZM119.261 142.399C118.345 142.399 117.647 141.712 117.647 140.671C117.647 139.641 118.345 138.942 119.261 138.942C120.176 138.942 120.852 139.641 120.852 140.671C120.852 141.712 120.165 142.399 119.261 142.399ZM127.798 137.523L125.211 141.598L125.291 139.755V137.523H123.655V143.819H125.543L128.142 139.721L128.039 141.587V143.819H129.676V137.523H127.798ZM136.127 137.523L134.502 139.766L132.877 137.523H130.988V143.819H132.625V141.587L132.522 139.435L134.479 142.25H134.525L136.482 139.435L136.368 141.587V143.819H138.005V137.523H136.127ZM142.452 137.386C140.529 137.386 139.167 138.793 139.167 140.682C139.167 142.56 140.518 143.956 142.487 143.956C143.837 143.956 145.097 143.304 145.566 141.815H143.872C143.654 142.319 143.105 142.605 142.475 142.605C141.628 142.605 140.941 142.102 140.838 141.094H145.669C145.829 139.022 144.536 137.386 142.452 137.386ZM142.441 138.736C143.231 138.736 143.746 139.206 143.929 139.892H140.918C141.125 139.217 141.64 138.736 142.441 138.736ZM151.248 137.523V139.847H148.42V137.523H146.783V143.819H148.42V141.392H151.248V143.819H152.885V137.523H151.248ZM158.339 137.523L155.752 141.598L155.832 139.755V137.523H154.195V143.819H156.084L158.682 139.721L158.579 141.587V143.819H160.216V137.523H158.339ZM166.645 137.523H164.699H161.127V139.068H163.062V143.819H164.699V139.068H166.645V137.523ZM170.793 139.366H169.191L169.179 137.523H167.542L167.554 143.819H170.747C171.915 143.819 173.083 143.189 173.083 141.541C173.083 139.892 171.961 139.366 170.793 139.366ZM170.69 142.262H169.191V140.808H170.69C171.24 140.808 171.434 141.083 171.434 141.541C171.434 141.964 171.24 142.262 170.69 142.262Z" fill="white"/>
<rect x="0.5" y="0.5" width="279.452" height="168.254" stroke="#FC6733" stroke-dasharray="10 10"/>
<rect x="208.5" y="76.3682" width="267" height="123.615" fill="white"/>
<path d="M234.061 96.8809H234.191C234.65 96.8809 235.024 96.5075 235.024 96.0478C235.024 95.5882 234.65 95.2148 234.191 95.2148H231.548C231.39 95.2148 231.289 95.0856 231.304 94.9276C231.476 93.7786 231.72 93.3907 231.835 92.1987C231.95 91.0497 230.313 90.8486 230.083 91.9115C229.638 93.8935 228 95.2149 227.469 95.617C227.354 95.7032 227.297 95.8181 227.297 95.9617V100.701C227.297 100.874 227.397 101.017 227.555 101.089C228.13 101.333 228.805 101.879 230.758 101.879H233.803C234.262 101.879 234.636 101.506 234.636 101.046C234.636 100.587 234.262 100.213 233.803 100.213H233.903C234.32 100.213 234.708 99.9114 234.765 99.495C234.837 98.9922 234.435 98.547 233.932 98.547H234.033C234.449 98.547 234.837 98.2454 234.895 97.8289C234.952 97.3117 234.564 96.8808 234.062 96.8808L234.061 96.8809Z" fill="#1AA657"/>
<path d="M226.234 95.7318H224.18C223.95 95.7318 223.763 95.9186 223.763 96.1483V100.543C223.763 100.773 223.95 100.96 224.18 100.96L226.234 100.96C226.464 100.96 226.65 100.773 226.65 100.543V96.1484C226.65 95.9187 226.464 95.7319 226.234 95.7319V95.7318ZM225.214 100.041C224.97 100.041 224.769 99.8395 224.769 99.5954C224.769 99.3512 224.97 99.1501 225.214 99.1501C225.458 99.1501 225.659 99.3512 225.659 99.5954C225.659 99.8395 225.458 100.041 225.214 100.041Z" fill="#1AA657"/>
<path d="M245.357 93.5176L244.64 97.9475C244.482 98.8967 244.268 99.1666 243.784 99.1666C243.682 99.1666 243.514 99.148 243.412 99.1387V100.088C243.57 100.116 243.821 100.144 243.989 100.144C244.864 100.144 245.422 99.5668 245.673 98.0405L246.241 94.5227H248.372V100.032H249.424V93.5176H245.357ZM254.466 94.9136L252.986 98.2453L251.534 94.9136H250.408L252.428 99.3807L251.078 102.359H252.204L255.592 94.9136H254.466ZM259.736 94.9136V97.3426C259.447 97.5101 259.001 97.5938 258.591 97.5938C257.707 97.5938 257.419 97.2402 257.419 96.4119V94.9136H256.367V96.6632C256.367 98.0591 257.251 98.5338 258.387 98.5338C258.926 98.5338 259.382 98.4314 259.736 98.2825V100.032H260.788V94.9136H259.736ZM267.84 94.9136V99.0456H265.979V94.9136H264.927V99.0456H263.066V94.9136H262.014V100.032H262.535H264.927H267.84H268.892V94.9136H267.84ZM273.639 94.9136L271.107 98.6641L271.173 97.0541V94.9136H270.121V100.032H271.359L273.89 96.2723L273.825 97.8916V100.032H274.876V94.9136H273.639ZM278.474 94.1412C279.284 94.1412 279.991 93.6014 279.991 92.6987V92.4846H279.154V92.6614C279.154 93.0802 278.884 93.3408 278.474 93.3408C278.056 93.3408 277.786 93.0802 277.786 92.6614V92.4846H276.948V92.6987C276.948 93.6014 277.655 94.1412 278.474 94.1412ZM279.61 94.9136L277.078 98.6641L277.144 97.0541V94.9136H276.092V100.032H277.33L279.861 96.2723L279.796 97.8916V100.032H280.847V94.9136H279.61ZM288.343 97.2867C288.762 97.0354 289.041 96.7283 289.041 96.2072C289.041 95.2672 288.343 94.9136 287.235 94.9136H284.853V100.032H287.459C288.594 100.032 289.292 99.5296 289.292 98.5617C289.292 97.9382 288.976 97.4728 288.343 97.2867ZM287.98 96.4026C287.98 96.7656 287.766 97.0261 287.133 97.0261H285.905V95.7419H287.152C287.794 95.7419 287.98 95.9931 287.98 96.4026ZM287.394 99.2038H285.905V97.7893H287.384C288.008 97.7893 288.231 98.0591 288.231 98.4779C288.231 98.906 288.045 99.2038 287.394 99.2038ZM293.787 94.9136L291.256 98.6641L291.321 97.0541V94.9136H290.27V100.032H291.507L294.039 96.2723L293.974 97.8916V100.032H295.025V94.9136H293.787ZM301.323 99.0456V94.9136H297.665L297.209 97.752C297.088 98.4779 296.939 98.8688 296.707 99.0456H295.813V101.363H296.865V100.032H301.202V101.363H302.253V99.0456H301.323ZM297.851 99.0456C298.028 98.785 298.159 98.3942 298.252 97.7986L298.559 95.9001H300.271V99.0456H297.851Z" fill="#1AA657"/>
<path d="M225.578 123.61C225.978 123.415 226.248 123.089 226.248 122.568C226.248 121.656 225.42 121.088 224.117 121.088C222.693 121.088 222.023 121.758 221.837 122.652H222.907C223.046 122.065 223.549 121.888 224.098 121.888C224.898 121.888 225.187 122.223 225.187 122.642C225.187 123.014 224.973 123.275 224.256 123.275H223.493V124.085H224.442C225.178 124.085 225.345 124.438 225.345 124.792C225.345 125.285 224.991 125.611 224.173 125.611C223.372 125.611 222.916 125.341 222.767 124.634H221.706C221.902 125.695 222.6 126.43 224.2 126.43C225.541 126.43 226.406 125.853 226.406 124.866C226.406 124.289 226.127 123.815 225.578 123.61ZM231.368 121.2V122.075C230.996 121.488 230.381 121.088 229.572 121.088C228.232 121.088 227.217 122.196 227.217 123.759C227.217 125.322 228.213 126.43 229.581 126.43C230.381 126.43 230.996 126.048 231.368 125.462V126.318H232.42V121.2H231.368ZM229.804 125.425C228.92 125.425 228.278 124.745 228.278 123.759C228.278 122.782 228.911 122.093 229.804 122.093C230.698 122.093 231.377 122.782 231.377 123.759C231.377 124.745 230.698 125.425 229.804 125.425ZM237.926 125.313L237.944 125.304L238.968 124.42C240.299 123.256 240.988 122.67 240.988 121.684C240.988 120.585 240.122 119.692 238.735 119.692C237.386 119.692 236.409 120.539 236.26 121.898H237.321C237.46 121.153 237.898 120.697 238.689 120.697C239.489 120.697 239.927 121.162 239.927 121.73C239.927 122.307 239.554 122.633 238.093 123.908L236.204 125.564V126.318H241.146V125.313H237.926ZM248.703 121.2V123.21H245.986V121.2H244.934V126.318H245.986V124.206H248.703V126.318H249.755V121.2H248.703ZM253.463 121.088C252.002 121.088 250.81 122.214 250.81 123.759C250.81 125.285 251.983 126.43 253.463 126.43C254.952 126.43 256.115 125.295 256.115 123.759C256.115 122.214 254.933 121.088 253.463 121.088ZM253.463 122.093C254.347 122.093 255.054 122.773 255.054 123.759C255.054 124.745 254.356 125.425 253.463 125.425C252.569 125.425 251.871 124.745 251.871 123.759C251.871 122.773 252.579 122.093 253.463 122.093ZM260.396 121.2V123.629C260.108 123.796 259.661 123.88 259.252 123.88C258.368 123.88 258.079 123.526 258.079 122.698V121.2H257.028V122.949C257.028 124.345 257.912 124.82 259.047 124.82C259.587 124.82 260.043 124.718 260.396 124.569V126.318H261.448V121.2H260.396ZM266.192 121.2L263.661 124.95L263.726 123.34V121.2H262.675V126.318H263.912L266.444 122.558L266.379 124.178V126.318H267.43V121.2H266.192Z" fill="#222222"/>
<path d="M224.627 135.899C223.037 135.899 221.812 137.108 221.812 138.706C221.812 140.304 223.037 141.513 224.627 141.513C226.217 141.513 227.434 140.304 227.442 138.706C227.434 137.108 226.217 135.899 224.627 135.899ZM224.627 136.736C225.72 136.736 226.55 137.574 226.55 138.706C226.55 139.838 225.72 140.676 224.627 140.676C223.526 140.676 222.696 139.838 222.696 138.706C222.696 137.574 223.526 136.736 224.627 136.736ZM230.421 141.513C231.421 141.513 232.321 140.916 232.523 139.862H231.615C231.452 140.389 230.979 140.699 230.421 140.699C229.653 140.699 229.095 140.118 229.095 139.288C229.095 138.466 229.638 137.876 230.429 137.876C230.979 137.876 231.452 138.171 231.615 138.706H232.523C232.329 137.675 231.437 137.062 230.429 137.062C229.157 137.062 228.211 138.016 228.211 139.288C228.211 140.56 229.157 141.513 230.421 141.513ZM236.57 137.155H235.182H232.91V137.977H234.306V141.42H235.182V137.977H236.57V137.155ZM240.493 137.155V137.884C240.183 137.395 239.671 137.062 238.996 137.062C237.879 137.062 237.034 137.985 237.034 139.288C237.034 140.591 237.864 141.513 239.004 141.513C239.671 141.513 240.183 141.196 240.493 140.707V141.42H241.369V137.155H240.493ZM239.19 140.676C238.453 140.676 237.918 140.11 237.918 139.288C237.918 138.473 238.445 137.899 239.19 137.899C239.934 137.899 240.501 138.473 240.501 139.288C240.501 140.11 239.934 140.676 239.19 140.676ZM243.386 137.155L242.983 139.683C242.851 140.474 242.672 140.699 242.261 140.699C242.176 140.699 242.091 140.684 242.005 140.676V141.467C242.145 141.49 242.3 141.513 242.44 141.513C243.169 141.513 243.642 141.033 243.851 139.761L244.13 137.977H245.542V141.42H246.418V137.155H243.386ZM249.506 137.062C248.289 137.062 247.296 138 247.296 139.288C247.296 140.56 248.273 141.513 249.506 141.513C250.747 141.513 251.717 140.567 251.717 139.288C251.717 138 250.732 137.062 249.506 137.062ZM249.506 137.899C250.243 137.899 250.833 138.466 250.833 139.288C250.833 140.11 250.251 140.676 249.506 140.676C248.762 140.676 248.18 140.11 248.18 139.288C248.18 138.466 248.77 137.899 249.506 137.899ZM254.664 141.513C255.664 141.513 256.564 140.916 256.766 139.862H255.858C255.695 140.389 255.222 140.699 254.664 140.699C253.896 140.699 253.338 140.118 253.338 139.288C253.338 138.466 253.881 137.876 254.672 137.876C255.222 137.876 255.695 138.171 255.858 138.706H256.766C256.572 137.675 255.68 137.062 254.672 137.062C253.4 137.062 252.454 138.016 252.454 139.288C252.454 140.56 253.4 141.513 254.664 141.513ZM259.679 138.489H258.445V137.155H257.569V141.42H259.648C260.524 141.42 261.206 140.947 261.206 139.924C261.206 138.9 260.555 138.489 259.679 138.489ZM259.624 140.583H258.445V139.264H259.632C260.167 139.264 260.322 139.528 260.322 139.924C260.322 140.304 260.159 140.583 259.624 140.583ZM265.656 140.583L265.672 140.575L266.525 139.838C267.634 138.869 268.208 138.38 268.208 137.558C268.208 136.643 267.487 135.899 266.331 135.899C265.207 135.899 264.392 136.604 264.268 137.737H265.152C265.269 137.116 265.633 136.736 266.292 136.736C266.959 136.736 267.324 137.124 267.324 137.597C267.324 138.078 267.014 138.349 265.796 139.412L264.222 140.792V141.42H268.34V140.583H265.656ZM274.638 137.155V138.83H272.373V137.155H271.497V141.42H272.373V139.66H274.638V141.42H275.514V137.155H274.638ZM278.604 137.062C277.386 137.062 276.394 138 276.394 139.288C276.394 140.56 277.371 141.513 278.604 141.513C279.845 141.513 280.814 140.567 280.814 139.288C280.814 138 279.829 137.062 278.604 137.062ZM278.604 137.899C279.341 137.899 279.93 138.466 279.93 139.288C279.93 140.11 279.349 140.676 278.604 140.676C277.859 140.676 277.278 140.11 277.278 139.288C277.278 138.466 277.867 137.899 278.604 137.899ZM285.243 137.155L283.979 138.908L282.722 137.155H281.691V141.42H282.567V139.637L282.505 138.155L283.971 140.242H283.994L285.46 138.155L285.398 139.637V141.42H286.274V137.155H285.243ZM289.358 137.062C288.071 137.062 287.156 138.008 287.156 139.295C287.156 140.583 288.079 141.513 289.374 141.513C290.281 141.513 291.095 141.064 291.429 140.11H290.522C290.32 140.529 289.893 140.746 289.382 140.746C288.668 140.746 288.117 140.311 288.048 139.528H291.514C291.6 138.124 290.731 137.062 289.358 137.062ZM289.358 137.822C290.002 137.822 290.444 138.233 290.576 138.815H288.094C288.242 138.241 288.691 137.822 289.358 137.822ZM294.782 137.062C294.107 137.062 293.595 137.395 293.285 137.884V137.155H292.408V143.359H293.285V140.707C293.595 141.188 294.107 141.513 294.774 141.513C295.914 141.513 296.744 140.591 296.744 139.288C296.744 137.985 295.898 137.062 294.782 137.062ZM294.588 140.676C293.843 140.676 293.277 140.11 293.277 139.288C293.277 138.473 293.843 137.899 294.588 137.899C295.332 137.899 295.86 138.473 295.86 139.288C295.86 140.11 295.324 140.676 294.588 140.676ZM300.945 137.155V137.884C300.635 137.395 300.123 137.062 299.448 137.062C298.331 137.062 297.486 137.985 297.486 139.288C297.486 140.591 298.316 141.513 299.456 141.513C300.123 141.513 300.635 141.196 300.945 140.707V141.42H301.821V137.155H300.945ZM299.642 140.676C298.905 140.676 298.37 140.11 298.37 139.288C298.37 138.473 298.898 137.899 299.642 137.899C300.387 137.899 300.953 138.473 300.953 139.288C300.953 140.11 300.387 140.676 299.642 140.676Z" fill="#FF3D00"/>
<path d="M417.004 119.408L414.088 120.537V122.287L416.036 121.468V128.094H417.811V119.408H417.004ZM422.12 126.406L422.145 126.394L423.212 125.463C424.776 124.098 425.694 123.329 425.694 121.989C425.694 120.512 424.553 119.259 422.642 119.259C420.78 119.259 419.428 120.438 419.304 122.324H421.091C421.227 121.443 421.686 120.946 422.567 120.946C423.485 120.946 423.895 121.492 423.895 122.076C423.895 122.708 423.523 123.056 421.748 124.619L419.217 126.828V128.094H425.88V126.406H422.12ZM434.369 119.259C432.024 119.259 430.634 120.996 430.634 123.751C430.634 126.505 432.024 128.243 434.369 128.243C436.714 128.243 438.104 126.493 438.104 123.751C438.104 121.008 436.714 119.259 434.369 119.259ZM434.369 126.555C433.066 126.555 432.421 125.624 432.421 123.751C432.421 121.877 433.066 120.946 434.369 120.946C435.672 120.946 436.305 121.877 436.305 123.751C436.305 125.624 435.672 126.555 434.369 126.555ZM442.96 119.259C440.615 119.259 439.226 120.996 439.226 123.751C439.226 126.505 440.615 128.243 442.96 128.243C445.306 128.243 446.695 126.493 446.695 123.751C446.695 121.008 445.306 119.259 442.96 119.259ZM442.96 126.555C441.658 126.555 441.012 125.624 441.012 123.751C441.012 121.877 441.658 120.946 442.96 120.946C444.263 120.946 444.896 121.877 444.896 123.751C444.896 125.624 444.263 126.555 442.96 126.555ZM451.552 119.259C449.207 119.259 447.817 120.996 447.817 123.751C447.817 126.505 449.207 128.243 451.552 128.243C453.897 128.243 455.287 126.493 455.287 123.751C455.287 121.008 453.897 119.259 451.552 119.259ZM451.552 126.555C450.249 126.555 449.604 125.624 449.604 123.751C449.604 121.877 450.249 120.946 451.552 120.946C452.855 120.946 453.488 121.877 453.488 123.751C453.488 125.624 452.855 126.555 451.552 126.555Z" fill="#222222"/>
<path d="M460.385 125.426C461.793 125.426 462.599 124.543 462.599 123.265C462.599 122.031 461.811 121.073 460.385 121.073H458.072V124.386H457.171V125.426H458.072V125.944H457.171V126.983H458.072V128.053H459.181V126.983H460.526V125.944H459.181V125.426H460.385ZM459.181 124.386V122.123H460.385C461.131 122.123 461.491 122.621 461.488 123.275C461.491 123.943 461.137 124.386 460.361 124.386H459.181Z" fill="#222222"/>
<path d="M392.923 137.681L390.866 138.482V139.515L392.346 138.91V144.196H393.397V137.681H392.923ZM399.798 141.711H398.858V137.681H397.294L394.447 141.711V142.707L397.806 142.697V144.196H398.858V142.697H399.798V141.711ZM395.591 141.711L397.723 138.658H397.806V141.711H395.591ZM408.504 141.711H407.565V137.681H406.001L403.153 141.711V142.707L406.513 142.697V144.196H407.565V142.697H408.504V141.711ZM404.298 141.711L406.429 138.658H406.513V141.711H404.298ZM411.973 137.57C410.28 137.57 409.265 138.826 409.265 140.939C409.265 143.051 410.28 144.307 411.973 144.307C413.686 144.307 414.691 143.033 414.691 140.939C414.691 138.845 413.686 137.57 411.973 137.57ZM411.973 143.302C410.94 143.302 410.326 142.576 410.326 140.939C410.326 139.301 410.94 138.575 411.973 138.575C413.016 138.575 413.63 139.301 413.63 140.939C413.63 142.576 413.016 143.302 411.973 143.302ZM418.326 137.57C416.632 137.57 415.618 138.826 415.618 140.939C415.618 143.051 416.632 144.307 418.326 144.307C420.038 144.307 421.044 143.033 421.044 140.939C421.044 138.845 420.038 137.57 418.326 137.57ZM418.326 143.302C417.293 143.302 416.679 142.576 416.679 140.939C416.679 139.301 417.293 138.575 418.326 138.575C419.368 138.575 419.983 139.301 419.983 140.939C419.983 142.576 419.368 143.302 418.326 143.302Z" fill="#222222"/>
<path d="M390.577 141.125H421.527V141.59H390.577V141.125Z" fill="#222222"/>
<path d="M423.806 143.188V138.204H425.118C425.727 138.204 426.179 138.327 426.472 138.574C426.77 138.821 426.919 139.179 426.919 139.649C426.919 139.965 426.846 140.237 426.702 140.465C426.558 140.689 426.344 140.861 426.06 140.982C425.781 141.103 425.434 141.163 425.02 141.163H424.434V143.188H423.806ZM423.198 142.238V141.785H425.585V142.238H423.198ZM423.198 141.163V140.633H424.797V141.163H423.198ZM424.929 140.633C425.213 140.633 425.453 140.603 425.648 140.542C425.848 140.482 426.002 140.382 426.109 140.242C426.216 140.102 426.269 139.912 426.269 139.67C426.269 139.353 426.172 139.118 425.976 138.965C425.781 138.811 425.476 138.734 425.062 138.734H424.434V140.633H424.929Z" fill="#222222"/>
<path d="M423.129 140.94H427.191V141.289H423.129V140.94Z" fill="#222222"/>
<rect x="433.395" y="134.645" width="29.2043" height="12.1021" rx="3.10213" fill="#FF3D00"/>
<path d="M439.692 140.458H437.133V141.296H439.692V140.458ZM442.075 142.358L442.09 142.351L442.943 141.614C444.052 140.644 444.626 140.156 444.626 139.334C444.626 138.419 443.905 137.674 442.749 137.674C441.625 137.674 440.81 138.38 440.686 139.512H441.57C441.687 138.892 442.051 138.512 442.71 138.512C443.377 138.512 443.742 138.899 443.742 139.373C443.742 139.853 443.432 140.125 442.214 141.187L440.64 142.568V143.196H444.758V142.358H442.075ZM447.662 137.674C446.251 137.674 445.406 138.721 445.406 140.482C445.406 142.242 446.251 143.289 447.662 143.289C449.089 143.289 449.927 142.227 449.927 140.482C449.927 138.737 449.089 137.674 447.662 137.674ZM447.662 142.451C446.802 142.451 446.29 141.846 446.29 140.482C446.29 139.117 446.802 138.512 447.662 138.512C448.531 138.512 449.043 139.117 449.043 140.482C449.043 141.846 448.531 142.451 447.662 142.451ZM452.428 140.939C453.289 140.939 453.894 140.373 453.894 139.311C453.894 138.248 453.289 137.674 452.428 137.674C451.56 137.674 450.962 138.248 450.962 139.311C450.962 140.373 451.56 140.939 452.428 140.939ZM456.508 137.767H455.662L452.56 143.196H453.405L456.508 137.767ZM452.428 140.257C451.978 140.257 451.73 139.954 451.73 139.311C451.73 138.659 451.978 138.364 452.428 138.364C452.878 138.364 453.126 138.659 453.126 139.311C453.126 139.954 452.878 140.257 452.428 140.257ZM456.647 140.024C455.779 140.024 455.181 140.59 455.181 141.653C455.181 142.715 455.779 143.289 456.647 143.289C457.508 143.289 458.113 142.715 458.113 141.653C458.113 140.59 457.508 140.024 456.647 140.024ZM456.647 140.706C457.097 140.706 457.345 141.009 457.345 141.653C457.345 142.304 457.097 142.599 456.647 142.599C456.19 142.599 455.941 142.304 455.941 141.653C455.941 141.009 456.19 140.706 456.647 140.706Z" fill="white"/>
<rect x="221.409" y="156.053" width="241.191" height="31.0213" rx="15.5107" fill="#FC6733"/>
<path d="M322.541 170.971C323.16 170.656 323.486 170.2 323.486 169.44C323.486 168.137 322.563 167.464 321.162 167.464H317.829V175.064H321.184C322.748 175.064 323.746 174.261 323.746 172.871C323.746 171.98 323.356 171.242 322.541 170.971ZM321.922 169.7C321.922 170.211 321.64 170.471 320.999 170.471H319.382V168.94H320.956C321.607 168.94 321.922 169.147 321.922 169.7ZM321.151 173.587H319.382V171.894H321.141C321.944 171.894 322.172 172.187 322.172 172.74C322.172 173.251 321.944 173.587 321.151 173.587ZM327.852 170.84H326.332V169.092H324.78V175.064H327.798C328.906 175.064 330.024 174.467 330.024 172.903C330.024 171.34 328.96 170.84 327.852 170.84ZM330.827 169.092V175.064H332.38V169.092H330.827ZM327.744 173.587H326.332V172.208H327.755C328.276 172.208 328.45 172.469 328.45 172.903C328.45 173.305 328.265 173.587 327.744 173.587ZM337.032 169.277C336.218 169.277 335.458 169.635 335.056 170.352C335.186 168.365 336.391 168.028 338.899 168.028V166.573C335.729 166.573 333.482 167.247 333.482 171.372C333.482 174.098 334.991 175.194 336.641 175.194C338.346 175.194 339.67 173.989 339.67 172.132C339.67 170.406 338.509 169.277 337.032 169.277ZM336.576 173.859C335.718 173.859 335.045 173.218 335.045 172.219C335.045 171.242 335.751 170.602 336.608 170.602C337.466 170.602 338.118 171.242 338.118 172.219C338.118 173.218 337.445 173.859 336.576 173.859ZM344.255 168.962C343.419 168.962 342.778 169.353 342.365 169.928V169.092H340.813V177.778H342.365V174.261C342.789 174.825 343.408 175.194 344.255 175.194C345.807 175.194 346.98 173.913 346.98 172.078C346.98 170.232 345.786 168.962 344.255 168.962ZM343.896 173.718C343.028 173.718 342.365 173.066 342.365 172.078C342.365 171.101 343.028 170.439 343.896 170.439C344.765 170.439 345.405 171.101 345.405 172.078C345.405 173.066 344.754 173.718 343.896 173.718ZM352.526 169.092V169.928C352.114 169.353 351.484 168.962 350.637 168.962C349.106 168.962 347.923 170.232 347.923 172.078C347.923 173.913 349.085 175.194 350.648 175.194C351.484 175.194 352.103 174.825 352.516 174.261V175.064H354.068L354.079 169.092H352.526ZM350.995 173.718C350.138 173.718 349.486 173.066 349.486 172.078C349.486 171.101 350.127 170.439 350.995 170.439C351.864 170.439 352.526 171.101 352.526 172.078C352.526 173.066 351.864 173.718 350.995 173.718ZM360.17 169.092H358.324H354.936V170.558H356.771V175.064H358.324V170.558H360.17V169.092ZM364.104 170.84H362.584L362.573 169.092H361.021L361.032 175.064H364.061C365.168 175.064 366.276 174.467 366.276 172.903C366.276 171.34 365.212 170.84 364.104 170.84ZM364.007 173.587H362.584V172.208H364.007C364.528 172.208 364.712 172.469 364.712 172.903C364.712 173.305 364.528 173.587 364.007 173.587Z" fill="white"/>
<rect x="208.5" y="76.3682" width="267" height="123.615" stroke="#FC6733" stroke-dasharray="10 10"/>
<defs>
<clipPath id="clip0_1005_3114">
<rect width="19.6234" height="19.6234" fill="white" transform="translate(13.0823 13.0823)"/>
</clipPath>
</defs>
</svg>
