<svg width="199" height="125" viewBox="0 0 199 125" fill="none" xmlns="http://www.w3.org/2000/svg">
<path d="M124.375 13.0352C144.804 13.0352 161.445 29.5296 161.688 49.8863C161.59 50.6396 161.517 51.3924 161.493 52.1698L161.178 61.3035L169.826 64.3157C179.834 67.8013 186.562 77.1901 186.562 87.6602C186.562 101.385 175.412 112.535 161.688 112.535H37.3125C23.5998 112.535 12.4375 101.385 12.4375 87.6602C12.4375 74.0807 23.3934 63.0036 36.9238 62.7852C37.5068 62.8703 38.1143 62.943 38.7214 62.9795L48.1712 63.599L51.2806 54.6716C54.7786 44.6392 64.1553 37.9102 74.625 37.9102C75.8396 37.9102 77.1759 38.0559 78.9735 38.3719L87.682 39.9386L92.0181 32.2258C98.6741 20.3958 111.063 13.0352 124.375 13.0352ZM124.375 0.597656C105.743 0.597656 89.6981 10.9705 81.1718 26.1287C79.0461 25.7521 76.8719 25.4727 74.625 25.4727C58.3249 25.4727 44.6121 35.9913 39.5353 50.5665C38.7945 50.5179 38.0778 50.3477 37.3125 50.3477C16.7129 50.3477 0 67.0605 0 87.6602C0 108.26 16.7129 124.973 37.3125 124.973H161.688C182.287 124.973 199 108.26 199 87.6602C199 71.36 188.482 57.6353 173.907 52.558C173.931 51.8052 174.125 51.1009 174.125 50.3477C174.125 22.8736 151.849 0.597656 124.375 0.597656Z" fill="white"/>
<path d="M103.862 51.602L116.949 44.4271C119.925 42.7958 123.525 42.7847 126.51 44.3978L139.855 51.6081C141.471 52.4813 142.479 54.1702 142.479 56.0071V70.5093C142.479 75.3316 140.736 79.9916 137.572 83.6309L129.324 93.1192C125.318 97.7267 118.155 97.7009 114.183 93.0645L106.077 83.6038C102.972 79.9794 101.266 75.3641 101.266 70.5915V55.9864C101.266 54.1605 102.261 52.4798 103.862 51.602Z" fill="white" stroke="white" stroke-width="5"/>
<path d="M114.219 70.3481L121.341 75.9586L131.882 61.8284" stroke="#1C306F" stroke-width="7" stroke-linecap="round"/>
</svg>
