<svg width="78" height="90" viewBox="0 0 78 90" fill="none" xmlns="http://www.w3.org/2000/svg">
<path d="M48.6508 21.6345L54.6825 26.4897M38.5261 25.253L38.3968 44.0897M40.8095 53.1931L51.9683 80.2753M43.2222 50.8675L63.127 62.2965M25.127 40.4483L34.7778 45.8955M36.5873 54.054L29.0476 68.8442M49.254 84.1448L32.5765 77.268M64.2658 72.0069L57.0952 81.1103M66.9775 46.8305L68.5554 59.869M28.746 21.6345L22.7143 26.4897M71.5444 41.0552C71.2398 37.6402 68.3874 34.9638 64.9143 34.9638H64.3558C60.8827 34.9638 58.0303 37.6402 57.7255 41.0552H71.5444ZM67.6624 30.1423C67.6624 31.8244 66.3071 33.188 64.6351 33.188C62.9631 33.188 61.6077 31.8244 61.6077 30.1423C61.6077 28.4602 62.9631 27.0965 64.6351 27.0965C66.3071 27.0965 67.6624 28.4602 67.6624 30.1423ZM45.6081 19.8138C45.3033 16.3988 42.4512 13.7224 38.9778 13.7224H38.4193C34.9459 13.7224 32.0938 16.3988 31.789 19.8138H45.6081ZM41.7256 8.90088C41.7256 10.583 40.3704 11.9466 38.6986 11.9466C37.0267 11.9466 35.6715 10.583 35.6715 8.90088C35.6715 7.21881 37.0267 5.85517 38.6986 5.85517C40.3704 5.85517 41.7256 7.21881 41.7256 8.90088ZM20.2748 41.6621C19.97 38.2471 17.1179 35.5706 13.6445 35.5706H13.0859C9.61256 35.5706 6.76045 38.2471 6.45567 41.6621H20.2748ZM16.3922 30.7492C16.3922 32.4313 15.037 33.7949 13.3652 33.7949C11.6934 33.7949 10.3382 32.4313 10.3382 30.7492C10.3382 29.0671 11.6934 27.7034 13.3652 27.7034C15.037 27.7034 16.3922 29.0671 16.3922 30.7492ZM77 34.6828C77 41.5539 71.464 47.1241 64.6349 47.1241C57.8059 47.1241 52.2698 41.5539 52.2698 34.6828C52.2698 27.8116 57.8059 22.2414 64.6349 22.2414C71.464 22.2414 77 27.8116 77 34.6828ZM51.0635 13.4414C51.0635 20.3126 45.5275 25.8828 38.6984 25.8828C31.8694 25.8828 26.3333 20.3126 26.3333 13.4414C26.3333 6.57019 31.8694 1 38.6984 1C45.5275 1 51.0635 6.57019 51.0635 13.4414ZM25.7302 35.2897C25.7302 42.1608 20.1941 47.731 13.3651 47.731C6.53604 47.731 1 42.1608 1 35.2897C1 28.4185 6.53604 22.8483 13.3651 22.8483C20.1941 22.8483 25.7302 28.4185 25.7302 35.2897ZM43.2222 49.5517C43.2222 52.2332 41.0618 54.4069 38.3968 54.4069C35.7318 54.4069 33.5714 52.2332 33.5714 49.5517C33.5714 46.8703 35.7318 44.6965 38.3968 44.6965C41.0618 44.6965 43.2222 46.8703 43.2222 49.5517ZM58.3016 84.4483C58.3016 86.9621 56.2762 89 53.7778 89C51.2794 89 49.254 86.9621 49.254 84.4483C49.254 81.9344 51.2794 79.8965 53.7778 79.8965C56.2762 79.8965 58.3016 81.9344 58.3016 84.4483ZM32.9683 74.7379C32.9683 78.2573 30.1327 81.1103 26.6349 81.1103C23.1371 81.1103 20.3016 78.2573 20.3016 74.7379C20.3016 71.2185 23.1371 68.3655 26.6349 68.3655C30.1327 68.3655 32.9683 71.2185 32.9683 74.7379ZM75.7937 66.2414C75.7937 70.0959 72.6881 73.2207 68.8572 73.2207C65.0262 73.2207 61.9206 70.0959 61.9206 66.2414C61.9206 62.3868 65.0262 59.2621 68.8572 59.2621C72.6881 59.2621 75.7937 62.3868 75.7937 66.2414Z" stroke="#2655FF" stroke-width="1.5"/>
</svg>
