<svg width="1106" height="102" viewBox="0 0 1106 102" fill="none" xmlns="http://www.w3.org/2000/svg">
<g filter="url(#filter0_b_917_2133)">
<rect width="1106" height="102" rx="4" fill="white"/>
<rect x="251" y="24" width="200" height="54" rx="8" fill="white"/>
<path opacity="0.4" d="M271.73 40.82C272.32 40.57 272.67 40.02 272.67 39.38C272.67 38.21 271.64 37.38 270.16 37.38C268.76 37.38 267.7 38.04 267.5 39.5H268.64C268.83 38.72 269.33 38.46 270.13 38.46C271.04 38.46 271.52 38.89 271.52 39.52C271.52 40.13 271.06 40.41 270.17 40.41H269.32V41.41H270.38C271.41 41.41 271.75 41.82 271.75 42.41C271.75 43.1 271.26 43.54 270.25 43.54C269.34 43.54 268.72 43.23 268.55 42.41H267.41C267.57 43.9 268.76 44.62 270.27 44.62C271.86 44.62 272.9 43.81 272.9 42.51C272.9 41.69 272.46 41.08 271.73 40.82ZM278.239 39V39.94C277.839 39.31 277.179 38.88 276.309 38.88C274.869 38.88 273.779 40.07 273.779 41.75C273.779 43.43 274.849 44.62 276.319 44.62C277.179 44.62 277.839 44.21 278.239 43.58V44.5H279.369V39H278.239ZM276.559 43.54C275.609 43.54 274.919 42.81 274.919 41.75C274.919 40.7 275.599 39.96 276.559 39.96C277.519 39.96 278.249 40.7 278.249 41.75C278.249 42.81 277.519 43.54 276.559 43.54ZM283.347 38.88C281.687 38.88 280.507 40.1 280.507 41.76C280.507 43.42 281.697 44.62 283.367 44.62C284.537 44.62 285.587 44.04 286.017 42.81H284.847C284.587 43.35 284.037 43.63 283.377 43.63C282.457 43.63 281.747 43.07 281.657 42.06H286.127C286.237 40.25 285.117 38.88 283.347 38.88ZM283.347 39.86C284.177 39.86 284.747 40.39 284.917 41.14H281.717C281.907 40.4 282.487 39.86 283.347 39.86ZM291.05 41.59C291.48 41.38 291.77 41.03 291.77 40.47C291.77 39.49 290.88 38.88 289.48 38.88C287.95 38.88 287.23 39.6 287.03 40.56H288.18C288.33 39.93 288.87 39.74 289.46 39.74C290.32 39.74 290.63 40.1 290.63 40.55C290.63 40.95 290.4 41.23 289.63 41.23H288.81V42.1H289.83C290.62 42.1 290.8 42.48 290.8 42.86C290.8 43.39 290.42 43.74 289.54 43.74C288.68 43.74 288.19 43.45 288.03 42.69H286.89C287.1 43.83 287.85 44.62 289.57 44.62C291.01 44.62 291.94 44 291.94 42.94C291.94 42.32 291.64 41.81 291.05 41.59ZM298.375 43.44V39H294.445L293.955 42.05C293.825 42.83 293.665 43.25 293.415 43.44H292.455V45.93H293.585V44.5H298.245V45.93H299.375V43.44H298.375ZM294.645 43.44C294.835 43.16 294.975 42.74 295.075 42.1L295.405 40.06H297.245V43.44H294.645Z" fill="#222222"/>
<path d="M273.426 58.348C274.238 57.998 274.7 57.228 274.7 56.332C274.7 54.694 273.258 53.532 271.298 53.532C269.464 53.532 267.98 54.47 267.7 56.5H269.296C269.562 55.408 270.262 55.03 271.256 55.03C272.432 55.03 273.104 55.646 273.104 56.528C273.104 57.382 272.46 57.774 271.27 57.774H270.22V59.174H271.55C272.922 59.174 273.412 59.748 273.412 60.574C273.412 61.54 272.712 62.17 271.41 62.17C270.276 62.17 269.408 61.722 269.17 60.574H267.574C267.798 62.66 269.45 63.668 271.424 63.668C273.552 63.668 275.008 62.562 275.008 60.714C275.008 59.566 274.42 58.712 273.426 58.348ZM279.114 53.7L276.02 54.904V56.458L278.246 55.548V63.5H279.828V53.7H279.114ZM293.794 62.016V55.8H288.292L287.606 60.07C287.424 61.162 287.2 61.75 286.85 62.016H285.506V65.502H287.088V63.5H293.612V65.502H295.194V62.016H293.794ZM288.572 62.016C288.838 61.624 289.034 61.036 289.174 60.14L289.636 57.284H292.212V62.016H288.572ZM299.935 55.632C297.611 55.632 295.959 57.34 295.959 59.664C295.959 61.988 297.625 63.668 299.963 63.668C301.601 63.668 303.071 62.856 303.673 61.134H302.035C301.671 61.89 300.901 62.282 299.977 62.282C298.689 62.282 297.695 61.498 297.569 60.084H303.827C303.981 57.55 302.413 55.632 299.935 55.632ZM299.935 57.004C301.097 57.004 301.895 57.746 302.133 58.796H297.653C297.919 57.76 298.731 57.004 299.935 57.004ZM312.623 63.5L308.549 59.454L312.315 55.8H310.285L306.953 59.132V55.8H305.371V63.5H306.953V59.944L310.579 63.5H312.623ZM319.061 55.8V57.116C318.501 56.234 317.577 55.632 316.359 55.632C314.343 55.632 312.817 57.298 312.817 59.65C312.817 62.002 314.315 63.668 316.373 63.668C317.577 63.668 318.501 63.094 319.061 62.212V63.5H320.643V55.8H319.061ZM316.709 62.156C315.379 62.156 314.413 61.134 314.413 59.65C314.413 58.18 315.365 57.144 316.709 57.144C318.053 57.144 319.075 58.18 319.075 59.65C319.075 61.134 318.053 62.156 316.709 62.156ZM326.674 55.982C325.512 55.982 324.406 56.528 323.846 57.592C324.07 54.596 325.694 54.05 329.194 54.05V52.552C324.924 52.552 322.236 53.49 322.236 58.964C322.25 62.198 324.098 63.668 326.254 63.668C328.452 63.668 330.16 62.086 330.16 59.692C330.16 57.452 328.634 55.982 326.674 55.982ZM326.184 62.296C324.854 62.296 323.832 61.316 323.832 59.776C323.832 58.292 324.966 57.34 326.268 57.34C327.584 57.34 328.578 58.306 328.578 59.776C328.578 61.316 327.514 62.296 326.184 62.296ZM336.098 55.632C334.88 55.632 333.956 56.234 333.396 57.116V55.8H331.814V67H333.396V62.212C333.956 63.08 334.88 63.668 336.084 63.668C338.142 63.668 339.64 62.002 339.64 59.65C339.64 57.298 338.114 55.632 336.098 55.632ZM335.748 62.156C334.404 62.156 333.382 61.134 333.382 59.65C333.382 58.18 334.404 57.144 335.748 57.144C337.092 57.144 338.044 58.18 338.044 59.65C338.044 61.134 337.078 62.156 335.748 62.156ZM343.673 55.8C342.091 55.8 340.873 56.598 340.873 58.376C340.873 59.664 341.671 60.336 342.735 60.602L340.481 63.5H342.427L344.429 60.714H345.955V63.5H347.537V55.8H343.673ZM343.799 59.412C342.861 59.412 342.469 58.978 342.469 58.348C342.469 57.704 342.777 57.228 343.757 57.228H345.955V59.412H343.799ZM355.818 61.988L355.846 61.974L357.386 60.644C359.388 58.894 360.424 58.012 360.424 56.528C360.424 54.876 359.122 53.532 357.036 53.532C355.006 53.532 353.536 54.806 353.312 56.85H354.908C355.118 55.73 355.776 55.044 356.966 55.044C358.17 55.044 358.828 55.744 358.828 56.598C358.828 57.466 358.268 57.956 356.07 59.874L353.228 62.366V63.5H360.662V61.988H355.818ZM365.906 53.532C363.358 53.532 361.832 55.422 361.832 58.6C361.832 61.778 363.358 63.668 365.906 63.668C368.482 63.668 369.994 61.75 369.994 58.6C369.994 55.45 368.482 53.532 365.906 53.532ZM365.906 62.156C364.352 62.156 363.428 61.064 363.428 58.6C363.428 56.136 364.352 55.044 365.906 55.044C367.474 55.044 368.398 56.136 368.398 58.6C368.398 61.064 367.474 62.156 365.906 62.156ZM373.715 61.988L373.743 61.974L375.283 60.644C377.285 58.894 378.321 58.012 378.321 56.528C378.321 54.876 377.019 53.532 374.933 53.532C372.903 53.532 371.433 54.806 371.209 56.85H372.805C373.015 55.73 373.673 55.044 374.863 55.044C376.067 55.044 376.725 55.744 376.725 56.598C376.725 57.466 376.165 57.956 373.967 59.874L371.125 62.366V63.5H378.559V61.988H373.715ZM382.301 61.988L382.329 61.974L383.869 60.644C385.871 58.894 386.907 58.012 386.907 56.528C386.907 54.876 385.605 53.532 383.519 53.532C381.489 53.532 380.019 54.806 379.795 56.85H381.391C381.601 55.73 382.259 55.044 383.449 55.044C384.653 55.044 385.311 55.744 385.311 56.598C385.311 57.466 384.751 57.956 382.553 59.874L379.711 62.366V63.5H387.145V61.988H382.301Z" fill="#222222"/>
<g opacity="0.4">
<path fill-rule="evenodd" clip-rule="evenodd" d="M432.778 49.603H420.895C420.619 49.603 420.395 49.379 420.395 49.103C420.395 48.827 420.619 48.603 420.895 48.603H432.778C433.054 48.603 433.278 48.827 433.278 49.103C433.278 49.379 433.054 49.603 432.778 49.603Z" fill="#222222"/>
<path fill-rule="evenodd" clip-rule="evenodd" d="M429.801 52.2065C429.525 52.2065 429.298 51.9825 429.298 51.7065C429.298 51.4305 429.519 51.2065 429.795 51.2065H429.801C430.077 51.2065 430.301 51.4305 430.301 51.7065C430.301 51.9825 430.077 52.2065 429.801 52.2065Z" fill="#222222"/>
<path fill-rule="evenodd" clip-rule="evenodd" d="M426.842 52.2065C426.566 52.2065 426.34 51.9825 426.34 51.7065C426.34 51.4305 426.56 51.2065 426.836 51.2065H426.842C427.118 51.2065 427.342 51.4305 427.342 51.7065C427.342 51.9825 427.118 52.2065 426.842 52.2065Z" fill="#222222"/>
<path fill-rule="evenodd" clip-rule="evenodd" d="M423.878 52.2065C423.602 52.2065 423.375 51.9825 423.375 51.7065C423.375 51.4305 423.596 51.2065 423.872 51.2065H423.878C424.154 51.2065 424.378 51.4305 424.378 51.7065C424.378 51.9825 424.154 52.2065 423.878 52.2065Z" fill="#222222"/>
<path fill-rule="evenodd" clip-rule="evenodd" d="M429.801 54.7976C429.525 54.7976 429.298 54.5736 429.298 54.2976C429.298 54.0216 429.519 53.7976 429.795 53.7976H429.801C430.077 53.7976 430.301 54.0216 430.301 54.2976C430.301 54.5736 430.077 54.7976 429.801 54.7976Z" fill="#222222"/>
<path fill-rule="evenodd" clip-rule="evenodd" d="M426.842 54.7976C426.566 54.7976 426.34 54.5736 426.34 54.2976C426.34 54.0216 426.56 53.7976 426.836 53.7976H426.842C427.118 53.7976 427.342 54.0216 427.342 54.2976C427.342 54.5736 427.118 54.7976 426.842 54.7976Z" fill="#222222"/>
<path fill-rule="evenodd" clip-rule="evenodd" d="M423.878 54.7976C423.602 54.7976 423.375 54.5736 423.375 54.2976C423.375 54.0216 423.596 53.7976 423.872 53.7976H423.878C424.154 53.7976 424.378 54.0216 424.378 54.2976C424.378 54.5736 424.154 54.7976 423.878 54.7976Z" fill="#222222"/>
<path fill-rule="evenodd" clip-rule="evenodd" d="M429.529 46.8607C429.253 46.8607 429.029 46.6367 429.029 46.3607V44.1667C429.029 43.8907 429.253 43.6667 429.529 43.6667C429.805 43.6667 430.029 43.8907 430.029 44.1667V46.3607C430.029 46.6367 429.805 46.8607 429.529 46.8607Z" fill="#222222"/>
<path fill-rule="evenodd" clip-rule="evenodd" d="M424.143 46.8607C423.867 46.8607 423.643 46.6367 423.643 46.3607V44.1667C423.643 43.8907 423.867 43.6667 424.143 43.6667C424.419 43.6667 424.643 43.8907 424.643 44.1667V46.3607C424.643 46.6367 424.419 46.8607 424.143 46.8607Z" fill="#222222"/>
<mask id="mask0_917_2133" style="mask-type:alpha" maskUnits="userSpaceOnUse" x="420" y="44" width="14" height="14">
<path fill-rule="evenodd" clip-rule="evenodd" d="M420.333 44.7195H433.333V58.0001H420.333V44.7195Z" fill="white"/>
</mask>
<g mask="url(#mask0_917_2133)">
<path fill-rule="evenodd" clip-rule="evenodd" d="M424.014 45.7195C422.285 45.7195 421.333 46.6415 421.333 48.3155V54.3481C421.333 56.0588 422.285 57.0001 424.014 57.0001H429.653C431.381 57.0001 432.333 56.0761 432.333 54.3988V48.3155C432.336 47.4921 432.115 46.8521 431.675 46.4121C431.223 45.9588 430.527 45.7195 429.659 45.7195H424.014ZM429.653 58.0001H424.014C421.744 58.0001 420.333 56.6008 420.333 54.3481V48.3155C420.333 46.0968 421.744 44.7195 424.014 44.7195H429.659C430.798 44.7195 431.74 45.0608 432.383 45.7055C433.008 46.3328 433.337 47.2348 433.333 48.3168V54.3988C433.333 56.6201 431.923 58.0001 429.653 58.0001Z" fill="#222222"/>
</g>
</g>
<rect x="251.5" y="24.5" width="199" height="53" rx="7.5" stroke="#222222" stroke-opacity="0.2"/>
<rect x="463" y="24" width="200" height="54" rx="8" fill="white"/>
<path opacity="0.4" d="M484 40.76C484.63 40.47 484.93 40.01 484.93 39.3C484.93 38.15 484.16 37.5 482.8 37.5H479.82V44.5H482.84C484.31 44.5 485.16 43.75 485.16 42.52C485.16 41.67 484.79 41 484 40.76ZM483.79 39.48C483.79 40.05 483.49 40.38 482.67 40.38H480.95V38.58H482.66C483.47 38.58 483.79 38.87 483.79 39.48ZM482.81 43.42H480.95V41.42H482.8C483.72 41.42 484.02 41.79 484.02 42.43C484.02 43.03 483.73 43.42 482.81 43.42ZM488.942 40.72H487.362V39H486.232V44.5H488.902C490.032 44.5 490.912 43.89 490.912 42.57C490.912 41.25 490.072 40.72 488.942 40.72ZM491.722 39V44.5H492.852V39H491.722ZM488.862 43.42H487.362V41.72H488.882C489.572 41.72 489.772 42.06 489.772 42.57C489.772 43.06 489.552 43.42 488.862 43.42ZM496.822 38.88C495.162 38.88 493.982 40.1 493.982 41.76C493.982 43.42 495.172 44.62 496.842 44.62C498.012 44.62 499.062 44.04 499.492 42.81H498.322C498.062 43.35 497.512 43.63 496.852 43.63C495.932 43.63 495.222 43.07 495.132 42.06H499.602C499.712 40.25 498.592 38.88 496.822 38.88ZM496.822 39.86C497.652 39.86 498.222 40.39 498.392 41.14H495.192C495.382 40.4 495.962 39.86 496.822 39.86ZM504.525 41.59C504.955 41.38 505.245 41.03 505.245 40.47C505.245 39.49 504.355 38.88 502.955 38.88C501.425 38.88 500.705 39.6 500.505 40.56H501.655C501.805 39.93 502.345 39.74 502.935 39.74C503.795 39.74 504.105 40.1 504.105 40.55C504.105 40.95 503.875 41.23 503.105 41.23H502.285V42.1H503.305C504.095 42.1 504.275 42.48 504.275 42.86C504.275 43.39 503.895 43.74 503.015 43.74C502.155 43.74 501.665 43.45 501.505 42.69H500.365C500.575 43.83 501.325 44.62 503.045 44.62C504.485 44.62 505.415 44 505.415 42.94C505.415 42.32 505.115 41.81 504.525 41.59ZM511.849 43.44V39H507.919L507.429 42.05C507.299 42.83 507.139 43.25 506.889 43.44H505.929V45.93H507.059V44.5H511.719V45.93H512.849V43.44H511.849ZM508.119 43.44C508.309 43.16 508.449 42.74 508.549 42.1L508.879 40.06H510.719V43.44H508.119Z" fill="#222222"/>
<path d="M482.164 61.988L482.192 61.974L483.732 60.644C485.734 58.894 486.77 58.012 486.77 56.528C486.77 54.876 485.468 53.532 483.382 53.532C481.352 53.532 479.882 54.806 479.658 56.85H481.254C481.464 55.73 482.122 55.044 483.312 55.044C484.516 55.044 485.174 55.744 485.174 56.598C485.174 57.466 484.614 57.956 482.416 59.874L479.574 62.366V63.5H487.008V61.988H482.164ZM495.311 55.8C493.729 55.8 492.511 56.598 492.511 58.376C492.511 59.664 493.309 60.336 494.373 60.602L492.119 63.5H494.065L496.067 60.714H497.593V63.5H499.175V55.8H495.311ZM495.437 59.412C494.499 59.412 494.107 58.978 494.107 58.348C494.107 57.704 494.415 57.228 495.395 57.228H497.593V59.412H495.437ZM506.69 55.8V58.824H502.602V55.8H501.02V63.5H502.602V60.322H506.69V63.5H508.272V55.8H506.69ZM515.362 59.37C515.992 58.992 516.412 58.53 516.412 57.746C516.412 56.332 515.362 55.8 513.696 55.8H510.111V63.5H514.032C515.74 63.5 516.79 62.744 516.79 61.288C516.79 60.35 516.314 59.65 515.362 59.37ZM514.816 58.04C514.816 58.586 514.494 58.978 513.542 58.978H511.694V57.046H513.57C514.536 57.046 514.816 57.424 514.816 58.04ZM513.934 62.254H511.694V60.126H513.92C514.858 60.126 515.194 60.532 515.194 61.162C515.194 61.806 514.914 62.254 513.934 62.254ZM524.307 55.8V57.116C523.747 56.234 522.823 55.632 521.605 55.632C519.589 55.632 518.063 57.298 518.063 59.65C518.063 62.002 519.561 63.668 521.619 63.668C522.823 63.668 523.747 63.094 524.307 62.212V63.5H525.889V55.8H524.307ZM521.955 62.156C520.625 62.156 519.659 61.134 519.659 59.65C519.659 58.18 520.611 57.144 521.955 57.144C523.299 57.144 524.321 58.18 524.321 59.65C524.321 61.134 523.299 62.156 521.955 62.156ZM532.089 55.632C530.871 55.632 529.947 56.234 529.387 57.116V55.8H527.805V67H529.387V62.212C529.947 63.08 530.871 63.668 532.075 63.668C534.133 63.668 535.631 62.002 535.631 59.65C535.631 57.298 534.105 55.632 532.089 55.632ZM531.739 62.156C530.395 62.156 529.373 61.134 529.373 59.65C529.373 58.18 530.395 57.144 531.739 57.144C533.083 57.144 534.035 58.18 534.035 59.65C534.035 61.134 533.069 62.156 531.739 62.156ZM539.663 55.8C538.081 55.8 536.863 56.598 536.863 58.376C536.863 59.664 537.661 60.336 538.725 60.602L536.471 63.5H538.417L540.419 60.714H541.945V63.5H543.527V55.8H539.663ZM539.789 59.412C538.851 59.412 538.459 58.978 538.459 58.348C538.459 57.704 538.767 57.228 539.747 57.228H541.945V59.412H539.789ZM551.809 61.988L551.837 61.974L553.377 60.644C555.379 58.894 556.415 58.012 556.415 56.528C556.415 54.876 555.113 53.532 553.027 53.532C550.997 53.532 549.527 54.806 549.303 56.85H550.899C551.109 55.73 551.767 55.044 552.957 55.044C554.161 55.044 554.819 55.744 554.819 56.598C554.819 57.466 554.259 57.956 552.061 59.874L549.219 62.366V63.5H556.653V61.988H551.809ZM561.896 53.532C559.348 53.532 557.822 55.422 557.822 58.6C557.822 61.778 559.348 63.668 561.896 63.668C564.472 63.668 565.984 61.75 565.984 58.6C565.984 55.45 564.472 53.532 561.896 53.532ZM561.896 62.156C560.342 62.156 559.418 61.064 559.418 58.6C559.418 56.136 560.342 55.044 561.896 55.044C563.464 55.044 564.388 56.136 564.388 58.6C564.388 61.064 563.464 62.156 561.896 62.156ZM569.705 61.988L569.733 61.974L571.273 60.644C573.275 58.894 574.311 58.012 574.311 56.528C574.311 54.876 573.009 53.532 570.923 53.532C568.893 53.532 567.423 54.806 567.199 56.85H568.795C569.005 55.73 569.663 55.044 570.853 55.044C572.057 55.044 572.715 55.744 572.715 56.598C572.715 57.466 572.155 57.956 569.957 59.874L567.115 62.366V63.5H574.549V61.988H569.705ZM581.553 58.348C582.365 57.998 582.827 57.228 582.827 56.332C582.827 54.694 581.385 53.532 579.425 53.532C577.591 53.532 576.107 54.47 575.827 56.5H577.423C577.689 55.408 578.389 55.03 579.383 55.03C580.559 55.03 581.231 55.646 581.231 56.528C581.231 57.382 580.587 57.774 579.397 57.774H578.347V59.174H579.677C581.049 59.174 581.539 59.748 581.539 60.574C581.539 61.54 580.839 62.17 579.537 62.17C578.403 62.17 577.535 61.722 577.297 60.574H575.701C575.925 62.66 577.577 63.668 579.551 63.668C581.679 63.668 583.135 62.562 583.135 60.714C583.135 59.566 582.547 58.712 581.553 58.348Z" fill="#222222"/>
<g opacity="0.4">
<path fill-rule="evenodd" clip-rule="evenodd" d="M644.778 49.603H632.895C632.619 49.603 632.395 49.379 632.395 49.103C632.395 48.827 632.619 48.603 632.895 48.603H644.778C645.054 48.603 645.278 48.827 645.278 49.103C645.278 49.379 645.054 49.603 644.778 49.603Z" fill="#222222"/>
<path fill-rule="evenodd" clip-rule="evenodd" d="M641.801 52.2065C641.525 52.2065 641.298 51.9825 641.298 51.7065C641.298 51.4305 641.519 51.2065 641.795 51.2065H641.801C642.077 51.2065 642.301 51.4305 642.301 51.7065C642.301 51.9825 642.077 52.2065 641.801 52.2065Z" fill="#222222"/>
<path fill-rule="evenodd" clip-rule="evenodd" d="M638.842 52.2065C638.566 52.2065 638.34 51.9825 638.34 51.7065C638.34 51.4305 638.56 51.2065 638.836 51.2065H638.842C639.118 51.2065 639.342 51.4305 639.342 51.7065C639.342 51.9825 639.118 52.2065 638.842 52.2065Z" fill="#222222"/>
<path fill-rule="evenodd" clip-rule="evenodd" d="M635.878 52.2065C635.602 52.2065 635.375 51.9825 635.375 51.7065C635.375 51.4305 635.596 51.2065 635.872 51.2065H635.878C636.154 51.2065 636.378 51.4305 636.378 51.7065C636.378 51.9825 636.154 52.2065 635.878 52.2065Z" fill="#222222"/>
<path fill-rule="evenodd" clip-rule="evenodd" d="M641.801 54.7976C641.525 54.7976 641.298 54.5736 641.298 54.2976C641.298 54.0216 641.519 53.7976 641.795 53.7976H641.801C642.077 53.7976 642.301 54.0216 642.301 54.2976C642.301 54.5736 642.077 54.7976 641.801 54.7976Z" fill="#222222"/>
<path fill-rule="evenodd" clip-rule="evenodd" d="M638.842 54.7976C638.566 54.7976 638.34 54.5736 638.34 54.2976C638.34 54.0216 638.56 53.7976 638.836 53.7976H638.842C639.118 53.7976 639.342 54.0216 639.342 54.2976C639.342 54.5736 639.118 54.7976 638.842 54.7976Z" fill="#222222"/>
<path fill-rule="evenodd" clip-rule="evenodd" d="M635.878 54.7976C635.602 54.7976 635.375 54.5736 635.375 54.2976C635.375 54.0216 635.596 53.7976 635.872 53.7976H635.878C636.154 53.7976 636.378 54.0216 636.378 54.2976C636.378 54.5736 636.154 54.7976 635.878 54.7976Z" fill="#222222"/>
<path fill-rule="evenodd" clip-rule="evenodd" d="M641.529 46.8607C641.253 46.8607 641.029 46.6367 641.029 46.3607V44.1667C641.029 43.8907 641.253 43.6667 641.529 43.6667C641.805 43.6667 642.029 43.8907 642.029 44.1667V46.3607C642.029 46.6367 641.805 46.8607 641.529 46.8607Z" fill="#222222"/>
<path fill-rule="evenodd" clip-rule="evenodd" d="M636.144 46.8607C635.868 46.8607 635.644 46.6367 635.644 46.3607V44.1667C635.644 43.8907 635.868 43.6667 636.144 43.6667C636.42 43.6667 636.644 43.8907 636.644 44.1667V46.3607C636.644 46.6367 636.42 46.8607 636.144 46.8607Z" fill="#222222"/>
<mask id="mask1_917_2133" style="mask-type:alpha" maskUnits="userSpaceOnUse" x="632" y="44" width="14" height="14">
<path fill-rule="evenodd" clip-rule="evenodd" d="M632.333 44.7195H645.333V58.0001H632.333V44.7195Z" fill="white"/>
</mask>
<g mask="url(#mask1_917_2133)">
<path fill-rule="evenodd" clip-rule="evenodd" d="M636.014 45.7195C634.285 45.7195 633.333 46.6415 633.333 48.3155V54.3481C633.333 56.0588 634.285 57.0001 636.014 57.0001H641.653C643.381 57.0001 644.333 56.0761 644.333 54.3988V48.3155C644.336 47.4921 644.115 46.8521 643.675 46.4121C643.223 45.9588 642.527 45.7195 641.659 45.7195H636.014ZM641.653 58.0001H636.014C633.744 58.0001 632.333 56.6008 632.333 54.3481V48.3155C632.333 46.0968 633.744 44.7195 636.014 44.7195H641.659C642.798 44.7195 643.74 45.0608 644.383 45.7055C645.008 46.3328 645.337 47.2348 645.333 48.3168V54.3988C645.333 56.6201 643.923 58.0001 641.653 58.0001Z" fill="#222222"/>
</g>
</g>
<rect x="463.5" y="24.5" width="199" height="53" rx="7.5" stroke="#222222" stroke-opacity="0.2"/>
<rect x="675" y="24" width="260" height="54" rx="8" fill="white"/>
<path opacity="0.4" d="M696.14 37.5H691.82V44.5H692.95V38.58H696.14V37.5ZM699.066 38.88C697.496 38.88 696.216 40.09 696.216 41.75C696.216 43.39 697.476 44.62 699.066 44.62C700.666 44.62 701.916 43.4 701.916 41.75C701.916 40.09 700.646 38.88 699.066 38.88ZM699.066 39.96C700.016 39.96 700.776 40.69 700.776 41.75C700.776 42.81 700.026 43.54 699.066 43.54C698.106 43.54 697.356 42.81 697.356 41.75C697.356 40.69 698.116 39.96 699.066 39.96ZM705.717 44.62C707.007 44.62 708.167 43.85 708.427 42.49H707.257C707.047 43.17 706.437 43.57 705.717 43.57C704.727 43.57 704.007 42.82 704.007 41.75C704.007 40.69 704.707 39.93 705.727 39.93C706.437 39.93 707.047 40.31 707.257 41H708.427C708.177 39.67 707.027 38.88 705.727 38.88C704.087 38.88 702.867 40.11 702.867 41.75C702.867 43.39 704.087 44.62 705.717 44.62ZM713.646 39H711.856H708.926V40.06H710.726V44.5H711.856V40.06H713.646V39ZM718.321 39L715.601 43.03L715.671 41.3V39H714.541V44.5H715.871L718.591 40.46L718.521 42.2V44.5H719.651V39H718.321Z" fill="#222222"/>
<path d="M694.164 61.988L694.192 61.974L695.732 60.644C697.734 58.894 698.77 58.012 698.77 56.528C698.77 54.876 697.468 53.532 695.382 53.532C693.352 53.532 691.882 54.806 691.658 56.85H693.254C693.464 55.73 694.122 55.044 695.312 55.044C696.516 55.044 697.174 55.744 697.174 56.598C697.174 57.466 696.614 57.956 694.416 59.874L691.574 62.366V63.5H699.008V61.988H694.164Z" fill="#222222"/>
<path d="M709.957 59.37C710.587 58.992 711.007 58.53 711.007 57.746C711.007 56.332 709.957 55.8 708.291 55.8H704.707V63.5H708.627C710.335 63.5 711.385 62.744 711.385 61.288C711.385 60.35 710.909 59.65 709.957 59.37ZM709.411 58.04C709.411 58.586 709.089 58.978 708.137 58.978H706.289V57.046H708.165C709.131 57.046 709.411 57.424 709.411 58.04ZM708.529 62.254H706.289V60.126H708.515C709.453 60.126 709.789 60.532 709.789 61.162C709.789 61.806 709.509 62.254 708.529 62.254ZM718.122 59.426C718.724 59.132 719.13 58.642 719.13 57.858C719.13 56.486 717.884 55.632 715.924 55.632C713.782 55.632 712.774 56.64 712.494 57.984H714.104C714.314 57.102 715.07 56.836 715.896 56.836C717.1 56.836 717.534 57.34 717.534 57.97C717.534 58.53 717.212 58.922 716.134 58.922H714.986V60.14H716.414C717.52 60.14 717.772 60.672 717.772 61.204C717.772 61.946 717.24 62.436 716.008 62.436C714.804 62.436 714.118 62.03 713.894 60.966H712.298C712.592 62.562 713.642 63.668 716.05 63.668C718.066 63.668 719.368 62.8 719.368 61.316C719.368 60.448 718.948 59.734 718.122 59.426ZM725.194 55.632C723.976 55.632 723.052 56.234 722.492 57.116V55.8H720.91V67H722.492V62.212C723.052 63.08 723.976 63.668 725.18 63.668C727.238 63.668 728.736 62.002 728.736 59.65C728.736 57.298 727.21 55.632 725.194 55.632ZM724.844 62.156C723.5 62.156 722.478 61.134 722.478 59.65C722.478 58.18 723.5 57.144 724.844 57.144C726.188 57.144 727.14 58.18 727.14 59.65C727.14 61.134 726.174 62.156 724.844 62.156ZM734.066 55.632C731.868 55.632 730.076 57.326 730.076 59.65C730.076 61.946 731.84 63.668 734.066 63.668C736.306 63.668 738.056 61.96 738.056 59.65C738.056 57.326 736.278 55.632 734.066 55.632ZM734.066 57.144C735.396 57.144 736.46 58.166 736.46 59.65C736.46 61.134 735.41 62.156 734.066 62.156C732.722 62.156 731.672 61.134 731.672 59.65C731.672 58.166 732.736 57.144 734.066 57.144ZM743.377 63.668C745.183 63.668 746.807 62.59 747.171 60.686H745.533C745.239 61.638 744.385 62.198 743.377 62.198C741.991 62.198 740.983 61.148 740.983 59.65C740.983 58.166 741.963 57.102 743.391 57.102C744.385 57.102 745.239 57.634 745.533 58.6H747.171C746.821 56.738 745.211 55.632 743.391 55.632C741.095 55.632 739.387 57.354 739.387 59.65C739.387 61.946 741.095 63.668 743.377 63.668ZM750.211 55.8L749.483 60.364C749.245 61.792 748.923 62.198 748.181 62.198C748.027 62.198 747.873 62.17 747.719 62.156V63.584C747.971 63.626 748.251 63.668 748.503 63.668C749.819 63.668 750.673 62.8 751.051 60.504L751.555 57.284H754.103V63.5H755.685V55.8H750.211ZM761.316 58.208H759.104V55.8H757.522V63.5H761.26C762.842 63.5 764.074 62.646 764.074 60.798C764.074 58.95 762.898 58.208 761.316 58.208ZM765.208 55.8V63.5H766.79V55.8H765.208ZM761.204 61.988H759.104V59.608H761.232C762.198 59.608 762.478 60.084 762.478 60.798C762.478 61.484 762.17 61.988 761.204 61.988ZM775.483 63.5L772.739 59.566L775.343 55.8H773.439L771.787 58.376L770.079 55.8H768.189L770.793 59.538L768.035 63.5H769.939L771.731 60.742L773.593 63.5H775.483ZM779.362 62.744C779.362 61.904 778.76 61.694 778.326 61.694C777.752 61.694 777.304 62.1 777.304 62.702C777.304 63.164 777.57 63.486 777.962 63.612L776.968 65.908H778.018C779.334 63.416 779.376 63.024 779.362 62.744ZM789.817 55.982C788.655 55.982 787.549 56.528 786.989 57.592C787.213 54.596 788.837 54.05 792.337 54.05V52.552C788.067 52.552 785.379 53.49 785.379 58.964C785.393 62.198 787.241 63.668 789.397 63.668C791.595 63.668 793.303 62.086 793.303 59.692C793.303 57.452 791.777 55.982 789.817 55.982ZM789.327 62.296C787.997 62.296 786.975 61.316 786.975 59.776C786.975 58.292 788.109 57.34 789.411 57.34C790.727 57.34 791.721 58.306 791.721 59.776C791.721 61.316 790.657 62.296 789.327 62.296ZM798.611 55.632C796.287 55.632 794.635 57.34 794.635 59.664C794.635 61.988 796.301 63.668 798.639 63.668C800.277 63.668 801.747 62.856 802.349 61.134H800.711C800.347 61.89 799.577 62.282 798.653 62.282C797.365 62.282 796.371 61.498 796.245 60.084H802.503C802.657 57.55 801.089 55.632 798.611 55.632ZM798.611 57.004C799.773 57.004 800.571 57.746 800.809 58.796H796.329C796.595 57.76 797.407 57.004 798.611 57.004ZM809.395 59.426C809.997 59.132 810.403 58.642 810.403 57.858C810.403 56.486 809.157 55.632 807.197 55.632C805.055 55.632 804.047 56.64 803.767 57.984H805.377C805.587 57.102 806.343 56.836 807.169 56.836C808.373 56.836 808.807 57.34 808.807 57.97C808.807 58.53 808.485 58.922 807.407 58.922H806.259V60.14H807.687C808.793 60.14 809.045 60.672 809.045 61.204C809.045 61.946 808.513 62.436 807.281 62.436C806.077 62.436 805.391 62.03 805.167 60.966H803.571C803.865 62.562 804.915 63.668 807.323 63.668C809.339 63.668 810.641 62.8 810.641 61.316C810.641 60.448 810.221 59.734 809.395 59.426ZM824.011 62.016V55.8H818.509L817.823 60.07C817.641 61.162 817.417 61.75 817.067 62.016H815.723V65.502H817.305V63.5H823.829V65.502H825.411V62.016H824.011ZM818.789 62.016C819.055 61.624 819.251 61.036 819.391 60.14L819.853 57.284H822.429V62.016H818.789ZM830.152 55.632C827.828 55.632 826.176 57.34 826.176 59.664C826.176 61.988 827.842 63.668 830.18 63.668C831.818 63.668 833.288 62.856 833.89 61.134H832.252C831.888 61.89 831.118 62.282 830.194 62.282C828.906 62.282 827.912 61.498 827.786 60.084H834.044C834.198 57.55 832.63 55.632 830.152 55.632ZM830.152 57.004C831.314 57.004 832.112 57.746 832.35 58.796H827.87C828.136 57.76 828.948 57.004 830.152 57.004ZM841.444 55.8H838.938H834.836V57.284H837.356V63.5H838.938V57.284H841.444V55.8ZM846.257 55.632C843.933 55.632 842.281 57.34 842.281 59.664C842.281 61.988 843.947 63.668 846.285 63.668C847.923 63.668 849.393 62.856 849.995 61.134H848.357C847.993 61.89 847.223 62.282 846.299 62.282C845.011 62.282 844.017 61.498 843.891 60.084H850.149C850.303 57.55 848.735 55.632 846.257 55.632ZM846.257 57.004C847.419 57.004 848.217 57.746 848.455 58.796H843.975C844.241 57.76 845.053 57.004 846.257 57.004ZM855.278 54.638C856.496 54.638 857.56 53.826 857.56 52.468V52.146H856.3V52.412C856.3 53.042 855.894 53.434 855.278 53.434C854.648 53.434 854.242 53.042 854.242 52.412V52.146H852.982V52.468C852.982 53.826 854.046 54.638 855.278 54.638ZM856.986 55.8L853.178 61.442L853.276 59.02V55.8H851.694V63.5H853.556L857.364 57.844L857.266 60.28V63.5H858.848V55.8H856.986Z" fill="#7A7A7A"/>
<g opacity="0.4">
<path fill-rule="evenodd" clip-rule="evenodd" d="M914.529 47.8606C914.529 49.8186 912.959 51.3887 911 51.3887C909.041 51.3887 907.471 49.8186 907.471 47.8606C907.471 45.9026 909.041 44.3333 911 44.3333C912.959 44.3333 914.529 45.9026 914.529 47.8606ZM911 57.6666C908.108 57.6666 905.667 57.1966 905.667 55.3832C905.667 53.5692 908.124 53.1159 911 53.1159C913.892 53.1159 916.333 53.5859 916.333 55.3992C916.333 57.2132 913.876 57.6666 911 57.6666Z" fill="#222222"/>
</g>
<rect x="675.5" y="24.5" width="259" height="53" rx="7.5" stroke="#222222" stroke-opacity="0.2"/>
<rect x="947" y="24" width="135" height="54" rx="8" fill="#FC6733"/>
<path d="M988.422 45.7H982.066H980.064V55.5H982.066V47.604H986.42V55.5H988.422V45.7ZM994.106 47.632C991.894 47.632 990.102 49.326 990.102 51.65C990.102 53.96 991.866 55.668 994.106 55.668C996.36 55.668 998.124 53.974 998.124 51.65C998.124 49.326 996.332 47.632 994.106 47.632ZM994.106 49.536C995.226 49.536 996.094 50.39 996.094 51.65C996.094 52.924 995.226 53.764 994.106 53.764C992.986 53.764 992.118 52.924 992.118 51.65C992.118 50.39 992.986 49.536 994.106 49.536ZM1007.24 55.5L1003.49 51.468L1007 47.8H1004.45L1001.53 51.006V47.8H999.527V55.5H1001.53V52.14L1004.68 55.5H1007.24ZM1013.18 47.8V48.878C1012.65 48.136 1011.84 47.632 1010.75 47.632C1008.77 47.632 1007.25 49.27 1007.25 51.65C1007.25 54.016 1008.74 55.668 1010.76 55.668C1011.84 55.668 1012.64 55.192 1013.17 54.464V55.5H1015.17L1015.18 47.8H1013.18ZM1011.21 53.764C1010.1 53.764 1009.26 52.924 1009.26 51.65C1009.26 50.39 1010.09 49.536 1011.21 49.536C1012.33 49.536 1013.18 50.39 1013.18 51.65C1013.18 52.924 1012.33 53.764 1011.21 53.764ZM1022.44 51.426C1023 51.146 1023.39 50.67 1023.39 49.886C1023.39 48.416 1022.02 47.632 1020.08 47.632C1017.75 47.632 1016.82 48.752 1016.57 50.11H1018.6C1018.75 49.312 1019.37 49.116 1020.06 49.116C1021.04 49.116 1021.37 49.494 1021.37 50.026C1021.37 50.516 1021.12 50.782 1020.28 50.782H1019.2V52.322H1020.49C1021.39 52.322 1021.61 52.686 1021.61 53.148C1021.61 53.778 1021.18 54.142 1020.15 54.142C1019.15 54.142 1018.6 53.82 1018.45 52.91H1016.42C1016.7 54.492 1017.69 55.668 1020.2 55.668C1022.21 55.668 1023.64 54.87 1023.64 53.288C1023.64 52.392 1023.19 51.734 1022.44 51.426ZM1030.7 47.8V48.878C1030.16 48.136 1029.35 47.632 1028.26 47.632C1026.29 47.632 1024.76 49.27 1024.76 51.65C1024.76 54.016 1026.26 55.668 1028.27 55.668C1029.35 55.668 1030.15 55.192 1030.68 54.464V55.5H1032.68L1032.7 47.8H1030.7ZM1028.72 53.764C1027.62 53.764 1026.78 52.924 1026.78 51.65C1026.78 50.39 1027.6 49.536 1028.72 49.536C1029.84 49.536 1030.7 50.39 1030.7 51.65C1030.7 52.924 1029.84 53.764 1028.72 53.764ZM1040.55 47.8H1038.17H1033.8V49.69H1036.17V55.5H1038.17V49.69H1040.55V47.8ZM1045.63 50.054H1043.67L1043.65 47.8H1041.65L1041.66 55.5H1045.57C1047 55.5 1048.43 54.73 1048.43 52.714C1048.43 50.698 1047.05 50.054 1045.63 50.054ZM1045.5 53.596H1043.67V51.818H1045.5C1046.17 51.818 1046.41 52.154 1046.41 52.714C1046.41 53.232 1046.17 53.596 1045.5 53.596Z" fill="white"/>
<path d="M32.448 36.452H28.818V33.592H36.43V30.6H28.818H25.672V46H32.294C35.594 46 37.574 44.284 37.574 41.182C37.574 38.058 35.814 36.452 32.448 36.452ZM32.184 43.008H28.818V39.334H32.338C33.812 39.334 34.406 39.906 34.406 41.138C34.406 42.37 33.658 43.008 32.184 43.008ZM46.754 33.636C45.06 33.636 43.762 34.428 42.926 35.594V33.9H39.78V51.5H42.926V44.372C43.784 45.516 45.038 46.264 46.754 46.264C49.9 46.264 52.276 43.668 52.276 39.95C52.276 36.21 49.856 33.636 46.754 33.636ZM46.028 43.272C44.268 43.272 42.926 41.952 42.926 39.95C42.926 37.97 44.268 36.628 46.028 36.628C47.788 36.628 49.086 37.97 49.086 39.95C49.086 41.952 47.766 43.272 46.028 43.272ZM60.4788 33.636C57.0028 33.636 54.1868 36.298 54.1868 39.95C54.1868 43.58 56.9588 46.264 60.4788 46.264C64.0208 46.264 66.7928 43.602 66.7928 39.95C66.7928 36.298 63.9768 33.636 60.4788 33.636ZM60.4788 36.628C62.2388 36.628 63.6028 37.97 63.6028 39.95C63.6028 41.952 62.2388 43.272 60.4788 43.272C58.7188 43.272 57.3548 41.952 57.3548 39.95C57.3548 37.97 58.7188 36.628 60.4788 36.628ZM77.5762 33.9V38.366H72.1422V33.9H68.9962V46H72.1422V41.336H77.5762V46H80.7222V33.9H77.5762ZM91.2043 33.9L86.2323 41.732L86.3863 38.19V33.9H83.2403V46H86.8703L91.8643 38.124L91.6663 41.71V46H94.8123V33.9H91.2043ZM104.418 33.636C102.724 33.636 101.426 34.428 100.59 35.594V33.9H97.4441V51.5H100.59V44.372C101.448 45.516 102.702 46.264 104.418 46.264C107.564 46.264 109.94 43.668 109.94 39.95C109.94 36.21 107.52 33.636 104.418 33.636ZM103.692 43.272C101.932 43.272 100.59 41.952 100.59 39.95C100.59 37.97 101.932 36.628 103.692 36.628C105.452 36.628 106.75 37.97 106.75 39.95C106.75 41.952 105.43 43.272 103.692 43.272ZM118.143 33.636C114.667 33.636 111.851 36.298 111.851 39.95C111.851 43.58 114.623 46.264 118.143 46.264C121.685 46.264 124.457 43.602 124.457 39.95C124.457 36.298 121.641 33.636 118.143 33.636ZM118.143 36.628C119.903 36.628 121.267 37.97 121.267 39.95C121.267 41.952 119.903 43.272 118.143 43.272C116.383 43.272 115.019 41.952 115.019 39.95C115.019 37.97 116.383 36.628 118.143 36.628ZM135.284 39.466C136.186 38.872 136.846 38.212 136.846 36.958C136.846 34.538 134.932 33.9 132.512 33.9H126.66V46H133.062C135.548 46 137.462 44.988 137.462 42.502C137.462 40.962 136.692 39.884 135.284 39.466ZM133.678 37.552C133.678 38.3 133.326 38.696 132.248 38.696H129.806V36.364H132.248C133.326 36.364 133.678 36.76 133.678 37.552ZM132.82 43.536H129.806V40.94H132.82C133.876 40.94 134.272 41.358 134.272 42.216C134.272 43.096 133.92 43.536 132.82 43.536ZM148.614 33.9V35.594C147.778 34.428 146.502 33.636 144.786 33.636C141.684 33.636 139.286 36.21 139.286 39.95C139.286 43.668 141.64 46.264 144.808 46.264C146.502 46.264 147.756 45.516 148.592 44.372V46H151.738L151.76 33.9H148.614ZM145.512 43.272C143.774 43.272 142.454 41.952 142.454 39.95C142.454 37.97 143.752 36.628 145.512 36.628C147.272 36.628 148.614 37.97 148.614 39.95C148.614 41.952 147.272 43.272 145.512 43.272ZM162.848 33.9V38.366H157.414V33.9H154.268V46H157.414V41.336H162.848V46H165.994V33.9H162.848ZM176.476 33.9L171.504 41.732L171.658 38.19V33.9H168.512V46H172.142L177.136 38.124L176.938 41.71V46H180.084V33.9H176.476ZM188.634 33.636C184.938 33.636 182.32 36.342 182.32 39.972C182.32 43.58 184.916 46.264 188.7 46.264C191.296 46.264 193.716 45.01 194.618 42.15H191.362C190.944 43.118 189.888 43.668 188.678 43.668C187.05 43.668 185.73 42.7 185.532 40.764H194.816C195.124 36.782 192.638 33.636 188.634 33.636ZM188.612 36.232C190.13 36.232 191.12 37.134 191.472 38.454H185.686C186.082 37.156 187.072 36.232 188.612 36.232ZM33.834 59.9V64.366H28.4V59.9H25.254V72H28.4V67.336H33.834V72H36.98V59.9H33.834ZM45.5041 59.636C42.0281 59.636 39.2121 62.298 39.2121 65.95C39.2121 69.58 41.9841 72.264 45.5041 72.264C49.0461 72.264 51.8181 69.602 51.8181 65.95C51.8181 62.298 49.0021 59.636 45.5041 59.636ZM45.5041 62.628C47.2641 62.628 48.6281 63.97 48.6281 65.95C48.6281 67.952 47.2641 69.272 45.5041 69.272C43.7441 69.272 42.3801 67.952 42.3801 65.95C42.3801 63.97 43.7441 62.628 45.5041 62.628ZM63.8996 59.9L60.7756 64.212L57.6516 59.9H54.0216V72H57.1676V67.71L56.9696 63.574L60.7316 68.986H60.8196L64.5816 63.574L64.3616 67.71V72H67.5076V59.9H63.8996ZM76.0554 59.636C72.3594 59.636 69.7414 62.342 69.7414 65.972C69.7414 69.58 72.3374 72.264 76.1214 72.264C78.7174 72.264 81.1374 71.01 82.0394 68.15H78.7834C78.3654 69.118 77.3094 69.668 76.0994 69.668C74.4714 69.668 73.1514 68.7 72.9534 66.764H82.2374C82.5454 62.782 80.0594 59.636 76.0554 59.636ZM76.0334 62.232C77.5514 62.232 78.5414 63.134 78.8934 64.454H73.1074C73.5034 63.156 74.4934 62.232 76.0334 62.232ZM91.463 59.636C89.769 59.636 88.471 60.428 87.635 61.594V59.9H84.489V77.5H87.635V70.372C88.493 71.516 89.747 72.264 91.463 72.264C94.609 72.264 96.985 69.668 96.985 65.95C96.985 62.21 94.565 59.636 91.463 59.636ZM90.737 69.272C88.977 69.272 87.635 67.952 87.635 65.95C87.635 63.97 88.977 62.628 90.737 62.628C92.497 62.628 93.795 63.97 93.795 65.95C93.795 67.952 92.475 69.272 90.737 69.272ZM105.188 59.636C101.712 59.636 98.8957 62.298 98.8957 65.95C98.8957 69.58 101.668 72.264 105.188 72.264C108.73 72.264 111.502 69.602 111.502 65.95C111.502 62.298 108.686 59.636 105.188 59.636ZM105.188 62.628C106.948 62.628 108.312 63.97 108.312 65.95C108.312 67.952 106.948 69.272 105.188 69.272C103.428 69.272 102.064 67.952 102.064 65.95C102.064 63.97 103.428 62.628 105.188 62.628ZM122.329 65.466C123.231 64.872 123.891 64.212 123.891 62.958C123.891 60.538 121.977 59.9 119.557 59.9H113.705V72H120.107C122.593 72 124.507 70.988 124.507 68.502C124.507 66.962 123.737 65.884 122.329 65.466ZM120.723 63.552C120.723 64.3 120.371 64.696 119.293 64.696H116.851V62.364H119.293C120.371 62.364 120.723 62.76 120.723 63.552ZM119.865 69.536H116.851V66.94H119.865C120.921 66.94 121.317 67.358 121.317 68.216C121.317 69.096 120.965 69.536 119.865 69.536Z" fill="#222222"/>
</g>
<defs>
<filter id="filter0_b_917_2133" x="-40" y="-40" width="1186" height="182" filterUnits="userSpaceOnUse" color-interpolation-filters="sRGB">
<feFlood flood-opacity="0" result="BackgroundImageFix"/>
<feGaussianBlur in="BackgroundImageFix" stdDeviation="20"/>
<feComposite in2="SourceAlpha" operator="in" result="effect1_backgroundBlur_917_2133"/>
<feBlend mode="normal" in="SourceGraphic" in2="effect1_backgroundBlur_917_2133" result="shape"/>
</filter>
</defs>
</svg>
