<svg width="80" height="84" viewBox="0 0 80 84" fill="none" xmlns="http://www.w3.org/2000/svg"><path d="M3.5 71c0-1.457.003-2.398.096-3.092.088-.65.23-.855.343-.969.115-.114.318-.255.97-.342.693-.094 1.634-.097 3.091-.097h11c1.457 0 2.398.003 3.092.097.65.087.854.228.969.342.114.115.255.318.343.969.093.694.096 1.635.096 3.092v7c0 1.457-.003 2.398-.096 3.092-.088.65-.23.855-.343.969-.114.114-.319.255-.97.342-.693.094-1.634.097-3.091.097H8c-1.457 0-2.398-.003-3.092-.097-.65-.087-.854-.228-.969-.342-.114-.115-.255-.319-.343-.97C3.503 80.399 3.5 79.458 3.5 78v-7zm26-17c0-1.457.003-2.398.096-3.092.088-.65.23-.855.343-.969.114-.114.319-.255.97-.343.693-.093 1.634-.096 3.091-.096h11c1.457 0 2.398.003 3.092.096.65.088.854.23.969.343.114.114.255.318.343.97.093.693.096 1.634.096 3.091v24c0 1.457-.003 2.398-.096 3.092-.088.65-.23.855-.343.969-.114.114-.319.255-.97.342-.693.094-1.634.097-3.091.097H34c-1.457 0-2.398-.003-3.092-.097-.65-.087-.855-.228-.969-.342-.114-.115-.255-.319-.343-.97-.093-.693-.096-1.634-.096-3.091V54zm27-12c0-1.457.003-2.398.096-3.092.088-.65.23-.855.343-.969.114-.114.319-.255.97-.343.693-.093 1.634-.096 3.091-.096h11c1.457 0 2.398.003 3.092.096.65.088.854.23.969.343.114.114.255.318.342.97.094.693.097 1.634.097 3.091v36c0 1.457-.003 2.398-.097 3.092-.087.65-.228.855-.342.969-.115.114-.319.255-.97.342-.693.094-1.634.097-3.091.097H61c-1.457 0-2.398-.003-3.092-.097-.65-.087-.855-.228-.969-.342-.114-.115-.255-.319-.343-.97-.093-.693-.096-1.634-.096-3.091V42z" stroke="#0085FF" stroke-width="3"/><path d="M1.301 44.673A1.5 1.5 0 002.7 47.327l-1.4-2.654zM79.433 6.445a1.5 1.5 0 00-.988-1.878L65.55.566a1.5 1.5 0 00-.889 2.865l11.46 3.557-3.556 11.46a1.5 1.5 0 002.865.89l4.002-12.893zM2.699 47.327l76-40L77.3 4.673l-76 40 1.4 2.654z" fill="#0085FF"/></svg>