<svg width="75" height="71" viewBox="0 0 75 71" fill="none" xmlns="http://www.w3.org/2000/svg"><path d="M38.003 1.236c-1.777.65-2.952 1.676-3.685 3.254l-.457.976v10.089l-.587 1.708c-1.028 2.946-3.833 8.755-5.74 11.928-.849 1.399-1.631 2.408-2.854 3.71L23 34.674l-.538-.7a5.793 5.793 0 00-1.305-1.204c-1.5-1.025-1.582-1.025-10.73-1.025-8.514 0-8.742.017-9.215.635-.163.195-.196 4.426-.212 18.533v17.698a1.388 1.388 0 001.391 1.386l8.263-.046 8.856-.049.93-.455c.554-.277 1.255-.814 1.744-1.35l.832-.896.701.57c.375.309 1.223.813 1.892 1.139 2.365 1.123 1.663 1.09 20.157 1.041l16.634-.049.897-.358c1.827-.748 3.409-2.343 4.11-4.116.522-1.35.49-3.336-.065-4.687l-.424-1.008.7-.423c.98-.57 2.154-1.872 2.66-2.962.39-.83.44-1.123.44-2.717 0-1.465-.066-1.92-.327-2.506l-.342-.732.978-.651c1.957-1.318 2.92-3.14 2.92-5.549 0-1.725-.343-2.799-1.338-4.1l-.652-.847.717-1.074c1.582-2.343 1.745-4.962.506-7.5-.962-1.92-2.707-3.369-4.73-3.906-.668-.179-2.919-.228-11.073-.228H47.136l-.392-.407c-.228-.211-.407-.504-.407-.65 0-.147.358-1.449.799-2.897 2.446-8.054 2.511-12.285.244-16.141-.913-1.546-3-3.694-4.305-4.426-1.712-.96-3.735-1.286-5.072-.781zm2.658 2.522c1.533.44 3.458 2.245 4.68 4.426.637 1.123.8 1.676.98 3.205.293 2.425-.294 5.988-1.794 10.821-.44 1.432-.8 2.815-.8 3.108 0 1.383 1.028 2.912 2.349 3.515.636.276 1.288.309 11.106.309h10.437l.978.455c1.778.846 2.756 2.376 2.756 4.345 0 1.594-.521 2.669-1.842 3.824-.865.78-.995.96-.995 1.464 0 .52.13.7 1.043 1.514 2.104 1.854 2.463 4.263.881 6.053-.75.846-1.207 1.122-2.348 1.399-1.566.374-2.006 1.4-1.044 2.473 1.044 1.188 1.386 2.75.946 4.215-.391 1.301-2.088 2.717-3.278 2.733-.57 0-1.419.797-1.419 1.335 0 .211.326.813.718 1.334.832 1.106 1.076 1.822 1.076 3.091 0 1.107-.359 1.872-1.256 2.718-1.37 1.302.212 1.204-18.07 1.253-11.317.032-16.568-.017-17.172-.147-1.272-.26-3.082-1.236-4.06-2.18l-.865-.83V37.782l2.235-2.376c2.397-2.554 3.033-3.4 4.745-6.394 1.142-1.97 3.719-7.323 4.583-9.503 1.19-3.01 1.24-3.287 1.24-8.754 0-4.914 0-4.963.374-5.565.816-1.318 2.267-1.855 3.816-1.432zM19.705 34.869c.392.26.8.716 1.012 1.14.342.715.342.78.342 14.855 0 14.075 0 14.14-.342 14.857-.212.423-.62.878-1.011 1.139l-.67.439-7.713.049-7.714.049V34.332l7.714.05 7.714.048.669.44z" fill="#0085FF" stroke="#0085FF"/></svg>