<svg width="71" height="59" viewBox="0 0 71 59" fill="none" xmlns="http://www.w3.org/2000/svg"><path d="M1.5 22.165c0-3.68.003-6.298.257-8.31.25-1.97.721-3.168 1.527-4.091.806-.923 1.925-1.55 3.837-2.057 1.954-.519 4.54-.867 8.176-1.354l27.561-3.686c5.233-.7 8.993-1.199 11.83-1.165 2.799.032 4.384.585 5.504 1.71 1.12 1.125 1.67 2.72 1.7 5.53.03 2.847-.474 6.619-1.178 11.866L57.708 43c-.49 3.641-.84 6.233-1.36 8.19-.508 1.918-1.133 3.04-2.053 3.847-.92.806-2.11 1.277-4.07 1.527-2.003.255-4.61.257-8.273.257H17.398c-4.143 0-7.1-.003-9.345-.306-2.201-.297-3.494-.856-4.443-1.808-.95-.953-1.509-2.251-1.805-4.462-.302-2.253-.305-5.22-.305-9.375V22.165z" fill="#fff" stroke="#0085FF" stroke-width="3"/><path d="M1.5 26.625c0-4.226.003-7.245.312-9.538.302-2.25.874-3.577 1.848-4.552.975-.975 2.301-1.546 4.552-1.848 2.293-.309 5.312-.312 9.538-.312h35.5c4.226 0 7.245.003 9.538.312 2.25.302 3.577.873 4.552 1.848.974.975 1.546 2.301 1.849 4.552.308 2.293.311 5.312.311 9.538v13.946c0 4.227-.003 7.245-.311 9.539-.303 2.25-.874 3.577-1.85 4.551-.974.975-2.3 1.546-4.55 1.849-2.294.308-5.313.311-9.539.311h-35.5c-4.226 0-7.245-.003-9.538-.311-2.25-.303-3.577-.874-4.552-1.849-.974-.974-1.546-2.3-1.848-4.551-.309-2.294-.312-5.312-.312-9.539V26.625z" fill="#fff" stroke="#0085FF" stroke-width="3"/></svg>