<svg width="51" height="83" viewBox="0 0 51 83" fill="none" xmlns="http://www.w3.org/2000/svg"><path d="M11.962 1.177c-2.249.744-3.717 2.532-4.091 5.001-.079.57-.266 7.075-.406 14.483-.141 7.391-.282 13.754-.328 14.118-.063.586-.14.696-.5.776-.234.063-.921.332-1.53.633-2.062.981-3.374 2.77-3.904 5.286-.516 2.454-.016 7.218 1.14 10.826 1.061 3.34 2.108 5.271 4.778 8.832 2.795 3.736 2.78 3.688 2.936 9.465.078 3.277.187 4.796.359 5.524.859 3.419 2.936 5.065 7.12 5.635 2 .285 16.179.332 18.272.079 2.701-.332 4.34-.95 5.543-2.073 1.874-1.757 2.42-3.957 2.42-9.861 0-4.179.188-4.764 2.515-7.898 1.593-2.137 2.467-3.799 3.014-5.682.687-2.438.734-3.53.687-16.35l-.047-12.03-.375-.79c-.812-1.647-2.42-2.787-4.466-3.135-1.218-.206-2.576.016-3.748.602-.703.364-.796.364-.937.142-1.28-2.137-3.03-3.197-5.497-3.355-2.014-.111-3.95.617-5.262 2.01l-.453.475-.78-.713c-1.375-1.25-2.812-1.804-4.654-1.804-1.218 0-2.796.443-3.655 1.029-.312.221-.608.38-.64.348-.031-.032-.171-3.799-.312-8.357-.25-9.117-.312-9.608-1.234-11.016-.609-.934-1.265-1.472-2.358-1.963-.952-.427-2.686-.554-3.607-.237zm2.733 2.231c1.124.491 1.858 1.552 1.999 2.897.046.411.203 5.397.359 11.095l.28 10.352.344.3c.797.65 1.703.159 1.843-.981.406-3.229 4.654-4.653 7.215-2.422.78.665 1.108 1.25 1.327 2.422.203 1.029.703 1.44 1.437 1.187.515-.19.624-.396.843-1.535.562-2.976 4.747-4.195 7.168-2.074.765.65 1.187 1.44 1.312 2.422.062.459.203.807.421.981.593.49 1.015.349 1.936-.57 1.234-1.266 2.608-1.63 4.217-1.14.952.302 1.733.919 2.124 1.679.296.601.312.95.312 12.535 0 9.703-.047 12.188-.234 13.343-.422 2.675-1.047 4.052-3.123 6.885-1.906 2.596-2.546 3.957-2.827 5.888l-.094.76H12.26l-.11-.84c-.171-1.265-.796-3.101-1.405-4.13-.312-.507-1.218-1.789-2.015-2.85-2.358-3.086-3.31-4.858-4.278-7.85-.844-2.611-1.187-4.827-1.203-7.597 0-2.722.219-3.609 1.156-4.764.421-.523 2.092-1.567 2.498-1.567.125 0 .172.76.172 2.437 0 2.58.063 2.786.765 3.023.422.127 1.093-.174 1.25-.585.062-.206.28-8.31.468-18.012.187-9.703.422-17.996.5-18.44.187-.95.78-2.01 1.358-2.421.953-.68 2.265-.84 3.28-.428zM41.585 71.5c-.015 5.24-.905 6.933-4.138 7.835-1.202.333-1.561.348-9.526.412-8.65.063-10.29-.016-12.117-.602-1.422-.443-2.218-1.092-2.796-2.263-.578-1.203-.78-2.548-.78-5.223v-2.01h29.358V71.5z" fill="#0085FF" stroke="#0085FF"/></svg>