<svg width="72" height="59" viewBox="0 0 72 59" fill="none" xmlns="http://www.w3.org/2000/svg"><path d="M38.875 29.017H60.93m-22.055 7.729H60.93m-22.055 7.728H60.93M23.534 10.661H1V58h70V10.661H48.466m-24.452-4.83v9.66h23.972v-9.66h-5.993V1H30.007v4.83h-5.993z" stroke="#2655FF" stroke-width="2"/><path d="M7.796 48.305c.503-5.921 5.432-10.56 11.424-10.56h.959c5.991 0 10.92 4.639 11.423 10.56H7.796zM24.932 29.5c0 2.923-2.35 5.28-5.233 5.28-2.883 0-5.233-2.357-5.233-5.28s2.35-5.28 5.233-5.28c2.883 0 5.233 2.357 5.233 5.28z" stroke="#2655FF" stroke-width="2"/></svg>