<svg width="73" height="42" viewBox="0 0 73 42" fill="none" xmlns="http://www.w3.org/2000/svg"><path d="M50.297 28.574c3.412 3.328 5.424 7.759 5.676 12.426H17.027c.252-4.667 2.264-9.098 5.676-12.426C26.358 25.008 31.32 23 36.5 23s10.142 2.008 13.797 5.574zM45.75 10c0 4.947-4.118 9-9.25 9s-9.25-4.053-9.25-9 4.118-9 9.25-9 9.25 4.053 9.25 9zm12.654 17.412c2.394.022 4.741.662 6.807 1.855a13.627 13.627 0 014.97 4.946A13.38 13.38 0 0172 40.94H58.273m3.807-20.631c0 2.236-1.844 4.073-4.148 4.073-2.304 0-4.147-1.837-4.147-4.073 0-2.237 1.843-4.074 4.147-4.074 2.304 0 4.147 1.837 4.147 4.074zm-47.485 7.103a13.876 13.876 0 00-6.808 1.855 13.626 13.626 0 00-4.97 4.946A13.38 13.38 0 001 40.94h13.726m4.49-20.631c0 2.236-1.843 4.073-4.147 4.073-2.304 0-4.147-1.837-4.147-4.073 0-2.237 1.843-4.074 4.147-4.074 2.304 0 4.147 1.837 4.147 4.074z" stroke="#2655FF" stroke-width="2"/></svg>