<svg width="70" height="70" viewBox="0 0 70 70" fill="none" xmlns="http://www.w3.org/2000/svg"><path d="M9.964.342L9.615.67v25.148l-.655.096a3.577 3.577 0 00-2.121 1.066c-.433.452-.754 1.354-3.656 10.106C-.305 47.616-.305 47.616.31 48.806c.572 1.093.949 1.285 5.386 2.693 2.637.834 4.283 1.286 4.688 1.286.572 0 .642.04 1.018.574a6.7 6.7 0 00.698.848l.293.246-1.13 1.668c-1.34 1.928-1.493 2.311-1.493 3.501a3.659 3.659 0 001.172 2.776c.53.506 1.562 1.053 1.981 1.053.726.014.879.15.879.82 0 .917.684 2.189 1.507 2.804 1.325.998 2.874 1.121 4.423.342.46-.233.85-.37.879-.287.027.068.265.41.516.738 1.228 1.573 3.837 1.956 5.455.807l.544-.383.628.629c1.019 1.026 2.316 1.326 3.683.875.642-.219 1.563-.943 1.856-1.477.126-.232.251-.191 1.772.602 1.367.711 1.786.861 2.511.916 2.065.164 3.851-1.19 4.186-3.186l.098-.56.934-.07c2.205-.163 4.075-2.01 4.075-4.033V61.4h1.018c1.256 0 2.19-.397 3.083-1.3.684-.683 1.2-1.818 1.2-2.639v-.505h1.158c.95-.014 1.27-.069 1.94-.383a4.275 4.275 0 002.441-3.515l.084-.793.572.26c.307.137.865.26 1.242.26.907 0 8.553-2.42 9.236-2.927.265-.205.656-.683.851-1.08.628-1.19.572-1.395-2.916-11.897-2.846-8.547-3.167-9.463-3.6-9.9a3.577 3.577 0 00-2.12-1.067l-.656-.096V11.555l-5.748-5.62C51.486 2.83 48.75.232 48.583.15 48.375.041 42.878 0 29.289 0h-18.99l-.335.342zm37.462 6.783c0 2.953.055 5.032.14 5.182.264.493.878.547 5.817.547h4.786l-.028 6.865-.042 6.865-3 .97c-1.66.534-3.209 1.108-3.46 1.273-.6.423-1.13 1.367-1.228 2.174-.07.492 0 .943.265 1.791l.35 1.121-.782.22c-.432.122-1.2.232-1.702.232-.81 0-1.005-.055-1.884-.575-1.911-1.107-4.116-1.79-5.832-1.79-.879 0-2.427.383-4.171 1.026l-1.256.45-.88-.382c-.487-.219-1.687-.643-2.678-.957-1.493-.493-1.967-.588-2.916-.588-1.716 0-3.07.369-5.204 1.436-2.023.998-2.372 1.08-3.809.78-.405-.083-.753-.165-.781-.192-.014-.014.097-.452.265-.971.488-1.546.098-2.995-1.019-3.774-.25-.165-1.8-.739-3.46-1.272l-3-.971-.041-12.198-.028-12.198h35.578v4.937zm8.762 3.432c.027.055-1.424.11-3.237.11h-3.293V4.198l3.25 3.13c1.773 1.71 3.266 3.173 3.28 3.228zM13.34 29.36c3.669 1.162 4.088 1.354 4.088 1.942 0 .396-6.167 18.83-6.377 19.049a.908.908 0 01-.586.246c-.502 0-7.701-2.311-7.994-2.571-.14-.11-.251-.37-.251-.574 0-.315 5.762-18.01 6.139-18.844.153-.356.641-.588 1.046-.479.154.041 1.925.588 3.935 1.23zm48.148-.998c.224.205 6.307 18.61 6.307 19.09 0 .205-.112.465-.237.574-.307.26-7.507 2.57-8.009 2.57a.908.908 0 01-.586-.245c-.21-.233-6.376-18.666-6.376-19.077 0-.547.502-.793 4.325-2.01 3.711-1.176 4.172-1.272 4.576-.902zm-30.345 5.852c.739.22 1.353.465 1.353.534 0 .068-.265.246-.586.41-.88.438-3.516 2.174-4.646 3.05-1.563 1.23-4.228 3.883-4.325 4.307-.098.438.362 1.518 1.186 2.817 1.018 1.573 2.176 2.297 3.683 2.284.725 0 1.758-.288 6.641-1.874l5.776-1.887.712.178c1.311.314 3.753 1.258 5.72 2.174 2.637 1.245 6.74 3.72 7.925 4.786.921.82 1.172 1.956.628 2.749-.516.738-1.005 1.012-1.828 1.012-.683.014-1.004-.137-5.092-2.284-2.958-1.531-4.52-2.283-4.814-2.283-.935 0-1.437 1.135-.753 1.736.167.164 1.34.82 2.609 1.477 3.6 1.873 4.116 2.188 4.38 2.721.712 1.477-.292 3.118-1.938 3.118-.53 0-1.075-.232-3.517-1.518-3.753-1.941-3.767-1.955-4.31-1.723-.559.233-.796.807-.545 1.382.14.314.572.601 2.302 1.49 2.4 1.23 2.79 1.6 2.902 2.653.084.889-.25 1.559-1.018 1.996-1.019.602-1.312.52-4.702-1.23-1.66-.862-3.181-1.573-3.362-1.573-.377 0-.866.41-1.005.82-.223.684.14 1.026 2.386 2.202 1.297.684 2.246 1.258 2.386 1.477.153.219.237.602.237.957-.014.52-.084.67-.517 1.067-.739.656-1.213.615-2.916-.26-1.046-.533-1.353-.752-1.297-.916.056-.123.167-.533.237-.903.349-1.572-.781-3.35-2.414-3.815-.934-.273-1.283-.273-2.19.041l-.726.246-.223-.465c-.544-1.107-2.204-2.092-3.544-2.092-.697 0-1.841.356-2.302.711-.39.287-.404.301-.544.041-.32-.547-1.284-1.463-1.786-1.723a6.43 6.43 0 00-1.2-.41l-.683-.137-.084-.793c-.084-.998-.46-1.723-1.256-2.448-.865-.766-1.507-1.012-2.692-1.039-1.145-.027-1.55-.219-2.107-1.053-.35-.52-.363-.574-.154-.916.126-.205 1.34-3.76 2.693-7.89 1.367-4.144 2.525-7.563 2.567-7.617.056-.055.558-.014 1.13.109a8.54 8.54 0 002.135.15c.977-.068 1.2-.136 2.302-.752 2.177-1.203 3.92-1.723 5.26-1.572.307.027 1.172.246 1.925.478zm11.426.233c1.019.26 2.526.93 3.614 1.6 1.018.629 3.07.684 4.939.137l.614-.192.21.643c3.39 10.27 4.129 12.499 4.101 12.526-.028.027-1.088-.643-2.372-1.49-4.032-2.64-7.24-4.199-11.315-5.498l-2.065-.656-6.209 2.024c-5.72 1.86-6.25 1.996-6.683 1.86-.558-.178-1.27-.917-1.744-1.82l-.349-.67 1.186-1.107c3.433-3.214 7.409-5.58 11.72-6.988 2.149-.711 2.777-.766 4.353-.37zM16.103 55.574c.614.26 1.046.944 1.046 1.655 0 .451-.18.807-1.046 2.079-.572.847-1.186 1.627-1.353 1.736-1.228.78-2.763-.054-2.763-1.49 0-.465.14-.793.712-1.655 1.046-1.559 1.52-2.12 1.995-2.325.558-.232.823-.232 1.41 0zm4.367 4.568c.447.287.726.875.726 1.518 0 .45-.182.807-1.005 2.01-1.186 1.723-1.563 2.037-2.4 2.024-1.046-.028-1.758-.739-1.758-1.792 0-.396.21-.806.99-1.969.545-.807 1.103-1.572 1.243-1.696.558-.492 1.52-.533 2.204-.095zM27 61.605c.474.3.795 1.094.697 1.696-.097.615-1.953 3.323-2.47 3.623-.6.342-1.562.288-2.064-.136-.544-.438-.81-1.245-.6-1.805.084-.233.6-1.067 1.144-1.874 1.088-1.586 1.493-1.887 2.414-1.791.293.027.683.164.879.287zm5.148 1.873c.39.178.767.753.767 1.176 0 .37-1.576 2.694-2.009 2.982-.781.492-1.897-.164-1.897-1.108 0-.616 1.549-2.845 2.162-3.09.391-.151.559-.151.977.04z" fill="#2655FF"/></svg>