<svg width="151" height="41" viewBox="0 0 151 41" fill="none" xmlns="http://www.w3.org/2000/svg"><path opacity=".4" d="M19.399 0v9.67l10.445 9.67L40.29 9.67V0L29.844 9.67 19.4 0z" fill="#FC6733" fill-opacity=".4"/><path opacity=".6" d="M0 19.34h9.7l9.699-9.67L9.699 0H0l9.7 9.67L0 19.34z" fill="#FC6733" fill-opacity=".6"/><path d="M40.29 19.34H29.844L19.4 29.753l10.445 10.414H40.29L29.844 29.753 40.29 19.34z" fill="#FC6733"/><path opacity=".8" d="M19.399 40.167V29.753l-9.7-10.413L0 29.753v10.414l9.7-10.414 9.699 10.414z" fill="#FC6733" fill-opacity=".8"/><path d="M57.002 8.35H53.72V5.773h6.884V3.075h-9.73v13.884h5.99c2.984 0 4.774-1.547 4.774-4.343 0-2.817-1.591-4.265-4.636-4.265zm-.238 5.912H53.72v-3.313h3.183c1.333 0 1.87.516 1.87 1.627 0 1.11-.676 1.686-2.01 1.686zm13.176-8.45c-1.531 0-2.705.714-3.462 1.765V6.05h-2.845v15.868h2.845v-6.426c.776 1.031 1.91 1.706 3.463 1.706 2.845 0 4.993-2.341 4.993-5.693 0-3.372-2.188-5.693-4.993-5.693zm-.656 8.688c-1.592 0-2.806-1.19-2.806-2.995 0-1.785 1.214-2.995 2.806-2.995s2.765 1.21 2.765 2.995c0 1.805-1.193 2.995-2.765 2.995zm13.069-8.688c-3.144 0-5.69 2.4-5.69 5.693 0 3.273 2.506 5.693 5.69 5.693 3.203 0 5.71-2.4 5.71-5.693 0-3.293-2.547-5.693-5.71-5.693zm0 2.698c1.592 0 2.825 1.21 2.825 2.995 0 1.805-1.233 2.995-2.825 2.995s-2.825-1.19-2.825-2.995c0-1.785 1.233-2.995 2.825-2.995zm15.462-2.46v4.027h-4.914V6.05h-2.845v10.91H92.9v-4.206h4.914v4.205h2.845V6.05h-2.845zm12.325 0l-4.496 7.061.139-3.193V6.05h-2.845v10.91h3.283l4.516-7.102-.179 3.234v3.867h2.845V6.05h-3.263zm11.95-.238c-1.532 0-2.706.714-3.462 1.765V6.05h-2.845v15.868h2.845v-6.426c.776 1.031 1.91 1.706 3.462 1.706 2.845 0 4.994-2.341 4.994-5.693 0-3.372-2.188-5.693-4.994-5.693zm-.656 8.688c-1.592 0-2.806-1.19-2.806-2.995 0-1.785 1.214-2.995 2.806-2.995 1.591 0 2.765 1.21 2.765 2.995 0 1.805-1.193 2.995-2.765 2.995zm14.503-8.45l-2.726 6.387-2.706-6.387h-3.024l4.218 9.462-2.865 6.406h3.024l7.123-15.868h-3.044zm9.83-1.369c1.731 0 3.323-1.15 3.323-3.154V.992h-2.228v.456c0 .675-.438 1.091-1.095 1.091-.656 0-1.094-.416-1.094-1.09V.991h-2.248v.536c0 2.003 1.591 3.153 3.342 3.153zm1.97 1.369l-4.497 7.061.14-3.193V6.05h-2.845v10.91h3.282l4.517-7.102-.179 3.234v3.867H151V6.05h-3.263zM55.928 29.614c-3.143 0-5.69 2.4-5.69 5.693 0 3.273 2.507 5.693 5.69 5.693 3.203 0 5.71-2.4 5.71-5.693 0-3.292-2.546-5.693-5.71-5.693zm0 2.698c1.592 0 2.825 1.21 2.825 2.995 0 1.805-1.233 2.995-2.825 2.995s-2.825-1.19-2.825-2.995c0-1.785 1.233-2.995 2.825-2.995zm15.462-2.459v4.026h-4.914v-4.026h-2.845v10.91h2.845v-4.206h4.915v4.205h2.845v-10.91H71.39zm7.869 0l-1.035 6.367c-.278 1.686-.696 2.142-1.671 2.142-.239 0-.478-.02-.736-.06v2.56c.418.079.895.138 1.333.138 1.99 0 3.362-1.27 3.88-4.502l.656-3.968h2.825v8.232h2.846v-10.91h-8.098zm18.547 0v1.527c-.757-1.051-1.91-1.765-3.462-1.765-2.806 0-4.974 2.32-4.974 5.692 0 3.352 2.129 5.693 4.994 5.693 1.532 0 2.666-.674 3.422-1.706v1.468h2.845l.02-10.91h-2.845zM95 38.303c-1.572 0-2.765-1.19-2.765-2.996 0-1.785 1.174-2.995 2.765-2.995 1.592 0 2.806 1.21 2.806 2.995 0 1.805-1.214 2.995-2.806 2.995zm13.151-9.819c1.731 0 3.323-1.15 3.323-3.154v-.535h-2.229v.456c0 .674-.437 1.09-1.094 1.09s-1.094-.416-1.094-1.09v-.457h-2.249v.536c0 2.004 1.592 3.154 3.343 3.154zm1.97 1.369l-4.497 7.061.139-3.194v-3.867h-2.845v10.91h3.283l4.517-7.102-.179 3.233v3.868h2.845v-10.91h-3.263zm13.303 0v4.026h-4.915v-4.026h-2.845v10.91h2.845v-4.206h4.915v4.205h2.845v-10.91h-2.845z" fill="#000"/></svg>