<?xml version="1.0" encoding="utf-8"?><svg xmlns="http://www.w3.org/2000/svg" xmlns:xlink="http://www.w3.org/1999/xlink"><symbol viewBox="0 0 15 16" id="arrow-left" xmlns="http://www.w3.org/2000/svg"><path d="M14 7a1 1 0 110 2V7zM.293 8.707a1 1 0 010-1.414L6.657.929A1 1 0 018.07 2.343L2.414 8l5.657 5.657a1 1 0 11-1.414 1.414L.293 8.707zM14 9H1V7h13v2z"/></symbol><symbol viewBox="0 0 25 25" id="arrow-left-2" xmlns="http://www.w3.org/2000/svg"><path d="M25 25H12.5L0 12.5 12.5 0H25L12.5 12.5 25 25z" fill-opacity=".65"/></symbol><symbol viewBox="0 0 58 58" id="banner-item-1" xmlns="http://www.w3.org/2000/svg"><path d="M2 .157C1.387.357.337 1.432.15 2.069.05 2.432 0 4.007 0 7.482v13.126l.312-.3c.188.2.45 0 .688 0 .237 0 .5.2.687 0l.313.3V2.607l.312-.3.3-.313h34.77l.3.313.312.3v53.391h-8.999V44.61l-.312-.3-.3-.313H11.61l-.3.312-.313.3v11.389H2.612l-.3-.313-.312-.3V20.608l-.313-.3A.974.974 0 001 19.995c-.238 0-.5.113-.688.313l-.312.3v17.401c0 13.288.037 17.514.15 17.913.2.688 1.237 1.726 1.925 1.926.4.112 6.561.15 26.945.15 29.808 0 27.146.1 28.133-1 .3-.325.613-.825.688-1.1.212-.713.212-35.09 0-35.803-.075-.275-.388-.775-.688-1.1-.925-1.037-.612-1-9.436-1h-7.724v-7.7c0-5.6-.037-7.85-.15-8.2-.074-.276-.387-.776-.687-1.1-.975-1.088.588-1-19.21-.988C7.562.019 2.313.057 2 .157zm53.678 20.15l.313.301v34.777l-.313.3-.3.313H39.994V19.996H55.38l.3.312zm-28.682 30.69v5H12.998v-10h13.998v5z"/><path d="M43.305 23.308l-.312.3v6.776l.312.3.3.312h8.774l.3-.313.312-.3v-6.775l-.312-.3-.3-.312h-8.774l-.3.312zm7.687 3.688v2h-6v-4h6v2zm-7.687 7.314l-.312.3v6.775l.312.3.3.312h8.774l.3-.312.312-.3v-6.776l-.312-.3-.3-.312h-8.774l-.3.312zm7.687 3.687v2h-6v-4h6v2zm-7.687 7.313l-.312.3v6.775l.312.3.3.312h8.774l.3-.312.312-.3v-6.776l-.312-.3-.3-.312h-8.774l-.3.312zm7.687 3.687v2h-6v-4h6v2zM5.312 7.307l-.313.3v6.776l.313.3.3.312h6.774l.3-.312.312-.3V7.607l-.313-.3-.3-.312H5.613l-.3.312zm5.686 3.688v2h-4v-4h4v2zm5.312-3.688l-.312.3v6.776l.312.3.3.312h6.774l.3-.312.312-.3V7.607l-.312-.3-.3-.312H16.61l-.3.312zm5.687 3.688v2h-4v-4h4v2zm5.311-3.688l-.312.3v6.776l.312.3.3.312h6.774l.3-.312.313-.3V7.607l-.313-.3-.3-.312h-6.774l-.3.312zm5.687 3.688v2h-4v-4h4v2zM5.312 19.308l-.313.3v6.776l.313.3.3.312h6.774l.3-.312.312-.3v-6.776l-.313-.3-.3-.312H5.613l-.3.312zm5.686 3.688v2h-4v-4h4v2zm5.312-3.688l-.312.3v6.776l.312.3.3.312h6.774l.3-.312.312-.3v-6.776l-.312-.3-.3-.312H16.61l-.3.312zm5.687 3.688v2h-4v-4h4v2zm5.311-3.688l-.312.3v6.776l.312.3.3.312h6.774l.3-.312.313-.3v-6.776l-.313-.3-.3-.312h-6.774l-.3.312zm5.687 3.688v2h-4v-4h4v2zM5.312 31.308l-.313.3v6.776l.313.3.3.312h6.774l.3-.312.312-.3v-6.776l-.313-.3-.3-.312H5.613l-.3.312zm5.686 3.688v2h-4v-4h4v2zm5.312-3.688l-.312.3v6.776l.312.3.3.312h6.774l.3-.312.312-.3v-6.776l-.312-.3-.3-.312H16.61l-.3.312zm5.687 3.688v2h-4v-4h4v2zm5.311-3.688l-.312.3v6.776l.312.3.3.312h6.774l.3-.312.313-.3v-6.776l-.313-.3-.3-.312h-6.774l-.3.312zm5.687 3.688v2h-4v-4h4v2z"/></symbol><symbol viewBox="0 0 79 58" id="banner-item-2" xmlns="http://www.w3.org/2000/svg"><path d="M38.79.435c-.416.398-.432.525-.524 2.481l-.078 2.047-13.192 7.027c-7.253 3.876-13.332 7.19-13.486 7.39-.201.236-1.374 4.872-3.734 14.798-1.898 7.951-3.812 15.939-4.244 17.75l-.787 3.314H1.696c-.957 0-1.096.037-1.373.471-.525.78-.401 1.558.308 1.975.664.416 77.074.416 77.738 0 .71-.417.833-1.196.308-1.975-.278-.434-.416-.47-1.373-.47h-1.05l-.786-3.315c-.432-1.811-2.346-9.799-4.243-17.75-2.361-9.926-3.534-14.562-3.735-14.798-.154-.2-6.233-3.514-13.486-7.39L40.812 4.963l-.078-2.047C40.642.96 40.626.833 40.21.435 39.978.199 39.654 0 39.5 0c-.154 0-.478.2-.71.435zm-.524 12.099v4.582l-1.25 1.811c-3.441 5.017-8.564 11.248-11.943 14.563-3.95 3.857-7.993 6.828-11.68 8.585-.68.344-1.112 1.05-.988 1.648.046.236 1.728 2.898 3.734 5.923l3.641 5.506-7.206.054c-3.98.018-7.252 0-7.298-.054-.077-.073 7.823-33.453 7.993-33.78.077-.163 24.626-13.366 24.889-13.384.061-.019.108 2.046.108 4.546zm15.152 2.137c6.758 3.622 12.329 6.665 12.36 6.774.293.905 8.008 33.634 7.946 33.707-.046.054-3.317.072-7.298.054l-7.206-.054 3.641-5.506c2.006-3.025 3.688-5.706 3.734-5.941.17-.76-.355-1.286-2.16-2.246-2.638-1.377-5.37-3.315-8.116-5.76-4.552-4.057-9.906-10.324-14.335-16.772l-1.25-1.81v-4.601c0-3.587.047-4.565.201-4.492.093.036 5.725 3.043 12.483 6.647zM38.219 55.188c-.03.036-3.225.036-7.082.018l-7.02-.054 7.035-15.939 7.036-15.92.047 15.92c.015 8.748.015 15.939-.016 15.975zm9.073-17.243a6431.052 6431.052 0 006.82 15.45l.85 1.847H40.733V39.25c0-15.594.016-15.957.294-15.431.154.29 2.978 6.647 6.264 14.127zm-14.396-8.567c-.34.725-2.886 6.502-5.663 12.824-2.793 6.32-5.107 11.573-5.17 11.646-.092.127-6.048-8.658-6.526-9.6-.077-.145.247-.416 1.003-.833 1.358-.724 4.69-3.079 6.203-4.347 2.793-2.373 5.493-5.071 8.564-8.567 1.157-1.322 2.113-2.409 2.144-2.427.031 0-.216.598-.555 1.304zm18.516 5.162c3.842 3.912 7.931 7.19 11.048 8.875.756.417 1.08.688 1.003.833-.478.942-6.434 9.727-6.527 9.6-.062-.073-2.376-5.325-5.169-11.646a2538.462 2538.462 0 00-5.678-12.86l-.633-1.358 2.176 2.463c1.203 1.358 2.9 3.206 3.78 4.093z"/></symbol><symbol viewBox="0 0 67 58" id="banner-item-3" xmlns="http://www.w3.org/2000/svg"><path d="M32.714.208C32.15.59.556 26.73.32 27.01c-.747.89-.105 2.24 1.075 2.24.262 0 .616-.103.786-.217.183-.114 7.247-5.928 15.699-12.912C26.332 9.125 33.33 3.388 33.434 3.35c.105-.05 1.049.649 2.385 1.756 7.063 5.877 28.724 23.737 29 23.928 1.166.789 2.686-.522 2.017-1.743-.157-.28-2.529-2.328-6.434-5.559l-6.198-5.127V9.698c0-7.531 0-7.544-.734-8.014-.34-.204-.707-.23-4.272-.23h-3.905l-.419.42-.432.407-.04 3.053c-.026 1.68-.065 3.054-.105 3.054-.039 0-2.267-1.832-4.953-4.058-2.7-2.24-5.019-4.122-5.163-4.198-.406-.204-1.1-.166-1.467.076zM51.32 9.214c0 2.697-.026 4.898-.065 4.898-.04 0-.957-.725-2.031-1.616l-1.966-1.602V4.317h4.062v4.897z"/><path d="M32.858 8.184c-.564.305-26.051 21.499-26.274 21.855-.642 1.018.34 2.315 1.507 2.01.262-.076.878-.47 1.376-.89.498-.42.943-.764 1.009-.764.052 0 .092 6.017.092 13.37v13.37l.445.433.446.432H55.54l.445-.432.446-.433v-13.37c0-7.353.04-13.37.105-13.37.052 0 .471.318.943.713 1.075.915 1.573 1.132 2.176.94.864-.279 1.244-1.322.733-2.047-.236-.356-25.513-21.372-26.169-21.766-.458-.267-.917-.293-1.362-.051zm10.745 11.398l9.933 8.205v13.701l.013 13.713h-11.4V38.155l-.38-.407-.38-.42-7.667-.038c-4.874-.013-7.783.013-8.006.102-.184.063-.459.305-.603.534-.249.407-.262.649-.262 8.841v8.434h-11.4l.026-13.7.04-13.714 9.958-8.23c5.478-4.529 10.012-8.23 10.077-8.205.066.025 4.587 3.727 10.051 8.23zm-4.337 28.05v7.57H27.734v-15.14h11.532v7.57z"/></symbol><symbol viewBox="0 0 11 11" id="close" xmlns="http://www.w3.org/2000/svg"><path fill-rule="evenodd" clip-rule="evenodd" d="M10.749 10.39a.863.863 0 00.006-1.21L7.13 5.508l3.5-3.544a.863.863 0 00-.007-1.21.838.838 0 00-1.195-.006l-3.5 3.543L2.428.75a.838.838 0 00-1.195.006.864.864 0 00-.006 1.21l3.5 3.544-3.625 3.67a.864.864 0 00.006 1.21.838.838 0 001.195.007l3.625-3.67 3.625 3.67a.838.838 0 001.196-.007z"/></symbol><symbol viewBox="0 0 12 8" id="navarrow" xmlns="http://www.w3.org/2000/svg"><path d="M.699 1.425l5.424 5.424 5.425-5.424"/></symbol><symbol viewBox="0 0 11 11" id="plus" xmlns="http://www.w3.org/2000/svg"><path d="M5.5 1v9M1 5.5h9"/></symbol><symbol viewBox="0 0 36 76" id="step-1" xmlns="http://www.w3.org/2000/svg"><path d="M28.197 1.5c-.714 0-1.423.121-2.097.36L5.954 8.966A6.676 6.676 0 001.5 15.262c0 4.65 4.635 7.876 8.995 6.26l8.542-3.166v48.412a7.732 7.732 0 1015.463 0V7.803A6.303 6.303 0 0028.197 1.5z"/></symbol><symbol viewBox="0 0 54 76" id="step-2" xmlns="http://www.w3.org/2000/svg"><path d="M30.874 54.037l.007-.006.67-.637c6.102-5.8 10.889-10.349 14.152-14.703 3.439-4.588 5.26-9.05 5.26-14.652 0-12.42-9.069-22.539-23.375-22.539C15.643 1.5 6.476 8.56 3.18 20.146c-1.184 4.162 2.294 7.655 6.212 7.655 3.365 0 5.93-2.455 7.006-5.263.93-2.428 2.264-4.26 3.987-5.489 1.718-1.226 3.93-1.931 6.75-1.931 3.564 0 6.172 1.12 7.881 2.783 1.713 1.666 2.642 3.991 2.642 6.63 0 2.618-.725 4.68-3.247 7.793-2.6 3.21-6.959 7.354-14.093 14.125l-.003.002L3.693 62.303A7.076 7.076 0 008.576 74.5h37.115a6.809 6.809 0 000-13.618H23.587l7.287-6.845z"/></symbol><symbol viewBox="0 0 54 76" id="step-3" xmlns="http://www.w3.org/2000/svg"><path d="M52.5 52.6c0-7.349-3.093-13.23-8.547-16.461 4.25-3.075 6.558-8.168 6.558-13.802C50.511 10.014 40.334 1.5 27.045 1.5 16.505 1.5 7.43 6.44 3.747 17.113c-1.463 4.24 2.136 7.884 6.123 7.884 3.256 0 5.716-2.316 6.977-4.836.99-1.978 2.309-3.273 3.904-4.092 1.62-.833 3.618-1.224 6.023-1.224 3.523 0 6.117.984 7.812 2.505 1.68 1.507 2.62 3.668 2.62 6.34 0 2.55-.87 4.204-2.405 5.29-1.632 1.153-4.225 1.816-7.937 1.816H24.92a6.334 6.334 0 100 12.668h3.753c4.237 0 6.817.952 8.332 2.311 1.483 1.332 2.19 3.28 2.19 5.858 0 2.98-.996 5.296-2.802 6.887-1.828 1.611-4.666 2.635-8.624 2.635-5.532 0-9.635-1.846-11.743-6.029-1.286-2.552-3.776-4.993-7.123-4.993-3.918 0-7.507 3.525-6.148 7.735C6.392 69.141 16.484 74.5 27.859 74.5c7.137 0 13.3-1.985 17.702-5.778 4.428-3.815 6.939-9.346 6.939-16.123z"/></symbol><symbol viewBox="0 0 36 36" id="user" xmlns="http://www.w3.org/2000/svg"><path fill-rule="evenodd" clip-rule="evenodd" d="M36 18c0 9.941-8.059 18-18 18S0 27.941 0 18 8.059 0 18 0s18 8.059 18 18zm-13.333-5.333a4.667 4.667 0 11-9.334 0 4.667 4.667 0 019.334 0zm-6.06 6a7.273 7.273 0 00-7.274 7.272c0 .402.326.728.728.728h15.878a.727.727 0 00.728-.728 7.273 7.273 0 00-7.273-7.272h-2.788z"/></symbol></svg>