<svg width="49" height="66" viewBox="0 0 49 66" fill="none" xmlns="http://www.w3.org/2000/svg"><path d="M39.619 31.45c4.736-2.461 7.468-7.293 7.468-12.853C47.087 7.749 37.707 0 24.41 0 11.93 0 2.004 6.746.638 20.238h13.115c1.275-5.926 4.918-7.931 10.292-7.931 6.921 0 9.927 3.464 9.927 8.022 0 4.74-3.825 6.38-9.654 6.38h-6.831v11.396h8.47c7.469 0 9.928 2.735 9.928 7.11 0 5.197-3.28 8.478-10.747 8.478-6.467 0-10.839-2.37-11.932-8.66H0C1.093 59.163 11.931 66 25.229 66 39.437 66 49 58.89 49 46.492c0-7.202-3.461-12.58-9.381-15.042z" fill="#FC6733"/></svg>