<svg width="140" height="140" viewBox="0 0 140 140" fill="none" xmlns="http://www.w3.org/2000/svg"><path d="M140 70c0 38.66-31.34 70-70 70S0 108.66 0 70 31.34 0 70 0s70 31.34 70 70zM10.5 70c0 32.861 26.64 59.5 59.5 59.5 32.861 0 59.5-26.639 59.5-59.5 0-32.86-26.639-59.5-59.5-59.5-32.86 0-59.5 26.64-59.5 59.5z" fill="#D9D9D9"/><path d="M43.667 47C34.366 47 27 53.417 27 63.202c0 9.594 7.116 14.677 14.607 14.677 2.746 0 4.806-.7 6.804-1.78L36.3 92.238h8.302C54.778 78.45 60.27 71.652 60.27 63.265 60.27 53.163 52.718 47 43.667 47zm-.063 25.35c-5.306 0-9.488-3.367-9.488-9.148 0-5.719 4.12-9.34 9.55-9.34 5.306 0 9.489 3.558 9.489 9.276s-3.995 9.213-9.55 9.213zm23.917 11.691c-2.621 0-4.556 1.843-4.556 4.448C62.965 91.094 64.9 93 67.52 93c2.622 0 4.62-1.906 4.62-4.511 0-2.605-1.998-4.448-4.62-4.448zm30.872-21.92c-2.746 0-4.806.7-6.804 1.78l12.11-16.139h-8.302C85.222 61.55 79.73 68.348 79.73 76.735 79.73 86.837 87.282 93 96.333 93 105.634 93 113 86.583 113 76.798c0-9.594-7.116-14.677-14.607-14.677zm-2.06 24.017c-5.305 0-9.488-3.558-9.488-9.276s3.995-9.213 9.55-9.213c5.307 0 9.489 3.368 9.489 9.15 0 5.718-4.12 9.34-9.55 9.34z" fill="#222"/><path d="M70 0a70 70 0 11-20.38 3.033l3.057 10.045A59.5 59.5 0 1070 10.5V0z" fill="#2655FF"/></svg>