<svg width="143" height="140" viewBox="0 0 143 140" fill="none" xmlns="http://www.w3.org/2000/svg"><path d="M123 53l12.5 10 5-15" stroke="#FC6733" stroke-width="5"/><path d="M126.555 111.25A70.002 70.002 0 016.961 100.432a70 70 0 11132.197-41.254L128.785 60.8a59.505 59.505 0 00-56.339-50.25 59.5 59.5 0 1045.626 94.511l8.483 6.188z" fill="#FC6733"/><path d="M70 10v14m0 92v14M10 70h14" stroke="#FC6733" stroke-width="5"/><path d="M49.16 77.055l.056-.028 3.067-2.59c3.989-3.41 6.053-5.128 6.053-8.019 0-3.218-2.594-5.836-6.75-5.836-4.044 0-6.972 2.482-7.419 6.464h3.18c.418-2.182 1.73-3.519 4.1-3.519 2.398 0 3.71 1.364 3.71 3.028 0 1.69-1.116 2.645-5.495 6.381L44 77.791V80h14.81v-2.945h-9.65zm27.703-4.337h-2.817V60.91H69.36l-8.534 11.81v2.917l10.068-.027V80h3.152v-4.39h2.817v-2.892zm-12.607 0l6.387-8.945h.251v8.945h-6.638zM87.036 59h-3.18l-5.662 21h3.18l5.662-21zm1.354 1.91v2.945h9.845L89.95 80h3.57L102 63.173v-2.264H88.39z" fill="#222"/></svg>