<svg width="56" height="46" viewBox="0 0 56 46" fill="none" xmlns="http://www.w3.org/2000/svg"><path d="M1.5 17.482c0-2.91.003-4.952.2-6.514.193-1.522.55-2.396 1.13-3.059.577-.662 1.392-1.132 2.868-1.524 1.517-.403 3.533-.675 6.41-1.06l21.737-2.907c4.138-.554 7.076-.943 9.286-.917 2.17.026 3.322.454 4.12 1.256.8.803 1.226 1.96 1.248 4.14.023 2.218-.369 5.167-.926 9.315l-2.371 17.661c-.387 2.88-.661 4.901-1.064 6.422-.393 1.48-.863 2.297-1.523 2.876-.66.579-1.528.936-3.041 1.128-1.555.198-3.587.201-6.485.201H13.722c-3.277 0-5.583-.003-7.328-.239-1.701-.229-2.642-.654-3.322-1.336-.68-.682-1.105-1.628-1.334-3.337-.235-1.751-.238-4.066-.238-7.352V17.482z" fill="#fff" stroke="#0085FF" stroke-width="3"/><path d="M1.5 21c0-3.342.003-5.698.243-7.481.234-1.74.668-2.708 1.368-3.408.7-.7 1.668-1.134 3.408-1.368C8.302 8.503 10.658 8.5 14 8.5h28c3.342 0 5.698.003 7.481.243 1.74.234 2.708.668 3.408 1.368.7.7 1.134 1.668 1.368 3.408.24 1.783.243 4.139.243 7.481v11c0 3.342-.003 5.698-.243 7.481-.234 1.74-.668 2.708-1.368 3.408-.7.7-1.668 1.134-3.408 1.368-1.783.24-4.139.243-7.481.243H14c-3.342 0-5.698-.003-7.481-.243-1.74-.234-2.708-.668-3.408-1.368-.7-.7-1.134-1.668-1.368-3.408C1.503 37.698 1.5 35.342 1.5 32V21z" fill="#fff" stroke="#0085FF" stroke-width="3"/></svg>