<svg width="82" height="53" viewBox="0 0 82 53" fill="none" xmlns="http://www.w3.org/2000/svg"><path d="M11.133 50.2c.775-4.316-1.28-8.53-4.11-11.877C3.856 34.58 2 30.024 2 25.113 2 12.347 14.536 2 30 2s28 10.348 28 23.112c0 12.765-12.536 23.112-28 23.112a34.17 34.17 0 01-1.7-.042c-5.553-.274-11.315-.003-16.158 2.728a.682.682 0 01-1.008-.71z" fill="#fff" stroke="#0085FF" stroke-width="3"/><path d="M72.987 50.379c-.595-3.35.996-6.62 3.175-9.232 2.42-2.9 3.838-6.423 3.838-10.223C80 21.024 70.374 13 58.5 13S37 21.025 37 30.924s9.626 17.923 21.5 17.923c.434 0 .865-.01 1.292-.031 4.27-.211 8.705-.002 12.42 2.114a.525.525 0 00.775-.551z" fill="#fff" stroke="#0085FF" stroke-width="3"/></svg>