<svg width="66" height="59" viewBox="0 0 66 59" fill="none" xmlns="http://www.w3.org/2000/svg"><path d="M52 32v1.5V32zm-38 0v-1.5V32zm-5.121-.879l1.06-1.06-1.06 1.06zm0-28.242l1.06 1.06-1.06-1.06zM14 2v1.5V2zm38 0v1.5V2zm5.121.879l-1.06 1.06 1.06-1.06zM58 8h1.5H58zm0 18h1.5H58zm-16.417 0v1.5V26zm5.122-.879l1.06 1.061-1.06-1.06zM24.417 26v-1.5V26zM19.295 8.879l-1.06-1.061 1.06 1.06zM24.417 8V6.5 8zm17.166 0v1.5V8zm5.122.879l-1.06 1.06 1.06-1.06zM47.583 14h1.5-1.5zm0 6h-1.5 1.5zM52 33.5c1.372 0 2.552.003 3.492-.123.983-.132 1.925-.43 2.69-1.195l-2.121-2.121c-.114.114-.319.255-.97.343-.693.093-1.634.096-3.091.096v3zm-38 0h38v-3H14v3zm-6.182-1.318c.765.764 1.707 1.063 2.69 1.195.94.126 2.12.123 3.492.123v-3c-1.457 0-2.398-.003-3.092-.096-.65-.088-.854-.23-.969-.343l-2.121 2.121zM6.5 26c0 1.372-.003 2.552.123 3.492.132.983.43 1.925 1.195 2.69l2.121-2.121c-.114-.114-.255-.319-.343-.97C9.503 28.399 9.5 27.458 9.5 26h-3zm0-18v18h3V8h-3zm1.318-6.182c-.764.765-1.063 1.707-1.195 2.69C6.497 5.448 6.5 6.628 6.5 8h3c0-1.457.003-2.398.096-3.092.088-.65.23-.854.343-.969L7.818 1.82zM14 .5c-1.372 0-2.552-.003-3.492.123-.983.132-1.925.43-2.69 1.195L9.939 3.94c.114-.114.319-.255.97-.343.693-.093 1.634-.096 3.091-.096v-3zm38 0H14v3h38v-3zm6.182 1.318c-.765-.764-1.707-1.062-2.69-1.195C54.552.497 53.372.5 52 .5v3c1.457 0 2.398.003 3.092.097.65.087.855.228.969.342l2.121-2.12zM59.5 8c0-1.372.003-2.551-.123-3.492-.132-.983-.43-1.925-1.195-2.69L56.061 3.94c.114.115.255.319.343.97.093.693.096 1.634.096 3.091h3zm0 0h-3 3zm0 18V8h-3v18h3zm-1.318 6.182c.764-.765 1.063-1.707 1.195-2.69.126-.94.123-2.12.123-3.492h-3c0 1.457-.003 2.398-.096 3.092-.088.65-.23.855-.343.969l2.121 2.121zM41.583 27.5c1.372 0 2.552.003 3.492-.123.983-.132 1.926-.43 2.69-1.195l-2.12-2.121c-.115.114-.32.255-.97.343-.693.093-1.635.096-3.092.096v3zm-17.166 0h17.166v-3H24.417v3zm-6.182-1.318c.764.765 1.707 1.063 2.69 1.195.94.126 2.12.123 3.492.123v-3c-1.457 0-2.399-.003-3.092-.096-.65-.088-.855-.23-.969-.343l-2.121 2.121zM16.917 20c0 1.372-.004 2.552.123 3.492.132.983.43 1.925 1.195 2.69l2.121-2.121c-.114-.114-.255-.319-.343-.97-.093-.693-.096-1.634-.096-3.091h-3zm0-6v6h3v-6h-3zm1.318-6.182c-.765.765-1.063 1.707-1.195 2.69-.127.94-.123 2.12-.123 3.492h3c0-1.457.003-2.398.096-3.092.088-.65.229-.854.343-.969l-2.121-2.121zM24.417 6.5c-1.372 0-2.552-.003-3.492.123-.983.132-1.926.43-2.69 1.195l2.121 2.121c.114-.114.318-.255.969-.343.694-.093 1.635-.096 3.092-.096v-3zm17.166 0H24.417v3h17.166v-3zm6.182 1.318c-.764-.764-1.707-1.063-2.69-1.195-.94-.126-2.12-.123-3.492-.123v3c1.457 0 2.399.003 3.092.097.651.087.855.228.97.342l2.12-2.12zM49.083 14c0-1.372.004-2.552-.123-3.492-.132-.983-.43-1.925-1.195-2.69l-2.12 2.121c.113.115.255.319.342.97.093.693.096 1.634.096 3.091h3zm0 0h-3 3zm0 6v-6h-3v6h3zm-1.318 6.182c.765-.764 1.063-1.707 1.195-2.69.127-.94.123-2.12.123-3.492h-3c0 1.457-.003 2.398-.096 3.092-.087.65-.229.855-.343.969l2.121 2.121z" fill="#0085FF"/><path d="M57.328 57c3.508 0 5.262 0 6.163-1.143.9-1.144.49-2.85-.33-6.26l-1.684-7c-.531-2.207-.796-3.31-1.613-3.953-.817-.644-1.95-.644-4.22-.644H10.642c-2.214 0-3.321 0-4.13.62-.807.62-1.093 1.69-1.665 3.83l-1.87 7c-.928 3.47-1.391 5.204-.491 6.377S5.18 57 8.77 57h48.56z" stroke="#0085FF" stroke-width="3"/></svg>