<svg width="76" height="48" viewBox="0 0 76 48" fill="none" xmlns="http://www.w3.org/2000/svg"><path d="M1.5 35c0-1.457.003-2.398.096-3.092.088-.65.23-.855.343-.969.115-.114.318-.255.97-.343.693-.093 1.634-.096 3.091-.096h11c1.457 0 2.398.003 3.092.096.65.088.854.23.969.343.114.114.255.318.343.969.093.694.096 1.635.096 3.092v7c0 1.457-.003 2.398-.096 3.092-.088.65-.23.855-.343.969-.114.114-.319.255-.97.343-.693.093-1.634.096-3.091.096H6c-1.457 0-2.398-.003-3.092-.096-.65-.088-.854-.23-.969-.343-.114-.114-.255-.319-.343-.97C1.503 44.399 1.5 43.458 1.5 42v-7zm26-17c0-1.457.003-2.398.096-3.092.088-.65.23-.854.343-.969.114-.114.319-.255.97-.342.693-.094 1.634-.097 3.091-.097h11c1.457 0 2.398.003 3.092.097.65.087.854.228.969.342.114.114.255.318.343.97.093.693.096 1.634.096 3.091v24c0 1.457-.003 2.398-.096 3.092-.088.65-.23.855-.343.969-.114.114-.319.255-.97.343-.693.093-1.634.096-3.091.096H32c-1.457 0-2.398-.003-3.092-.096-.65-.088-.855-.23-.969-.343-.114-.114-.255-.319-.343-.97-.093-.693-.096-1.634-.096-3.091V18zm27-12c0-1.457.003-2.398.096-3.092.088-.65.23-.854.343-.969.114-.114.319-.255.97-.343.693-.093 1.634-.096 3.091-.096h11c1.457 0 2.398.003 3.092.096.65.088.854.23.969.343.114.115.255.318.342.969.094.694.097 1.635.097 3.092v36c0 1.457-.003 2.398-.097 3.092-.087.65-.228.855-.342.969-.115.114-.319.255-.97.343-.693.093-1.634.096-3.091.096H59c-1.457 0-2.398-.003-3.092-.096-.65-.088-.855-.23-.969-.343-.114-.114-.255-.319-.343-.97-.093-.693-.096-1.634-.096-3.091V6z" stroke="#0085FF" stroke-width="3"/></svg>