<svg width="56" height="56" viewBox="0 0 56 56" fill="none" xmlns="http://www.w3.org/2000/svg"><path d="M14.082 54.5c-3.36 0-5.729-.003-7.52-.245-1.75-.235-2.72-.673-3.421-1.377-.701-.705-1.133-1.68-1.358-3.43-.23-1.792-.22-4.161-.2-7.521l.052-8.972c.02-3.33.036-5.678.285-7.453.243-1.733.68-2.697 1.382-3.392.7-.696 1.668-1.126 3.402-1.355 1.778-.235 4.126-.233 7.456-.227l27.866.058c3.336.006 5.687.014 7.466.257 1.737.237 2.703.672 3.401 1.372.698.7 1.131 1.666 1.365 3.403.239 1.78.242 4.131.242 7.467V42c0 3.342-.003 5.698-.243 7.481-.234 1.74-.668 2.708-1.368 3.408-.7.7-1.668 1.134-3.408 1.368-1.783.24-4.139.243-7.481.243H14.082z" stroke="#0085FF" stroke-width="3"/><path d="M1.5 7A5.5 5.5 0 017 1.5h22.615a5.5 5.5 0 015.5 5.5v42a5.5 5.5 0 01-5.5 5.5H7A5.5 5.5 0 011.5 49V7zm16.808 40.808a2.577 2.577 0 100-5.154 2.577 2.577 0 000 5.154z" fill="#fff" stroke="#0085FF" stroke-width="3"/></svg>