<svg width="38" height="61" viewBox="0 0 38 61" fill="none" xmlns="http://www.w3.org/2000/svg"><path d="M9.054 1.129c-1.652.542-2.73 1.844-3.006 3.643-.058.415-.195 5.153-.299 10.549-.103 5.384-.206 10.018-.24 10.284-.046.426-.104.507-.368.564-.172.046-.677.242-1.124.462-1.514.714-2.478 2.017-2.868 3.85-.379 1.787-.012 5.257.837 7.886.78 2.433 1.55 3.84 3.511 6.433 2.054 2.72 2.042 2.686 2.157 6.894.057 2.387.138 3.494.264 4.024.63 2.49 2.157 3.69 5.231 4.104 1.47.208 11.886.242 13.424.058 1.985-.242 3.19-.692 4.073-1.51 1.377-1.28 1.778-2.883 1.778-7.183 0-3.044.138-3.47 1.847-5.753 1.17-1.556 1.813-2.767 2.215-4.139.504-1.775.539-2.57.504-11.909l-.034-8.762-.275-.576c-.597-1.2-1.779-2.03-3.282-2.283-.895-.15-1.893.011-2.753.438-.517.265-.585.265-.689.104-.94-1.557-2.225-2.33-4.038-2.444-1.48-.081-2.903.45-3.866 1.464l-.333.346-.574-.52c-1.01-.91-2.065-1.313-3.419-1.313-.895 0-2.053.322-2.684.749-.23.161-.448.277-.47.254-.024-.023-.127-2.767-.23-6.088-.184-6.64-.23-6.998-.907-8.024-.447-.68-.929-1.072-1.732-1.43-.7-.31-1.973-.403-2.65-.172zm2.008 1.625c.825.358 1.365 1.13 1.468 2.11.034.3.15 3.931.264 8.082l.206 7.54.253.219c.585.472 1.25.115 1.354-.715.298-2.352 3.419-3.39 5.3-1.764.574.484.815.91.975 1.764.15.75.517 1.05 1.056.865.378-.139.459-.289.62-1.119.412-2.167 3.487-3.055 5.265-1.51.563.473.872 1.05.964 1.764.046.334.15.588.31.715.436.357.746.253 1.423-.415.906-.923 1.916-1.188 3.097-.83.7.219 1.274.668 1.56 1.222.219.438.23.691.23 9.13 0 7.068-.034 8.878-.172 9.72-.31 1.948-.769 2.95-2.295 5.014-1.4 1.891-1.87 2.883-2.076 4.29l-.069.553H9.272l-.08-.611c-.127-.923-.586-2.26-1.033-3.01-.23-.368-.895-1.302-1.48-2.075-1.733-2.248-2.433-3.54-3.144-5.718-.62-1.902-.872-3.516-.883-5.534 0-1.983.16-2.629.849-3.47.31-.38 1.537-1.141 1.835-1.141.092 0 .127.553.127 1.775 0 1.88.046 2.03.562 2.202.31.092.803-.127.918-.427.046-.15.206-6.052.344-13.12.138-7.067.31-13.108.367-13.43.138-.692.574-1.465.998-1.764.7-.496 1.664-.611 2.41-.312zm19.756 49.597c-.012 3.816-.666 5.05-3.04 5.707-.884.242-1.148.254-6.999.3-6.356.046-7.56-.011-8.903-.438-1.044-.323-1.63-.796-2.054-1.649-.424-.876-.573-1.856-.573-3.804v-1.464h21.569v1.349z" fill="#0085FF" stroke="#0085FF"/></svg>