<svg width="57" height="57" viewBox="0 0 57 57" fill="none" xmlns="http://www.w3.org/2000/svg"><path d="M23.87 16.31c0-1.52.643-2.965 1.762-3.97l10.581-9.505a5.181 5.181 0 016.943 0l10.581 9.505a5.336 5.336 0 011.763 3.97v33.885c0 2.945-2.358 5.305-5.234 5.305H29.103c-2.876 0-5.234-2.36-5.234-5.305V16.31z" stroke="#0085FF" stroke-width="3"/><path d="M15.033 12.77a5.222 5.222 0 013.677-2.226l7.925-.943c2.622-.312 5.079 1.407 5.7 4.031l1.856 7.844a5.364 5.364 0 01-.802 4.28l-12.586 18.22a5.19 5.19 0 01-7.277 1.312l-9.781-6.9C1.372 36.714.783 33.4 2.447 30.99l12.586-18.22z" stroke="#0085FF" stroke-width="3"/></svg>