<svg width="63" height="65" viewBox="0 0 63 65" fill="none" xmlns="http://www.w3.org/2000/svg"><path d="M57.12 1.073a3.9 3.9 0 00-.676.296c-.21.11-6.156 5.987-13.235 13.072L30.343 27.328h-.726c-1.637 0-3.336.751-4.838 2.144-2.007 1.835-3.977 3.264-6.685 4.817-5.405 3.117-11.955 5.36-15.673 5.36-.788 0-.985.036-1.194.246-.332.332-.32.48.172 2.18 2.118 7.331 6.932 13.996 13.444 18.604 2.5 1.774 5.528 3.438 6.02 3.315.16-.037.715-.592 1.244-1.208 4.605-5.495 9.024-13.75 12.36-23.076 1.232-3.438 1.601-4.965 1.601-6.518v-.874l12.693-12.69C56.21 12.174 61.553 6.74 61.713 6.445c.406-.764.381-2.132-.074-2.994-.456-.875-1.305-1.7-2.13-2.082-.714-.32-1.859-.469-2.388-.296zm1.663 1.478c.738.333 1.243.813 1.588 1.516.37.739.394 1.182.123 1.737-.172.345-24.746 25.097-24.918 25.097-.037 0-.173-.197-.308-.444-.345-.64-1.81-1.946-2.647-2.365l-.714-.358 12.582-12.579c6.907-6.924 12.705-12.64 12.878-12.702.468-.185.874-.148 1.416.098zM30.836 28.868c1.44.382 2.918 1.528 3.46 2.698.652 1.417.492 2.92-.678 6.37-3.053 8.981-7.547 17.704-11.942 23.175-.578.739-1.12 1.33-1.194 1.33-.185 0-2.967-1.602-4.026-2.328-5.355-3.623-9.64-8.625-12.163-14.169-.665-1.466-1.453-3.647-1.65-4.546l-.086-.395h.541c1.958 0 6.28-1.158 9.69-2.587 5.06-2.119 9.208-4.632 12.52-7.577 2.192-1.947 3.632-2.464 5.528-1.971z" fill="#0085FF" stroke="#0085FF" stroke-width="2"/></svg>