<svg width="40" height="40" viewBox="0 0 40 40" fill="none" xmlns="http://www.w3.org/2000/svg"><rect width="40" height="40" rx="20" fill="#229ED9"/><path d="M29.585 10.275c-.376-.318-.965-.364-1.575-.12-.642.258-18.144 7.76-18.857 8.066-.13.046-1.261.468-1.145 1.407.104.848 1.014 1.199 1.125 1.24l4.45 1.522c.295.982 1.383 4.605 1.624 5.379.15.483.395 1.117.824 1.247.376.145.75.013.992-.177l2.72-2.522 4.393 3.422.104.063c.298.132.584.198.857.198.21 0 .413-.04.606-.119.658-.27.92-.896.948-.967l3.28-17.039c.201-.91-.077-1.373-.346-1.6zM17.507 22.999l-1.5 4-1.502-5 11.508-8.5-8.506 9.5z" fill="#fff"/></svg>