<svg width="40" height="40" viewBox="0 0 40 40" fill="none" xmlns="http://www.w3.org/2000/svg"><rect width="40" height="40" rx="20" fill="#07F"/><path d="M31.867 25.882a1.72 1.72 0 00-.084-.163c-.434-.781-1.263-1.74-2.486-2.877l-.026-.026-.013-.013-.013-.013h-.013c-.556-.53-.907-.885-1.055-1.067-.27-.348-.33-.699-.182-1.055.104-.269.495-.837 1.171-1.705.356-.46.638-.828.846-1.106 1.502-1.996 2.152-3.272 1.953-3.827l-.078-.13c-.052-.078-.186-.15-.403-.215-.217-.065-.495-.075-.833-.032l-3.749.026a.487.487 0 00-.26.006l-.17.04-.065.032-.052.04a.579.579 0 00-.143.136.892.892 0 00-.13.228 21.248 21.248 0 01-1.393 2.928 27.754 27.754 0 01-.885 1.4c-.269.394-.494.685-.677.871a4.725 4.725 0 01-.494.45c-.148.113-.26.16-.339.143a9.328 9.328 0 01-.221-.052.865.865 0 01-.293-.32 1.429 1.429 0 01-.15-.507 5.604 5.604 0 01-.045-.527c-.004-.148-.002-.356.006-.625.01-.269.014-.451.014-.547 0-.33.006-.687.019-1.073l.033-.918c.008-.226.012-.464.012-.716a3.03 3.03 0 00-.045-.592 2.032 2.032 0 00-.136-.417.7.7 0 00-.267-.312 1.503 1.503 0 00-.436-.176c-.46-.104-1.046-.16-1.758-.17-1.614-.016-2.65.088-3.11.313a1.752 1.752 0 00-.495.39c-.156.192-.178.296-.065.313.52.078.889.265 1.106.56l.078.156c.06.113.122.313.182.599.061.286.1.603.117.95a9.973 9.973 0 010 1.627c-.043.451-.084.803-.123 1.054-.04.252-.098.456-.176.612-.078.156-.13.252-.156.286a.222.222 0 01-.065.065.975.975 0 01-.352.066c-.121 0-.269-.061-.442-.183a3.12 3.12 0 01-.54-.5 6.692 6.692 0 01-.632-.893 15.578 15.578 0 01-.729-1.353l-.208-.378c-.13-.243-.308-.596-.533-1.06a20.436 20.436 0 01-.6-1.348.858.858 0 00-.312-.416l-.065-.04a.888.888 0 00-.208-.11 1.386 1.386 0 00-.3-.085l-3.566.026c-.364 0-.612.083-.742.248l-.052.078a.42.42 0 00-.039.208c0 .095.026.213.078.351a42.974 42.974 0 001.699 3.54c.611 1.138 1.143 2.053 1.594 2.747a32.3 32.3 0 001.38 1.966c.469.616.779 1.01.93 1.184.152.174.272.304.359.39l.325.313c.208.208.514.458.918.748.403.291.85.578 1.34.86.49.282 1.061.512 1.712.69.65.177 1.284.249 1.9.214h1.497c.304-.026.534-.121.69-.286l.052-.065a.861.861 0 00.098-.24c.03-.11.045-.229.045-.359-.009-.373.02-.71.085-1.008.065-.3.138-.525.221-.677a1.667 1.667 0 01.502-.573.85.85 0 01.103-.045c.209-.07.454-.003.736.201.282.204.547.456.794.755.247.3.545.636.892 1.01.347.372.65.65.91.832l.261.156c.174.105.4.2.677.287.277.087.52.108.729.065l3.332-.052c.33 0 .586-.055.768-.163.182-.108.29-.228.325-.358.035-.13.037-.278.007-.443a1.635 1.635 0 00-.092-.344z" fill="#fff"/></svg>